SplineFontDB: 3.2
FontName: jgs_Font
FullName: jgs_Font
FamilyName: jgs_Font
Weight: Book
Copyright: Copyright (c) 2023, Adel Faure
Version: 001.000
ItalicAngle: 0
UnderlinePosition: -40
UnderlineWidth: 40
Ascent: 480
Descent: 80
InvalidEm: 0
sfntRevision: 0x00010000
LayerCount: 2
Layer: 0 1 "Back" 1
Layer: 1 1 "Fore" 0
XUID: [1021 618 1572476504 7232213]
StyleMap: 0x0000
FSType: 0
OS2Version: 4
OS2_WeightWidthSlopeOnly: 0
OS2_UseTypoMetrics: 1
CreationTime: 1684412106
ModificationTime: 1685454501
PfmFamily: 17
TTFWeight: 400
TTFWidth: 5
LineGap: 50
VLineGap: 0
Panose: 2 0 5 9 0 0 0 0 0 0
OS2TypoAscent: 480
OS2TypoAOffset: 0
OS2TypoDescent: -80
OS2TypoDOffset: 0
OS2TypoLinegap: 50
OS2WinAscent: 524
OS2WinAOffset: 0
OS2WinDescent: 124
OS2WinDOffset: 0
HheadAscent: 524
HheadAOffset: 0
HheadDescent: -124
HheadDOffset: 0
OS2SubXSize: 364
OS2SubYSize: 392
OS2SubXOff: 0
OS2SubYOff: 78
OS2SupXSize: 364
OS2SupYSize: 392
OS2SupXOff: 0
OS2SupYOff: 268
OS2StrikeYSize: 27
OS2StrikeYPos: 144
OS2CapHeight: 360
OS2XHeight: 199
OS2Vendor: 'PfEd'
OS2CodePages: 00000001.00000000
OS2UnicodeRanges: 00000003.00001000.00000000.00000000
DEI: 91125
TtTable: prep
PUSHW_1
 511
SCANCTRL
PUSHB_1
 1
SCANTYPE
SVTCA[y-axis]
MPPEM
PUSHB_1
 8
LT
IF
PUSHB_2
 1
 1
INSTCTRL
EIF
PUSHB_2
 70
 6
CALL
IF
POP
PUSHB_1
 16
EIF
MPPEM
PUSHB_1
 20
GT
IF
POP
PUSHB_1
 128
EIF
SCVTCI
PUSHB_1
 20
CALL
EndTTInstrs
TtTable: fpgm
PUSHB_1
 0
FDEF
PUSHB_1
 0
SZP0
MPPEM
PUSHB_1
 42
LT
IF
PUSHB_1
 74
SROUND
EIF
PUSHB_1
 0
SWAP
MIAP[rnd]
RTG
PUSHB_1
 6
CALL
IF
RTDG
EIF
MPPEM
PUSHB_1
 42
LT
IF
RDTG
EIF
DUP
MDRP[rp0,rnd,grey]
PUSHB_1
 1
SZP0
MDAP[no-rnd]
RTG
ENDF
PUSHB_1
 1
FDEF
DUP
MDRP[rp0,min,white]
PUSHB_1
 12
CALL
ENDF
PUSHB_1
 2
FDEF
MPPEM
GT
IF
RCVT
SWAP
EIF
POP
ENDF
PUSHB_1
 3
FDEF
ROUND[Black]
RTG
DUP
PUSHB_1
 64
LT
IF
POP
PUSHB_1
 64
EIF
ENDF
PUSHB_1
 4
FDEF
PUSHB_1
 6
CALL
IF
POP
SWAP
POP
ROFF
IF
MDRP[rp0,min,rnd,black]
ELSE
MDRP[min,rnd,black]
EIF
ELSE
MPPEM
GT
IF
IF
MIRP[rp0,min,rnd,black]
ELSE

StartChar: .notdef
Encoding: 1114112 -1 0
Width: 280
GlyphClass: 1
Flags: W
HStem: 0 18<36 146> 355 18<36 146>
VStem: 18 18<18 355> 146 18<18 355>
LayerCount: 2
Fore
SplineSet
18 0 m 1,0,-1
 18 373 l 1,1,-1
 164 373 l 1,2,-1
 164 0 l 1,3,-1
 18 0 l 1,0,-1
36 18 m 1,4,-1
 146 18 l 1,5,-1
 146 355 l 1,6,-1
 36 355 l 1,7,-1
 36 18 l 1,4,-1
EndSplineSet
EndChar

StartChar: exclam
Encoding: 33 33 34
Width: 280
GlyphClass: 1
Flags: W
HStem: 0 80<121.595 158.405>
VStem: 120 40<1.59521 20 60 78.4048 161.595 180 460 478.405>
LayerCount: 2
Fore
SplineSet
160 60 m 2,0,1
 160 68 160 68 154 74 c 128,-1,2
 148 80 148 80 140 80 c 128,-1,3
 132 80 132 80 126 74 c 128,-1,4
 120 68 120 68 120 60 c 2,5,-1
 120 20 l 2,6,7
 120 12 120 12 126 6 c 128,-1,8
 132 0 132 0 140 0 c 128,-1,9
 148 0 148 0 154 6 c 128,-1,10
 160 12 160 12 160 20 c 2,11,-1
 160 60 l 2,0,1
160 460 m 2,12,13
 160 468 160 468 154 474 c 128,-1,14
 148 480 148 480 140 480 c 128,-1,15
 132 480 132 480 126 474 c 128,-1,16
 120 468 120 468 120 460 c 2,17,-1
 120 180 l 2,18,19
 120 172 120 172 126 166 c 128,-1,20
 132 160 132 160 140 160 c 128,-1,21
 148 160 148 160 154 166 c 128,-1,22
 160 172 160 172 160 180 c 2,23,-1
 160 460 l 2,12,13
EndSplineSet
EndChar

StartChar: quotedbl
Encoding: 34 34 35
Width: 280
GlyphClass: 1
Flags: W
HStem: 240 120<81.5952 118.405 161.595 198.405>
VStem: 80 40<241.595 260 340 358.405> 160 40<241.595 260 340 358.405>
LayerCount: 2
Fore
SplineSet
120 340 m 2,0,1
 120 348 120 348 114 354 c 128,-1,2
 108 360 108 360 100 360 c 128,-1,3
 92 360 92 360 86 354 c 128,-1,4
 80 348 80 348 80 340 c 2,5,-1
 80 260 l 2,6,7
 80 252 80 252 86 246 c 128,-1,8
 92 240 92 240 100 240 c 128,-1,9
 108 240 108 240 114 246 c 128,-1,10
 120 252 120 252 120 260 c 2,11,-1
 120 340 l 2,0,1
200 340 m 2,12,13
 200 348 200 348 194 354 c 128,-1,14
 188 360 188 360 180 360 c 128,-1,15
 172 360 172 360 166 354 c 128,-1,16
 160 348 160 348 160 340 c 2,17,-1
 160 260 l 2,18,19
 160 252 160 252 166 246 c 128,-1,20
 172 240 172 240 180 240 c 128,-1,21
 188 240 188 240 194 246 c 128,-1,22
 200 252 200 252 200 260 c 2,23,-1
 200 340 l 2,12,13
EndSplineSet
EndChar

StartChar: numbersign
Encoding: 35 35 36
Width: 280
GlyphClass: 1
Flags: W
HStem: 0 40<-18.4048 40 80 200 240 298.405> 320 40<-18.4048 40 80 200 240 298.405>
VStem: 40 40<-118.405 0 40 320 360 478.405> 200 40<-118.405 0 40 320 360 478.405>
LayerCount: 2
Fore
SplineSet
60 480 m 128,-1,1
 68 480 68 480 74 474 c 128,-1,2
 80 468 80 468 80 460 c 2,3,-1
 80 360 l 1,4,-1
 200 360 l 1,5,-1
 200 460 l 2,6,7
 200 468 200 468 206 474 c 128,-1,8
 212 480 212 480 220 480 c 128,-1,9
 228 480 228 480 234 474 c 128,-1,10
 240 468 240 468 240 460 c 2,11,-1
 240 360 l 1,12,-1
 280 360 l 2,13,14
 288 360 288 360 294 354 c 128,-1,15
 300 348 300 348 300 340 c 128,-1,16
 300 332 300 332 294 326 c 128,-1,17
 288 320 288 320 280 320 c 2,18,-1
 240 320 l 1,19,-1
 240 40 l 1,20,-1
 280 40 l 2,21,22
 288 40 288 40 294 34 c 128,-1,23
 300 28 300 28 300 20 c 128,-1,24
 300 12 300 12 294 6 c 128,-1,25
 288 0 288 0 280 0 c 2,26,-1
 240 0 l 1,27,-1
 240 -100 l 2,28,29
 240 -108 240 -108 234 -114 c 128,-1,30
 228 -120 228 -120 220 -120 c 128,-1,31
 212 -120 212 -120 206 -114 c 128,-1,32
 200 -108 200 -108 200 -100 c 2,33,-1
 200 0 l 1,34,-1
 80 0 l 1,35,-1
 80 -100 l 2,36,37
 80 -108 80 -108 74 -114 c 128,-1,38
 68 -120 68 -120 60 -120 c 128,-1,39
 52 -120 52 -120 46 -114 c 128,-1,40
 40 -108 40 -108 40 -100 c 2,41,-1
 40 0 l 1,42,-1
 0 0 l 2,43,44
 -8 0 -8 0 -14 6 c 128,-1,45
 -20 12 -20 12 -20 20 c 128,-1,46
 -20 28 -20 28 -14 34 c 128,-1,47
 -8 40 -8 40 0 40 c 2,48,-1
 40 40 l 1,49,-1
 40 320 l 1,50,-1
 0 320 l 2,51,52
 -8 320 -8 320 -14 326 c 128,-1,53
 -20 332 -20 332 -20 340 c 128,-1,54
 -20 348 -20 348 -14 354 c 128,-1,55
 -8 360 -8 360 0 360 c 2,56,-1
 40 360 l 1,57,-1
 40 460 l 2,58,59
 40 468 40 468 46 474 c 128,-1,0
 52 480 52 480 60 480 c 128,-1,1
80 320 m 1,60,-1
 80 40 l 1,61,-1
 200 40 l 1,62,-1
 200 320 l 1,63,-1
 80 320 l 1,60,-1
EndSplineSet
EndChar

StartChar: dollar
Encoding: 36 36 37
Width: 280
GlyphClass: 1
Flags: W
VStem: 40 40<64.1489 118.405 223.88 296.12> 120 40<-118.405 5.01184 43 157 203 317 354.988 478.405> 200 40<63.8801 136.12 241.595 295.851>
CounterMasks: 1 e0
LayerCount: 2
Fore
SplineSet
140 480 m 128,-1,1
 148 480 148 480 154 474 c 128,-1,2
 160 468 160 468 160 460 c 2,3,-1
 160 358 l 1,4,5
 194 351 194 351 217 323.5 c 128,-1,6
 240 296 240 296 240 260 c 0,7,8
 240 252 240 252 234 246 c 128,-1,9
 228 240 228 240 220 240 c 128,-1,10
 212 240 212 240 206 246 c 128,-1,11
 200 252 200 252 200 260 c 0,12,13
 200 280 200 280 189 295 c 128,-1,14
 178 310 178 310 160 317 c 1,15,-1
 160 198 l 1,16,17
 194 191 194 191 217 163.5 c 128,-1,18
 240 136 240 136 240 100 c 128,-1,19
 240 64 240 64 217 36.5 c 128,-1,20
 194 9 194 9 160 2 c 1,21,22
 160 -100 160 -100 160 -100 c 2,23,24
 160 -108 160 -108 154 -114 c 128,-1,25
 148 -120 148 -120 140 -120 c 128,-1,26
 132 -120 132 -120 126 -114 c 128,-1,27
 120 -108 120 -108 120 -100 c 2,28,-1
 120 2 l 1,29,30
 86 9 86 9 63 36.5 c 128,-1,31
 40 64 40 64 40 100 c 0,32,33
 40 108 40 108 46 114 c 128,-1,34
 52 120 52 120 60 120 c 128,-1,35
 68 120 68 120 74 114 c 128,-1,36
 80 108 80 108 80 100 c 0,37,38
 80 80 80 80 91 65 c 128,-1,39
 102 50 102 50 120 43 c 1,40,-1
 120 162 l 1,41,42
 86 169 86 169 63 196.5 c 128,-1,43
 40 224 40 224 40 260 c 128,-1,44
 40 296 40 296 63 323.5 c 128,-1,45
 86 351 86 351 120 358 c 1,46,-1
 120 460 l 2,47,48
 120 468 120 468 126 474 c 128,-1,0
 132 480 132 480 140 480 c 128,-1,1
120 317 m 1,49,50
 102 310 102 310 91 295 c 128,-1,51
 80 280 80 280 80 260 c 128,-1,52
 80 240 80 240 91 225 c 128,-1,53
 102 210 102 210 120 203 c 1,54,-1
 120 317 l 1,49,50
160 157 m 1,55,-1
 160 43 l 1,56,57
 178 50 178 50 189 65 c 128,-1,58
 200 80 200 80 200 100 c 128,-1,59
 200 120 200 120 189 135 c 128,-1,60
 178 150 178 150 160 157 c 1,55,-1
EndSplineSet
EndChar

StartChar: percent
Encoding: 37 37 38
Width: 280
GlyphClass: 1
Flags: W
HStem: 0 40<201.604 238.396> 80 40<201.604 238.396> 240 40<41.6042 78.3958> 320 40<41.6042 78.3958>
VStem: 0 40<281.604 318.396> 80 40<281.604 318.396> 160 40<41.6042 78.3958> 240 40<41.6042 78.3958>
LayerCount: 2
Fore
SplineSet
220 80 m 128,-1,1
 228 80 228 80 234 74 c 128,-1,2
 240 68 240 68 240 60 c 128,-1,3
 240 52 240 52 234 46 c 128,-1,4
 228 40 228 40 220 40 c 128,-1,5
 212 40 212 40 206 46 c 128,-1,6
 200 52 200 52 200 60 c 128,-1,7
 200 68 200 68 206 74 c 128,-1,0
 212 80 212 80 220 80 c 128,-1,1
220 120 m 128,-1,9
 195 120 195 120 177.5 102.5 c 128,-1,10
 160 85 160 85 160 60 c 128,-1,11
 160 35 160 35 177.5 17.5 c 128,-1,12
 195 0 195 0 220 0 c 128,-1,13
 245 0 245 0 262.5 17.5 c 128,-1,14
 280 35 280 35 280 60 c 128,-1,15
 280 85 280 85 262.5 102.5 c 128,-1,8
 245 120 245 120 220 120 c 128,-1,9
60 320 m 128,-1,17
 68 320 68 320 74 314 c 128,-1,18
 80 308 80 308 80 300 c 128,-1,19
 80 292 80 292 74 286 c 128,-1,20
 68 280 68 280 60 280 c 128,-1,21
 52 280 52 280 46 286 c 128,-1,22
 40 292 40 292 40 300 c 128,-1,23
 40 308 40 308 46 314 c 128,-1,16
 52 320 52 320 60 320 c 128,-1,17
60 360 m 128,-1,25
 35 360 35 360 17.5 342.5 c 128,-1,26
 0 325 0 325 0 300 c 128,-1,27
 0 275 0 275 17.5 257.5 c 128,-1,28
 35 240 35 240 60 240 c 128,-1,29
 85 240 85 240 102.5 257.5 c 128,-1,30
 120 275 120 275 120 300 c 128,-1,31
 120 325 120 325 102.5 342.5 c 128,-1,24
 85 360 85 360 60 360 c 128,-1,25
298 451 m 2,32,33
 303 461 303 461 297 470.5 c 128,-1,34
 291 480 291 480 280 480 c 0,35,36
 268 480 268 480 262 469 c 2,37,-1
 -18 -91 l 2,38,39
 -23 -101 -23 -101 -17 -110.5 c 128,-1,40
 -11 -120 -11 -120 0 -120 c 0,41,42
 12 -120 12 -120 18 -109 c 2,43,-1
 298 451 l 2,32,33
EndSplineSet
EndChar

StartChar: ampersand
Encoding: 38 38 39
Width: 280
GlyphClass: 1
Flags: W
HStem: 1 40<104.317 177.962> 181 20G<216.25 224.75> 321 40<104.539 176.502>
VStem: 41 40<64.2102 136.932 223.427 297.087> 201 40<6.67273 21 116 194.812>
LayerCount: 2
Fore
SplineSet
140.5 361 m 128,-1,1
 182 361 182 361 211 331 c 0,2,3
 217 325 217 325 217 317 c 128,-1,4
 217 309 217 309 211.5 303 c 128,-1,5
 206 297 206 297 197.5 297 c 128,-1,6
 189 297 189 297 183 303 c 0,7,8
 166 321 166 321 141 321 c 128,-1,9
 116 321 116 321 98.5 303.5 c 128,-1,10
 81 286 81 286 81 261 c 0,11,12
 81 238 81 238 95 221 c 2,13,-1
 201 116 l 1,14,-1
 201 181 l 2,15,16
 201 189 201 189 206.5 195 c 128,-1,17
 212 201 212 201 220.5 201 c 128,-1,18
 229 201 229 201 235 195 c 128,-1,19
 241 189 241 189 241 181 c 2,20,-1
 241 101 l 1,21,-1
 241 21 l 2,22,23
 241 12 241 12 235 6.5 c 128,-1,24
 229 1 229 1 220.5 1 c 128,-1,25
 212 1 212 1 206.5 6.5 c 128,-1,26
 201 12 201 12 201 21 c 1,27,28
 174 1 174 1 141 1 c 0,29,30
 99 1 99 1 70 30 c 128,-1,31
 41 59 41 59 41 100.5 c 128,-1,32
 41 142 41 142 70 171 c 0,33,34
 75 176 75 176 80 180 c 1,35,36
 67 193 67 193 66 194 c 0,37,38
 41 222 41 222 41 261 c 0,39,40
 41 302 41 302 70 331.5 c 128,-1,0
 99 361 99 361 140.5 361 c 128,-1,1
109 151 m 1,41,42
 103 148 103 148 98 143 c 0,43,44
 81 125 81 125 81 100 c 128,-1,45
 81 75 81 75 98.5 58 c 128,-1,46
 116 41 116 41 141 41 c 0,47,48
 174 41 174 41 192 69 c 1,49,-1
 109 151 l 1,41,42
EndSplineSet
EndChar

StartChar: quotesingle
Encoding: 39 39 40
Width: 280
GlyphClass: 1
Flags: W
HStem: 240 120<121.595 158.405>
VStem: 120 40<241.595 260 340 358.405>
LayerCount: 2
Fore
SplineSet
160 340 m 2,0,1
 160 348 160 348 154 354 c 128,-1,2
 148 360 148 360 140 360 c 128,-1,3
 132 360 132 360 126 354 c 128,-1,4
 120 348 120 348 120 340 c 2,5,-1
 120 260 l 2,6,7
 120 252 120 252 126 246 c 128,-1,8
 132 240 132 240 140 240 c 128,-1,9
 148 240 148 240 154 246 c 128,-1,10
 160 252 160 252 160 260 c 2,11,-1
 160 340 l 2,0,1
EndSplineSet
EndChar

StartChar: parenleft
Encoding: 40 40 41
Width: 280
GlyphClass: 1
Flags: W
LayerCount: 2
Fore
SplineSet
294 446 m 0,0,1
 304 455 304 455 298.5 467.5 c 128,-1,2
 293 480 293 480 280 480 c 0,3,4
 272 480 272 480 266 474 c 0,5,6
 186 394 186 394 157.5 287 c 128,-1,7
 129 180 129 180 157.5 73 c 128,-1,8
 186 -34 186 -34 266 -114 c 0,9,10
 275 -124 275 -124 287.5 -118.5 c 128,-1,11
 300 -113 300 -113 300 -100 c 0,12,13
 300 -92 300 -92 294 -86 c 0,14,15
 222 -14 222 -14 196.5 83 c 128,-1,16
 171 180 171 180 196.5 277 c 128,-1,17
 222 374 222 374 294 446 c 0,0,1
EndSplineSet
EndChar

StartChar: parenright
Encoding: 41 41 42
Width: 280
GlyphClass: 1
Flags: W
LayerCount: 2
Fore
SplineSet
14 474 m 0,0,1
 5 484 5 484 -7.5 478.5 c 128,-1,2
 -20 473 -20 473 -20 460 c 0,3,4
 -20 452 -20 452 -14 446 c 0,5,6
 58 374 58 374 83.5 277 c 128,-1,7
 109 180 109 180 83.5 83 c 128,-1,8
 58 -14 58 -14 -14 -86 c 0,9,10
 -24 -95 -24 -95 -18.5 -107.5 c 128,-1,11
 -13 -120 -13 -120 0 -120 c 0,12,13
 8 -120 8 -120 14 -114 c 0,14,15
 94 -34 94 -34 122.5 73 c 128,-1,16
 151 180 151 180 122.5 287 c 128,-1,17
 94 394 94 394 14 474 c 0,0,1
EndSplineSet
EndChar

StartChar: asterisk
Encoding: 42 42 43
Width: 280
GlyphClass: 1
Flags: W
HStem: 160 40<-18.4048 0 280 298.405>
VStem: 120 40<21.5952 40 320 338.405>
LayerCount: 2
Fore
SplineSet
188 200 m 1,0,1
 188 200 188 200 253 265 c 0,2,3
 263 274 263 274 257.5 286.5 c 128,-1,4
 252 299 252 299 239 299 c 0,5,6
 231 299 231 299 225 293 c 2,7,-1
 160 228 l 1,8,-1
 160 320 l 2,9,10
 160 328 160 328 154 334 c 128,-1,11
 148 340 148 340 140 340 c 128,-1,12
 132 340 132 340 126 334 c 128,-1,13
 120 328 120 328 120 320 c 2,14,-1
 120 228 l 1,15,-1
 55 293 l 2,16,17
 46 303 46 303 33.5 297.5 c 128,-1,18
 21 292 21 292 21 279 c 0,19,20
 21 271 21 271 27 265 c 2,21,-1
 92 200 l 1,22,-1
 40 200 l 1,23,-1
 92 200 l 1,24,-1
 40 200 l 1,25,-1
 0 200 l 2,26,27
 -8 200 -8 200 -14 194 c 128,-1,28
 -20 188 -20 188 -20 180 c 128,-1,29
 -20 172 -20 172 -14 166 c 128,-1,30
 -8 160 -8 160 0 160 c 2,31,-1
 92 160 l 1,32,-1
 27 95 l 2,33,34
 17 86 17 86 22.5 73.5 c 128,-1,35
 28 61 28 61 41 61 c 0,36,37
 49 61 49 61 55 67 c 2,38,-1
 120 132 l 1,39,-1
 120 40 l 2,40,41
 120 32 120 32 126 26 c 128,-1,42
 132 20 132 20 140 20 c 128,-1,43
 148 20 148 20 154 26 c 128,-1,44
 160 32 160 32 160 40 c 2,45,-1
 160 132 l 1,46,-1
 225 67 l 2,47,48
 234 57 234 57 246.5 62.5 c 128,-1,49
 259 68 259 68 259 81 c 0,50,51
 259 89 259 89 253 95 c 2,52,-1
 188 160 l 1,53,-1
 280 160 l 2,54,55
 288 160 288 160 294 166 c 128,-1,56
 300 172 300 172 300 180 c 128,-1,57
 300 188 300 188 294 194 c 128,-1,58
 288 200 288 200 280 200 c 2,59,-1
 240 200 l 1,60,-1
 188 200 l 1,61,-1
 240 200 l 1,62,-1
 188 200 l 1,0,1
EndSplineSet
EndChar

StartChar: plus
Encoding: 43 43 44
Width: 280
GlyphClass: 1
Flags: W
HStem: 160 40<-18.4048 120 160 298.405>
VStem: 120 40<21.5952 160 200 338.405>
LayerCount: 2
Fore
SplineSet
140 340 m 128,-1,1
 148 340 148 340 154 334 c 128,-1,2
 160 328 160 328 160 320 c 2,3,-1
 160 200 l 1,4,-1
 280 200 l 2,5,6
 288 200 288 200 294 194 c 128,-1,7
 300 188 300 188 300 180 c 128,-1,8
 300 172 300 172 294 166 c 128,-1,9
 288 160 288 160 280 160 c 2,10,-1
 160 160 l 1,11,-1
 160 40 l 2,12,13
 160 32 160 32 154 26 c 128,-1,14
 148 20 148 20 140 20 c 128,-1,15
 132 20 132 20 126 26 c 128,-1,16
 120 32 120 32 120 40 c 2,17,-1
 120 160 l 1,18,-1
 0 160 l 2,19,20
 -8 160 -8 160 -14 166 c 128,-1,21
 -20 172 -20 172 -20 180 c 128,-1,22
 -20 188 -20 188 -14 194 c 128,-1,23
 -8 200 -8 200 0 200 c 2,24,-1
 120 200 l 1,25,-1
 120 320 l 2,26,27
 120 328 120 328 126 334 c 128,-1,0
 132 340 132 340 140 340 c 128,-1,1
EndSplineSet
EndChar

StartChar: comma
Encoding: 44 44 45
Width: 280
GlyphClass: 1
Flags: W
HStem: -40 120
LayerCount: 2
Fore
SplineSet
86 -6 m 2,0,1
 76 -15 76 -15 81.5 -27.5 c 128,-1,2
 87 -40 87 -40 100 -40 c 0,3,4
 108 -40 108 -40 114 -34 c 2,5,-1
 194 46 l 2,6,7
 204 55 204 55 198.5 67.5 c 128,-1,8
 193 80 193 80 180 80 c 0,9,10
 172 80 172 80 166 74 c 2,11,-1
 86 -6 l 2,0,1
EndSplineSet
EndChar

StartChar: hyphen
Encoding: 45 45 46
Width: 280
GlyphClass: 1
Flags: W
HStem: 160 40<-18.4048 0 280 298.405>
LayerCount: 2
Fore
SplineSet
0 200 m 2,0,1
 -8 200 -8 200 -14 194 c 128,-1,2
 -20 188 -20 188 -20 180 c 128,-1,3
 -20 172 -20 172 -14 166 c 128,-1,4
 -8 160 -8 160 0 160 c 2,5,-1
 280 160 l 2,6,7
 288 160 288 160 294 166 c 128,-1,8
 300 172 300 172 300 180 c 128,-1,9
 300 188 300 188 294 194 c 128,-1,10
 288 200 288 200 280 200 c 2,11,-1
 0 200 l 2,0,1
EndSplineSet
EndChar

StartChar: period
Encoding: 46 46 47
Width: 280
GlyphClass: 1
Flags: W
HStem: 0 80<121.595 158.405>
VStem: 120 40<1.59521 20 60 78.4048>
LayerCount: 2
Fore
SplineSet
160 60 m 2,0,1
 160 68 160 68 154 74 c 128,-1,2
 148 80 148 80 140 80 c 128,-1,3
 132 80 132 80 126 74 c 128,-1,4
 120 68 120 68 120 60 c 2,5,-1
 120 20 l 2,6,7
 120 12 120 12 126 6 c 128,-1,8
 132 0 132 0 140 0 c 128,-1,9
 148 0 148 0 154 6 c 128,-1,10
 160 12 160 12 160 20 c 2,11,-1
 160 60 l 2,0,1
EndSplineSet
EndChar

StartChar: slash
Encoding: 47 47 48
Width: 280
GlyphClass: 1
Flags: W
LayerCount: 2
Fore
SplineSet
298 451 m 2,0,1
 303 461 303 461 297 470.5 c 128,-1,2
 291 480 291 480 280 480 c 0,3,4
 268 480 268 480 262 469 c 2,5,-1
 -18 -91 l 2,6,7
 -23 -101 -23 -101 -17 -110.5 c 128,-1,8
 -11 -120 -11 -120 0 -120 c 0,9,10
 12 -120 12 -120 18 -109 c 2,11,-1
 298 451 l 2,0,1
EndSplineSet
EndChar

StartChar: zero
Encoding: 48 48 49
Width: 280
GlyphClass: 1
Flags: W
HStem: 0 40<103.665 176.087> 320 40<103.913 176.335>
VStem: 40 40<148 295.911> 200 40<64.0894 212>
LayerCount: 2
Fore
SplineSet
140 360 m 128,-1,1
 181 360 181 360 210.5 330.5 c 128,-1,2
 240 301 240 301 240 260 c 2,3,-1
 240 100 l 2,4,5
 240 59 240 59 210.5 29.5 c 128,-1,6
 181 0 181 0 140 0 c 128,-1,7
 99 0 99 0 69.5 29.5 c 128,-1,8
 40 59 40 59 40 100 c 2,9,-1
 40 260 l 2,10,11
 40 301 40 301 69.5 330.5 c 128,-1,0
 99 360 99 360 140 360 c 128,-1,1
140 320 m 0,12,13
 115 320 115 320 97.5 302.5 c 128,-1,14
 80 285 80 285 80 260 c 2,15,-1
 80 148 l 1,16,-1
 126 194 l 1,17,-1
 200 268 l 1,18,19
 197 290 197 290 180 305 c 128,-1,20
 163 320 163 320 140 320 c 0,12,13
200 212 m 1,21,-1
 154 166 l 1,22,-1
 80 92 l 1,23,24
 83 70 83 70 100 55 c 128,-1,25
 117 40 117 40 140 40 c 0,26,27
 165 40 165 40 182.5 57.5 c 128,-1,28
 200 75 200 75 200 100 c 2,29,-1
 200 212 l 1,21,-1
EndSplineSet
EndChar

StartChar: one
Encoding: 49 49 50
Width: 280
GlyphClass: 1
Flags: W
VStem: 160 40<1.59521 20>
LayerCount: 2
Fore
SplineSet
46 234 m 2,0,1
 36 225 36 225 41.5 212.5 c 128,-1,2
 47 200 47 200 60 200 c 0,3,4
 68 200 68 200 74 206 c 2,5,-1
 160 292 l 1,6,-1
 160 20 l 2,7,8
 160 12 160 12 166 6 c 128,-1,9
 172 0 172 0 180 0 c 128,-1,10
 188 0 188 0 194 6 c 128,-1,11
 200 12 200 12 200 20 c 2,12,-1
 200 340 l 2,13,14
 200 349 200 349 194 354 c 0,15,16
 188 360 188 360 180 360 c 128,-1,17
 172 360 172 360 166 354 c 2,18,-1
 46 234 l 2,0,1
EndSplineSet
EndChar

StartChar: two
Encoding: 50 50 51
Width: 280
GlyphClass: 1
Flags: W
HStem: 0 40<220 238.405> 320 40<103.913 176.087>
VStem: 40 40<241.595 295.911> 200 40<216.979 253 260 295.911>
LayerCount: 2
Fore
SplineSet
220 0 m 2,0,1
 228 0 228 0 234 6 c 128,-1,2
 240 12 240 12 240 20 c 128,-1,3
 240 28 240 28 234 34 c 128,-1,4
 228 40 228 40 220 40 c 2,5,-1
 80 40 l 1,6,-1
 80 52 l 1,7,-1
 211 182 l 2,8,9
 240 212 240 212 240 253 c 2,10,-1
 240 260 l 2,11,12
 240 301 240 301 210.5 330.5 c 128,-1,13
 181 360 181 360 140 360 c 128,-1,14
 99 360 99 360 69.5 330.5 c 128,-1,15
 40 301 40 301 40 260 c 0,16,17
 40 252 40 252 46 246 c 128,-1,18
 52 240 52 240 60 240 c 128,-1,19
 68 240 68 240 74 246 c 128,-1,20
 80 252 80 252 80 260 c 0,21,22
 80 285 80 285 97.5 302.5 c 128,-1,23
 115 320 115 320 140 320 c 128,-1,24
 165 320 165 320 182.5 302.5 c 128,-1,25
 200 285 200 285 200 260 c 2,26,-1
 200 253 l 2,27,28
 200 228 200 228 183 211 c 1,29,30
 183 211 183 211 182 211 c 2,31,-1
 46 74 l 2,32,33
 40 68 40 68 40 60 c 2,34,-1
 40 20 l 2,35,36
 40 12 40 12 46 6 c 128,-1,37
 52 0 52 0 60 0 c 2,38,-1
 220 0 l 2,0,1
EndSplineSet
EndChar

StartChar: three
Encoding: 51 51 52
Width: 280
GlyphClass: 1
Flags: W
HStem: 0 40<103.913 176.087> 160 40<121.595 176.263> 320 40<103.913 176.087>
VStem: 40 40<64.0894 118.405 241.595 295.911> 200 40<63.9133 136.137 223.863 296.087>
CounterMasks: 1 e0
LayerCount: 2
Fore
SplineSet
80 100 m 0,0,1
 80 108 80 108 74 114 c 128,-1,2
 68 120 68 120 60 120 c 128,-1,3
 52 120 52 120 46 114 c 128,-1,4
 40 108 40 108 40 100 c 0,5,6
 40 59 40 59 69.5 29.5 c 128,-1,7
 99 0 99 0 140 0 c 128,-1,8
 181 0 181 0 210.5 29.5 c 128,-1,9
 240 59 240 59 240 100 c 0,10,11
 240 150 240 150 200 180 c 1,12,13
 240 210 240 210 240 260 c 0,14,15
 240 301 240 301 210.5 330.5 c 128,-1,16
 181 360 181 360 140 360 c 128,-1,17
 99 360 99 360 69.5 330.5 c 128,-1,18
 40 301 40 301 40 260 c 0,19,20
 40 252 40 252 46 246 c 128,-1,21
 52 240 52 240 60 240 c 128,-1,22
 68 240 68 240 74 246 c 128,-1,23
 80 252 80 252 80 260 c 0,24,25
 80 285 80 285 97.5 302.5 c 128,-1,26
 115 320 115 320 140 320 c 128,-1,27
 165 320 165 320 182.5 302.5 c 128,-1,28
 200 285 200 285 200 260 c 128,-1,29
 200 235 200 235 182.5 217.5 c 128,-1,30
 165 200 165 200 140 200 c 0,31,32
 132 200 132 200 126 194 c 128,-1,33
 120 188 120 188 120 180 c 128,-1,34
 120 172 120 172 126 166 c 128,-1,35
 132 160 132 160 140 160 c 0,36,37
 165 160 165 160 182.5 142.5 c 128,-1,38
 200 125 200 125 200 100 c 128,-1,39
 200 75 200 75 182.5 57.5 c 128,-1,40
 165 40 165 40 140 40 c 128,-1,41
 115 40 115 40 97.5 57.5 c 128,-1,42
 80 75 80 75 80 100 c 0,0,1
EndSplineSet
EndChar

StartChar: four
Encoding: 52 52 53
Width: 280
GlyphClass: 1
Flags: W
VStem: 200 40<1.59521 20 220 238.405>
LayerCount: 2
Fore
SplineSet
240 220 m 2,0,1
 240 228 240 228 234 234 c 128,-1,2
 228 240 228 240 220 240 c 128,-1,3
 212 240 212 240 206 234 c 128,-1,4
 200 228 200 228 200 220 c 2,5,-1
 200 160 l 1,6,-1
 90 160 l 1,7,-1
 159 333 l 2,8,9
 162 342 162 342 156.5 351 c 128,-1,10
 151 360 151 360 140 360 c 0,11,12
 126 360 126 360 121 347 c 2,13,-1
 41 147 l 2,14,15
 38 138 38 138 43.5 129 c 128,-1,16
 49 120 49 120 60 120 c 2,17,-1
 200 120 l 1,18,-1
 200 20 l 2,19,20
 200 12 200 12 206 6 c 128,-1,21
 212 0 212 0 220 0 c 128,-1,22
 228 0 228 0 234 6 c 128,-1,23
 240 12 240 12 240 20 c 2,24,-1
 240 140 l 1,25,-1
 240 220 l 2,0,1
EndSplineSet
EndChar

StartChar: five
Encoding: 53 53 54
Width: 280
GlyphClass: 1
Flags: W
HStem: 0 40<103.913 176.087> 160 40<80 175.911> 320 40<80 238.405>
VStem: 40 40<64.0894 118.405 200 320> 200 40<63.9133 136.087>
CounterMasks: 1 e0
LayerCount: 2
Fore
SplineSet
60 360 m 2,0,-1
 220 360 l 2,1,2
 228 360 228 360 234 354 c 128,-1,3
 240 348 240 348 240 340 c 128,-1,4
 240 332 240 332 234 326 c 128,-1,5
 228 320 228 320 220 320 c 2,6,-1
 80 320 l 1,7,-1
 80 200 l 1,8,-1
 140 200 l 2,9,10
 181 200 181 200 210.5 170.5 c 128,-1,11
 240 141 240 141 240 100 c 128,-1,12
 240 59 240 59 210.5 29.5 c 128,-1,13
 181 0 181 0 140 0 c 128,-1,14
 99 0 99 0 69.5 29.5 c 128,-1,15
 40 59 40 59 40 100 c 0,16,17
 40 108 40 108 46 114 c 128,-1,18
 52 120 52 120 60 120 c 128,-1,19
 68 120 68 120 74 114 c 128,-1,20
 80 108 80 108 80 100 c 0,21,22
 80 75 80 75 97.5 57.5 c 128,-1,23
 115 40 115 40 140 40 c 128,-1,24
 165 40 165 40 182.5 57.5 c 128,-1,25
 200 75 200 75 200 100 c 128,-1,26
 200 125 200 125 182.5 142.5 c 128,-1,27
 165 160 165 160 140 160 c 2,28,-1
 60 160 l 2,29,30
 52 160 52 160 46 166 c 128,-1,31
 40 172 40 172 40 180 c 2,32,-1
 40 340 l 2,33,34
 40 348 40 348 46 354 c 128,-1,35
 52 360 52 360 60 360 c 2,0,-1
EndSplineSet
EndChar

StartChar: six
Encoding: 54 54 55
Width: 280
GlyphClass: 1
Flags: W
HStem: 0 40<103.913 176.087> 160 40<103.793 176.087> 320 40<104.126 174.898>
VStem: 40 40<64.0894 136.263 260 295.801> 200 40<63.9133 136.087>
CounterMasks: 1 e0
LayerCount: 2
Fore
SplineSet
80 180 m 1,0,-1
 80 260 l 2,1,2
 80 285 80 285 97 302 c 1,3,4
 97 302 97 302 98 302 c 0,5,6
 100 305 100 305 103 307 c 0,7,8
 108 311 108 311 114 314 c 0,9,10
 126 320 126 320 138 320 c 0,11,12
 139 320 139 320 140 320 c 0,13,14
 165 320 165 320 182 302 c 0,15,16
 192 293 192 293 204.5 298 c 128,-1,17
 217 303 217 303 217 317 c 0,18,19
 217 325 217 325 211 331 c 0,20,21
 181 360 181 360 140 360 c 0,22,23
 121 360 121 360 103 353 c 0,24,25
 84 345 84 345 69 331 c 1,26,27
 69 331 69 331 69 330 c 0,28,29
 40 301 40 301 40 260 c 1,30,-1
 40 100 l 2,31,32
 40 59 40 59 69.5 29.5 c 128,-1,33
 99 0 99 0 140 0 c 128,-1,34
 181 0 181 0 210.5 29.5 c 128,-1,35
 240 59 240 59 240 100 c 128,-1,36
 240 141 240 141 210.5 170.5 c 128,-1,37
 181 200 181 200 140 200 c 0,38,39
 107 200 107 200 80 180 c 1,0,-1
140 160 m 128,-1,41
 165 160 165 160 182.5 142.5 c 128,-1,42
 200 125 200 125 200 100 c 128,-1,43
 200 75 200 75 182.5 57.5 c 128,-1,44
 165 40 165 40 140 40 c 128,-1,45
 115 40 115 40 97.5 57.5 c 128,-1,46
 80 75 80 75 80 100 c 256,47,48
 80 125 80 125 97.5 142.5 c 128,-1,40
 115 160 115 160 140 160 c 128,-1,41
EndSplineSet
EndChar

StartChar: seven
Encoding: 55 55 56
Width: 280
GlyphClass: 1
Flags: W
HStem: 0 21G<57.5 66> 320 40<41.5952 188>
LayerCount: 2
Fore
SplineSet
60 360 m 0,0,1
 220 360 220 360 220 360 c 2,2,3
 228 360 228 360 234 354 c 128,-1,4
 240 348 240 348 240 340 c 0,5,6
 240 335 240 335 238 331 c 2,7,-1
 78 11 l 2,8,9
 72 0 72 0 60 0 c 0,10,11
 55 0 55 0 51 2 c 0,12,13
 40 8 40 8 40 20 c 0,14,15
 40 25 40 25 42 29 c 2,16,-1
 188 320 l 1,17,-1
 60 320 l 2,18,19
 52 320 52 320 46 326 c 128,-1,20
 40 332 40 332 40 340 c 128,-1,21
 40 348 40 348 46 354 c 128,-1,22
 52 360 52 360 60 360 c 0,0,1
EndSplineSet
EndChar

StartChar: eight
Encoding: 56 56 57
Width: 280
GlyphClass: 1
Flags: W
HStem: 0 40<103.913 176.087> 160 40<103.737 176.263> 320 40<103.913 176.087>
VStem: 40 40<63.9133 136.137 223.863 296.087> 200 40<63.9133 136.137 223.863 296.087>
CounterMasks: 1 e0
LayerCount: 2
Fore
SplineSet
140 360 m 128,-1,1
 181 360 181 360 210.5 330.5 c 128,-1,2
 240 301 240 301 240 260 c 0,3,4
 240 210 240 210 200 180 c 1,5,6
 240 150 240 150 240 100 c 0,7,8
 240 59 240 59 210.5 29.5 c 128,-1,9
 181 0 181 0 140 0 c 128,-1,10
 99 0 99 0 69.5 29.5 c 128,-1,11
 40 59 40 59 40 100 c 0,12,13
 40 150 40 150 80 180 c 1,14,15
 40 210 40 210 40 260 c 1,16,17
 40 301 40 301 69.5 330.5 c 128,-1,0
 99 360 99 360 140 360 c 128,-1,1
140 320 m 128,-1,19
 115 320 115 320 97.5 302.5 c 128,-1,20
 80 285 80 285 80 260 c 128,-1,21
 80 235 80 235 97.5 217.5 c 128,-1,22
 115 200 115 200 140 200 c 128,-1,23
 165 200 165 200 182.5 217.5 c 128,-1,24
 200 235 200 235 200 260 c 128,-1,25
 200 285 200 285 182.5 302.5 c 128,-1,18
 165 320 165 320 140 320 c 128,-1,19
140 160 m 128,-1,27
 115 160 115 160 97.5 142.5 c 128,-1,28
 80 125 80 125 80 100 c 128,-1,29
 80 75 80 75 97.5 57.5 c 128,-1,30
 115 40 115 40 140 40 c 128,-1,31
 165 40 165 40 182.5 57.5 c 128,-1,32
 200 75 200 75 200 100 c 128,-1,33
 200 125 200 125 182.5 142.5 c 128,-1,26
 165 160 165 160 140 160 c 128,-1,27
EndSplineSet
EndChar

StartChar: nine
Encoding: 57 57 58
Width: 280
GlyphClass: 1
Flags: W
HStem: 160 40<103.913 176.207> 320 40<103.913 176.087>
VStem: 40 40<223.913 296.087> 200 40<64.1992 100 223.737 295.911>
LayerCount: 2
Fore
SplineSet
240 260 m 2,0,1
 240 301 240 301 210.5 330.5 c 128,-1,2
 181 360 181 360 140 360 c 128,-1,3
 99 360 99 360 69.5 330.5 c 128,-1,4
 40 301 40 301 40 260 c 128,-1,5
 40 219 40 219 69.5 189.5 c 128,-1,6
 99 160 99 160 140 160 c 0,7,8
 173 160 173 160 200 180 c 1,9,-1
 200 100 l 2,10,11
 200 75 200 75 183 58 c 1,12,13
 183 58 183 58 182 58 c 0,14,15
 180 56 180 56 178 54 c 0,16,17
 171 48 171 48 162 44 c 0,18,19
 155 41 155 41 147 40 c 0,20,21
 143 40 143 40 140 40 c 0,22,23
 115 40 115 40 98 58 c 0,24,25
 88 67 88 67 75.5 62 c 128,-1,26
 63 57 63 57 63 43 c 0,27,28
 63 35 63 35 69 29 c 0,29,30
 102 -3 102 -3 148 0 c 0,31,32
 161 1 161 1 174 6 c 0,33,34
 195 13 195 13 211 29 c 1,35,36
 211 29 211 29 211 30 c 0,37,38
 240 59 240 59 240 100 c 1,39,-1
 240 260 l 2,0,1
200 260 m 128,-1,41
 200 235 200 235 182.5 217.5 c 128,-1,42
 165 200 165 200 140 200 c 128,-1,43
 115 200 115 200 97.5 217.5 c 128,-1,44
 80 235 80 235 80 260 c 128,-1,45
 80 285 80 285 97.5 302.5 c 128,-1,46
 115 320 115 320 140 320 c 128,-1,47
 165 320 165 320 182.5 302.5 c 128,-1,40
 200 285 200 285 200 260 c 128,-1,41
EndSplineSet
EndChar

StartChar: colon
Encoding: 58 58 59
Width: 280
GlyphClass: 1
Flags: W
HStem: 0 80<121.595 158.405> 280 80<121.595 158.405>
VStem: 120 40<1.59521 20 60 78.4048 281.595 300 340 358.405>
LayerCount: 2
Fore
SplineSet
160 60 m 2,0,1
 160 68 160 68 154 74 c 128,-1,2
 148 80 148 80 140 80 c 128,-1,3
 132 80 132 80 126 74 c 128,-1,4
 120 68 120 68 120 60 c 2,5,-1
 120 20 l 2,6,7
 120 12 120 12 126 6 c 128,-1,8
 132 0 132 0 140 0 c 128,-1,9
 148 0 148 0 154 6 c 128,-1,10
 160 12 160 12 160 20 c 2,11,-1
 160 60 l 2,0,1
160 340 m 2,12,13
 160 348 160 348 154 354 c 128,-1,14
 148 360 148 360 140 360 c 128,-1,15
 132 360 132 360 126 354 c 128,-1,16
 120 348 120 348 120 340 c 2,17,-1
 120 300 l 2,18,19
 120 292 120 292 126 286 c 128,-1,20
 132 280 132 280 140 280 c 128,-1,21
 148 280 148 280 154 286 c 128,-1,22
 160 292 160 292 160 300 c 2,23,-1
 160 340 l 2,12,13
EndSplineSet
EndChar

StartChar: semicolon
Encoding: 59 59 60
Width: 280
GlyphClass: 1
Flags: W
HStem: 280 80<121.595 158.405>
VStem: 120 40<281.595 300 340 358.405>
LayerCount: 2
Fore
SplineSet
160 340 m 2,0,1
 160 348 160 348 154 354 c 128,-1,2
 148 360 148 360 140 360 c 128,-1,3
 132 360 132 360 126 354 c 128,-1,4
 120 348 120 348 120 340 c 2,5,-1
 120 300 l 2,6,7
 120 292 120 292 126 286 c 128,-1,8
 132 280 132 280 140 280 c 128,-1,9
 148 280 148 280 154 286 c 128,-1,10
 160 292 160 292 160 300 c 2,11,-1
 160 340 l 2,0,1
86 -6 m 2,12,13
 76 -15 76 -15 81.5 -27.5 c 128,-1,14
 87 -40 87 -40 100 -40 c 0,15,16
 108 -40 108 -40 114 -34 c 2,17,-1
 194 46 l 2,18,19
 204 55 204 55 198.5 67.5 c 128,-1,20
 193 80 193 80 180 80 c 0,21,22
 172 80 172 80 166 74 c 2,23,-1
 86 -6 l 2,12,13
EndSplineSet
EndChar

StartChar: less
Encoding: 60 60 61
Width: 280
GlyphClass: 1
Flags: W
LayerCount: 2
Fore
SplineSet
290 323 m 2,0,1
 303 330 303 330 299 345 c 128,-1,2
 295 360 295 360 280 360 c 0,3,4
 275 360 275 360 270 357 c 2,5,-1
 -10 197 l 2,6,7
 -20 192 -20 192 -20 180 c 128,-1,8
 -20 168 -20 168 -10 163 c 2,9,-1
 270 3 l 2,10,11
 280 -3 280 -3 290 3 c 128,-1,12
 300 9 300 9 300 20.5 c 128,-1,13
 300 32 300 32 290 37 c 2,14,-1
 40 180 l 1,15,-1
 290 323 l 2,0,1
EndSplineSet
EndChar

StartChar: equal
Encoding: 61 61 62
Width: 280
GlyphClass: 1
Flags: W
HStem: 0 40<-18.4048 0 280 298.405> 320 40<-18.4048 0 280 298.405>
LayerCount: 2
Fore
SplineSet
0 360 m 2,0,1
 -8 360 -8 360 -14 354 c 128,-1,2
 -20 348 -20 348 -20 340 c 128,-1,3
 -20 332 -20 332 -14 326 c 128,-1,4
 -8 320 -8 320 0 320 c 2,5,-1
 280 320 l 2,6,7
 288 320 288 320 294 326 c 128,-1,8
 300 332 300 332 300 340 c 128,-1,9
 300 348 300 348 294 354 c 128,-1,10
 288 360 288 360 280 360 c 2,11,-1
 0 360 l 2,0,1
0 40 m 2,12,13
 -8 40 -8 40 -14 34 c 128,-1,14
 -20 28 -20 28 -20 20 c 128,-1,15
 -20 12 -20 12 -14 6 c 128,-1,16
 -8 0 -8 0 0 0 c 2,17,-1
 280 0 l 2,18,19
 288 0 288 0 294 6 c 128,-1,20
 300 12 300 12 300 20 c 128,-1,21
 300 28 300 28 294 34 c 128,-1,22
 288 40 288 40 280 40 c 2,23,-1
 0 40 l 2,12,13
EndSplineSet
EndChar

StartChar: greater
Encoding: 62 62 63
Width: 280
GlyphClass: 1
Flags: W
LayerCount: 2
Fore
SplineSet
10 357 m 2,0,1
 0 363 0 363 -10 357 c 128,-1,2
 -20 351 -20 351 -20 339.5 c 128,-1,3
 -20 328 -20 328 -10 323 c 2,4,-1
 240 180 l 1,5,-1
 -10 37 l 2,6,7
 -23 30 -23 30 -19 15 c 128,-1,8
 -15 0 -15 0 0 0 c 0,9,10
 5 0 5 0 10 3 c 2,11,-1
 290 163 l 2,12,13
 300 168 300 168 300 180 c 128,-1,14
 300 192 300 192 290 197 c 2,15,-1
 10 357 l 2,0,1
EndSplineSet
EndChar

StartChar: question
Encoding: 63 63 64
Width: 280
GlyphClass: 1
Flags: W
HStem: 0 80<121.595 158.405> 320 40<103.913 176.087>
VStem: 40 40<241.595 295.911> 120 40<1.59521 20 60 78.4048> 200 40<218.102 253 260 295.911>
CounterMasks: 1 38
LayerCount: 2
Fore
SplineSet
120 20 m 2,0,1
 120 12 120 12 126 6 c 128,-1,2
 132 0 132 0 140 0 c 128,-1,3
 148 0 148 0 154 6 c 128,-1,4
 160 12 160 12 160 20 c 2,5,-1
 160 60 l 2,6,7
 160 68 160 68 154 74 c 128,-1,8
 148 80 148 80 140 80 c 128,-1,9
 132 80 132 80 126 74 c 128,-1,10
 120 68 120 68 120 60 c 2,11,-1
 120 20 l 2,0,1
126 154 m 2,12,13
 116 145 116 145 121.5 132.5 c 128,-1,14
 127 120 127 120 140 120 c 0,15,16
 148 120 148 120 154 126 c 0,17,18
 182 154 182 154 211 182 c 1,19,20
 240 212 240 212 240 253 c 2,21,-1
 240 260 l 2,22,23
 240 301 240 301 210.5 330.5 c 128,-1,24
 181 360 181 360 140 360 c 128,-1,25
 99 360 99 360 69.5 330.5 c 128,-1,26
 40 301 40 301 40 260 c 0,27,28
 40 252 40 252 46 246 c 128,-1,29
 52 240 52 240 60 240 c 128,-1,30
 68 240 68 240 74 246 c 128,-1,31
 80 252 80 252 80 260 c 0,32,33
 80 285 80 285 97.5 302.5 c 128,-1,34
 115 320 115 320 140 320 c 128,-1,35
 165 320 165 320 182.5 302.5 c 128,-1,36
 200 285 200 285 200 260 c 2,37,-1
 200 253 l 2,38,39
 200 228 200 228 182 211 c 1,40,-1
 126 154 l 2,12,13
EndSplineSet
EndChar

StartChar: at
Encoding: 64 64 65
Width: 280
GlyphClass: 1
Flags: W
HStem: 5 39<85.3184 189.385> 80 40<143.913 216.087> 240 40<143.913 216.147> 320 40<92.3461 188.021>
VStem: 0 40<92.4414 140 220 267.496> 80 40<143.913 216.087> 240 40<144.089 216.263>
LayerCount: 2
Fore
SplineSet
115 43 m 0,0,1
 95 48 95 48 79 60.5 c 128,-1,2
 63 73 63 73 53 91 c 0,3,4
 47 102 47 102 43 114 c 0,5,6
 43 115 43 115 43 115 c 2,7,8
 40 127 40 127 40 140 c 2,9,-1
 40 220 l 2,10,11
 40 261 40 261 69.5 290.5 c 128,-1,12
 99 320 99 320 140 320 c 0,13,14
 168 320 168 320 191.5 306 c 128,-1,15
 215 292 215 292 228 268 c 1,16,17
 206 280 206 280 180 280 c 0,18,19
 139 280 139 280 109.5 250.5 c 128,-1,20
 80 221 80 221 80 180 c 128,-1,21
 80 139 80 139 109.5 109.5 c 128,-1,22
 139 80 139 80 180 80 c 128,-1,23
 221 80 221 80 250.5 109.5 c 128,-1,24
 280 139 280 139 280 180 c 1,25,-1
 280 220 l 2,26,27
 280 278 280 278 239 319 c 128,-1,28
 198 360 198 360 140 360 c 128,-1,29
 82 360 82 360 41 319 c 128,-1,30
 0 278 0 278 0 220 c 2,31,-1
 0 140 l 2,32,33
 0 108 0 108 14 80 c 0,34,35
 28 49 28 49 56 28 c 0,36,37
 82 9 82 9 114 2 c 0,38,39
 145 -4 145 -4 176 5 c 0,40,41
 191 9 191 9 191 24 c 0,42,43
 191 32 191 32 185 38 c 128,-1,44
 179 44 179 44 171 44 c 0,45,46
 169 44 169 44 160 42 c 128,-1,47
 151 40 151 40 141 40 c 2,48,49
 141 40 141 40 140 40 c 0,50,51
 127 40 127 40 115 43 c 0,0,1
240 180 m 128,-1,53
 240 155 240 155 222.5 137.5 c 128,-1,54
 205 120 205 120 180 120 c 128,-1,55
 155 120 155 120 137.5 137.5 c 128,-1,56
 120 155 120 155 120 180 c 128,-1,57
 120 205 120 205 137.5 222.5 c 128,-1,58
 155 240 155 240 180 240 c 128,-1,59
 205 240 205 240 222.5 222.5 c 128,-1,52
 240 205 240 205 240 180 c 128,-1,53
EndSplineSet
EndChar

StartChar: A
Encoding: 65 65 66
Width: 280
GlyphClass: 1
Flags: W
HStem: 0 21G<56 64 216 224> 160 40<80 200> 320 40<103.913 176.087>
VStem: 40 40<1.59521 160 200 295.911> 200 40<1.59521 160 200 295.911>
LayerCount: 2
Fore
SplineSet
140 360 m 128,-1,1
 181 360 181 360 210.5 330.5 c 128,-1,2
 240 301 240 301 240 260 c 2,3,-1
 240 180 l 1,4,-1
 240 20 l 2,5,6
 240 12 240 12 234 6 c 128,-1,7
 228 0 228 0 220 0 c 128,-1,8
 212 0 212 0 206 6 c 128,-1,9
 200 12 200 12 200 20 c 2,10,-1
 200 160 l 1,11,-1
 80 160 l 1,12,-1
 80 20 l 2,13,14
 80 12 80 12 74 6 c 128,-1,15
 68 0 68 0 60 0 c 128,-1,16
 52 0 52 0 46 6 c 128,-1,17
 40 12 40 12 40 20 c 2,18,-1
 40 180 l 1,19,-1
 40 260 l 2,20,21
 40 301 40 301 69.5 330.5 c 128,-1,0
 99 360 99 360 140 360 c 128,-1,1
140 320 m 128,-1,23
 115 320 115 320 97.5 302.5 c 128,-1,24
 80 285 80 285 80 260 c 2,25,-1
 80 200 l 1,26,-1
 200 200 l 1,27,-1
 200 260 l 2,28,29
 200 285 200 285 182.5 302.5 c 128,-1,22
 165 320 165 320 140 320 c 128,-1,23
EndSplineSet
EndChar

StartChar: B
Encoding: 66 66 67
Width: 280
GlyphClass: 1
Flags: W
HStem: 0 40<80 175.911> 160 40<80 176.263> 320 40<80 175.911>
VStem: 40 40<40 160 200 320> 200 40<63.9133 136.137 223.863 296.087>
CounterMasks: 1 e0
LayerCount: 2
Fore
SplineSet
140 360 m 2,0,1
 181 360 181 360 210.5 330.5 c 128,-1,2
 240 301 240 301 240 260 c 0,3,4
 240 210 240 210 200 180 c 1,5,6
 240 150 240 150 240 100 c 0,7,8
 240 59 240 59 210.5 29.5 c 128,-1,9
 181 0 181 0 140 0 c 2,10,-1
 60 0 l 2,11,12
 52 0 52 0 46 6 c 128,-1,13
 40 12 40 12 40 20 c 0,14,15
 40 340 40 340 40 340 c 2,16,17
 40 348 40 348 46 354 c 128,-1,18
 52 360 52 360 60 360 c 2,19,-1
 140 360 l 2,0,1
80 320 m 1,20,-1
 80 200 l 1,21,-1
 140 200 l 2,22,23
 165 200 165 200 182.5 217.5 c 128,-1,24
 200 235 200 235 200 260 c 128,-1,25
 200 285 200 285 182.5 302.5 c 128,-1,26
 165 320 165 320 140 320 c 2,27,-1
 80 320 l 1,20,-1
80 160 m 1,28,-1
 80 40 l 1,29,-1
 140 40 l 2,30,31
 165 40 165 40 182.5 57.5 c 128,-1,32
 200 75 200 75 200 100 c 128,-1,33
 200 125 200 125 182.5 142.5 c 128,-1,34
 165 160 165 160 140 160 c 2,35,-1
 80 160 l 1,28,-1
EndSplineSet
EndChar

StartChar: C
Encoding: 67 67 68
Width: 280
GlyphClass: 1
Flags: W
HStem: 0 40<103.913 176.087> 320 40<103.913 176.087>
VStem: 40 40<64.0894 295.911> 200 40<64.0894 118.405 241.595 295.911>
LayerCount: 2
Fore
SplineSet
140 360 m 128,-1,1
 181 360 181 360 210.5 330.5 c 128,-1,2
 240 301 240 301 240 260 c 0,3,4
 240 252 240 252 234 246 c 128,-1,5
 228 240 228 240 220 240 c 128,-1,6
 212 240 212 240 206 246 c 128,-1,7
 200 252 200 252 200 260 c 0,8,9
 200 285 200 285 182.5 302.5 c 128,-1,10
 165 320 165 320 140 320 c 128,-1,11
 115 320 115 320 97.5 302.5 c 128,-1,12
 80 285 80 285 80 260 c 2,13,-1
 80 100 l 2,14,15
 80 75 80 75 97.5 57.5 c 128,-1,16
 115 40 115 40 140 40 c 128,-1,17
 165 40 165 40 182.5 57.5 c 128,-1,18
 200 75 200 75 200 100 c 0,19,20
 200 108 200 108 206 114 c 128,-1,21
 212 120 212 120 220 120 c 128,-1,22
 228 120 228 120 234 114 c 128,-1,23
 240 108 240 108 240 100 c 0,24,25
 240 59 240 59 210.5 29.5 c 128,-1,26
 181 0 181 0 140 0 c 128,-1,27
 99 0 99 0 69.5 29.5 c 128,-1,28
 40 59 40 59 40 100 c 2,29,-1
 40 260 l 2,30,31
 40 301 40 301 69.5 330.5 c 128,-1,0
 99 360 99 360 140 360 c 128,-1,1
EndSplineSet
EndChar

StartChar: D
Encoding: 68 68 69
Width: 280
GlyphClass: 1
Flags: W
HStem: 0 40<80 175.911> 320 40<80 175.911>
VStem: 40 40<40 320> 200 40<64.0894 295.911>
LayerCount: 2
Fore
SplineSet
60 360 m 2,0,1
 60 360 60 360 140 360 c 0,2,3
 181 360 181 360 210.5 330.5 c 128,-1,4
 240 301 240 301 240 260 c 2,5,-1
 240 100 l 2,6,7
 240 59 240 59 210.5 29.5 c 128,-1,8
 181 0 181 0 140 0 c 2,9,-1
 60 0 l 1,10,11
 52 0 52 0 46 6 c 128,-1,12
 40 12 40 12 40 20 c 2,13,-1
 40 340 l 2,14,15
 40 348 40 348 46 354 c 128,-1,16
 52 360 52 360 60 360 c 2,0,1
80 320 m 1,17,-1
 80 40 l 1,18,-1
 140 40 l 2,19,20
 165 40 165 40 182.5 57.5 c 128,-1,21
 200 75 200 75 200 100 c 2,22,-1
 200 260 l 2,23,24
 200 285 200 285 182.5 302.5 c 128,-1,25
 165 320 165 320 140 320 c 2,26,-1
 80 320 l 1,17,-1
EndSplineSet
EndChar

StartChar: E
Encoding: 69 69 70
Width: 280
GlyphClass: 1
Flags: W
HStem: 0 40<220 238.405> 160 40<180 198.405> 320 40<220 238.405>
CounterMasks: 1 e0
LayerCount: 2
Fore
SplineSet
220 0 m 2,0,1
 228 0 228 0 234 6 c 128,-1,2
 240 12 240 12 240 20 c 128,-1,3
 240 28 240 28 234 34 c 128,-1,4
 228 40 228 40 220 40 c 2,5,-1
 80 40 l 1,6,-1
 80 160 l 1,7,-1
 180 160 l 2,8,9
 188 160 188 160 194 166 c 128,-1,10
 200 172 200 172 200 180 c 128,-1,11
 200 188 200 188 194 194 c 128,-1,12
 188 200 188 200 180 200 c 2,13,-1
 80 200 l 1,14,-1
 80 320 l 1,15,-1
 220 320 l 2,16,17
 228 320 228 320 234 326 c 128,-1,18
 240 332 240 332 240 340 c 128,-1,19
 240 348 240 348 234 354 c 128,-1,20
 228 360 228 360 220 360 c 2,21,-1
 60 360 l 2,22,23
 52 360 52 360 46 354 c 128,-1,24
 40 348 40 348 40 340 c 2,25,-1
 40 20 l 2,26,27
 40 12 40 12 46 6 c 128,-1,28
 52 0 52 0 60 0 c 2,29,-1
 220 0 l 2,0,1
EndSplineSet
EndChar

StartChar: F
Encoding: 70 70 71
Width: 280
GlyphClass: 1
Flags: W
HStem: 160 40<180 198.405> 320 40<220 238.405>
VStem: 40 40<1.59521 20>
LayerCount: 2
Fore
SplineSet
220 320 m 2,0,1
 228 320 228 320 234 326 c 128,-1,2
 240 332 240 332 240 340 c 128,-1,3
 240 348 240 348 234 354 c 128,-1,4
 228 360 228 360 220 360 c 2,5,-1
 60 360 l 2,6,7
 52 360 52 360 46 354 c 128,-1,8
 40 348 40 348 40 340 c 2,9,-1
 40 180 l 1,10,-1
 40 20 l 2,11,12
 40 12 40 12 46 6 c 128,-1,13
 52 0 52 0 60 0 c 128,-1,14
 68 0 68 0 74 6 c 128,-1,15
 80 12 80 12 80 20 c 2,16,-1
 80 160 l 1,17,-1
 180 160 l 2,18,19
 188 160 188 160 194 166 c 128,-1,20
 200 172 200 172 200 180 c 128,-1,21
 200 188 200 188 194 194 c 128,-1,22
 188 200 188 200 180 200 c 2,23,-1
 80 200 l 1,24,-1
 80 320 l 1,25,-1
 220 320 l 2,0,1
EndSplineSet
EndChar

StartChar: G
Encoding: 71 71 72
Width: 280
GlyphClass: 1
Flags: W
HStem: 0 40<103.913 176.087> 160 40<121.595 200> 320 40<103.913 176.087>
VStem: 40 40<64.0894 295.911> 200 40<64.0894 160 241.595 295.911>
CounterMasks: 1 e0
LayerCount: 2
Fore
SplineSet
140 360 m 128,-1,1
 181 360 181 360 210.5 330.5 c 128,-1,2
 240 301 240 301 240 260 c 0,3,4
 240 252 240 252 234 246 c 128,-1,5
 228 240 228 240 220 240 c 128,-1,6
 212 240 212 240 206 246 c 128,-1,7
 200 252 200 252 200 260 c 0,8,9
 200 285 200 285 182.5 302.5 c 128,-1,10
 165 320 165 320 140 320 c 128,-1,11
 115 320 115 320 97.5 302.5 c 128,-1,12
 80 285 80 285 80 260 c 2,13,-1
 80 100 l 2,14,15
 80 75 80 75 97.5 57.5 c 128,-1,16
 115 40 115 40 140 40 c 128,-1,17
 165 40 165 40 182.5 57.5 c 128,-1,18
 200 75 200 75 200 100 c 2,19,-1
 200 160 l 1,20,-1
 140 160 l 2,21,22
 132 160 132 160 126 166 c 128,-1,23
 120 172 120 172 120 180 c 128,-1,24
 120 188 120 188 126 194 c 128,-1,25
 132 200 132 200 140 200 c 2,26,-1
 220 200 l 2,27,28
 228 200 228 200 234 194 c 128,-1,29
 240 188 240 188 240 180 c 2,30,-1
 240 100 l 2,31,32
 240 59 240 59 210.5 29.5 c 128,-1,33
 181 0 181 0 140 0 c 128,-1,34
 99 0 99 0 69.5 29.5 c 128,-1,35
 40 59 40 59 40 100 c 2,36,-1
 40 260 l 2,37,38
 40 301 40 301 69.5 330.5 c 128,-1,0
 99 360 99 360 140 360 c 128,-1,1
EndSplineSet
EndChar

StartChar: H
Encoding: 72 72 73
Width: 280
GlyphClass: 1
Flags: W
HStem: 0 21G<56 64 216 224> 160 40<80 200> 340 20G<56 64 216 224>
VStem: 40 40<1.59521 160 200 358.405> 200 40<1.59521 160 200 358.405>
LayerCount: 2
Fore
SplineSet
60 360 m 128,-1,1
 68 360 68 360 74 354 c 128,-1,2
 80 348 80 348 80 340 c 2,3,-1
 80 200 l 1,4,-1
 200 200 l 1,5,-1
 200 340 l 2,6,7
 200 348 200 348 206 354 c 128,-1,8
 212 360 212 360 220 360 c 128,-1,9
 228 360 228 360 234 354 c 128,-1,10
 240 348 240 348 240 340 c 2,11,-1
 240 180 l 2,12,13
 240 20 240 20 240 20 c 2,14,15
 240 12 240 12 234 6 c 128,-1,16
 228 0 228 0 220 0 c 128,-1,17
 212 0 212 0 206 6 c 128,-1,18
 200 12 200 12 200 20 c 2,19,-1
 200 160 l 1,20,-1
 80 160 l 1,21,-1
 80 20 l 2,22,23
 80 12 80 12 74 6 c 128,-1,24
 68 0 68 0 60 0 c 128,-1,25
 52 0 52 0 46 6 c 128,-1,26
 40 12 40 12 40 20 c 2,27,-1
 40 180 l 1,28,-1
 40 340 l 2,29,30
 40 348 40 348 46 354 c 128,-1,0
 52 360 52 360 60 360 c 128,-1,1
EndSplineSet
EndChar

StartChar: I
Encoding: 73 73 74
Width: 280
GlyphClass: 1
Flags: W
HStem: 0 40<41.5952 120 160 238.405> 320 40<41.5952 120 160 238.405>
VStem: 120 40<40 320>
LayerCount: 2
Fore
SplineSet
60 360 m 2,0,-1
 140 360 l 1,1,-1
 220 360 l 2,2,3
 228 360 228 360 234 354 c 128,-1,4
 240 348 240 348 240 340 c 128,-1,5
 240 332 240 332 234 326 c 128,-1,6
 228 320 228 320 220 320 c 2,7,-1
 160 320 l 1,8,-1
 160 40 l 1,9,-1
 220 40 l 2,10,11
 228 40 228 40 234 34 c 128,-1,12
 240 28 240 28 240 20 c 128,-1,13
 240 12 240 12 234 6 c 128,-1,14
 228 0 228 0 220 0 c 2,15,-1
 140 0 l 1,16,-1
 60 0 l 2,17,18
 52 0 52 0 46 6 c 128,-1,19
 40 12 40 12 40 20 c 128,-1,20
 40 28 40 28 46 34 c 128,-1,21
 52 40 52 40 60 40 c 2,22,-1
 120 40 l 1,23,-1
 120 320 l 1,24,-1
 60 320 l 2,25,26
 52 320 52 320 46 326 c 128,-1,27
 40 332 40 332 40 340 c 128,-1,28
 40 348 40 348 46 354 c 128,-1,29
 52 360 52 360 60 360 c 2,0,-1
EndSplineSet
EndChar

StartChar: J
Encoding: 74 74 75
Width: 280
GlyphClass: 1
Flags: W
HStem: 0 40<103.913 176.087> 340 20G<216 224>
VStem: 40 40<64.0894 118.405> 200 40<64.0894 358.405>
LayerCount: 2
Fore
SplineSet
220 360 m 128,-1,1
 228 360 228 360 234 354 c 128,-1,2
 240 348 240 348 240 340 c 2,3,-1
 240 100 l 2,4,5
 240 59 240 59 210.5 29.5 c 128,-1,6
 181 0 181 0 140 0 c 128,-1,7
 99 0 99 0 69.5 29.5 c 128,-1,8
 40 59 40 59 40 100 c 0,9,10
 40 108 40 108 46 114 c 128,-1,11
 52 120 52 120 60 120 c 128,-1,12
 68 120 68 120 74 114 c 128,-1,13
 80 108 80 108 80 100 c 0,14,15
 80 75 80 75 97.5 57.5 c 128,-1,16
 115 40 115 40 140 40 c 128,-1,17
 165 40 165 40 182.5 57.5 c 128,-1,18
 200 75 200 75 200 100 c 2,19,-1
 200 340 l 2,20,21
 200 348 200 348 206 354 c 128,-1,0
 212 360 212 360 220 360 c 128,-1,1
EndSplineSet
EndChar

StartChar: K
Encoding: 75 75 76
Width: 280
GlyphClass: 1
Flags: W
VStem: 40 40<1.59521 20 340 358.405>
LayerCount: 2
Fore
SplineSet
234 326 m 2,0,1
 244 335 244 335 238.5 347.5 c 128,-1,2
 233 360 233 360 220 360 c 0,3,4
 212 360 212 360 206 354 c 2,5,-1
 80 228 l 1,6,-1
 80 340 l 2,7,8
 80 348 80 348 74 354 c 128,-1,9
 68 360 68 360 60 360 c 128,-1,10
 52 360 52 360 46 354 c 128,-1,11
 40 348 40 348 40 340 c 2,12,-1
 40 20 l 2,13,14
 40 12 40 12 46 6 c 128,-1,15
 52 0 52 0 60 0 c 128,-1,16
 68 0 68 0 74 6 c 128,-1,17
 80 12 80 12 80 20 c 2,18,-1
 80 132 l 1,19,-1
 206 6 l 2,20,21
 215 -4 215 -4 227.5 1.5 c 128,-1,22
 240 7 240 7 240 20 c 0,23,24
 240 28 240 28 234 34 c 2,25,-1
 88 180 l 1,26,-1
 234 326 l 2,0,1
EndSplineSet
EndChar

StartChar: L
Encoding: 76 76 77
Width: 280
GlyphClass: 1
Flags: W
HStem: 0 40<220 238.405>
VStem: 40 40<340 358.405>
LayerCount: 2
Fore
SplineSet
80 340 m 2,0,1
 80 348 80 348 74 354 c 128,-1,2
 68 360 68 360 60 360 c 128,-1,3
 52 360 52 360 46 354 c 128,-1,4
 40 348 40 348 40 340 c 2,5,-1
 40 20 l 2,6,7
 40 12 40 12 46 6 c 128,-1,8
 52 0 52 0 60 0 c 2,9,-1
 220 0 l 2,10,11
 228 0 228 0 234 6 c 128,-1,12
 240 12 240 12 240 20 c 128,-1,13
 240 28 240 28 234 34 c 128,-1,14
 228 40 228 40 220 40 c 2,15,-1
 80 40 l 1,16,-1
 80 340 l 2,0,1
EndSplineSet
EndChar

StartChar: M
Encoding: 77 77 78
Width: 280
GlyphClass: 1
Flags: W
VStem: 40 40<1.59521 20> 200 40<1.59521 20>
LayerCount: 2
Fore
SplineSet
74 354 m 2,0,1
 68 360 68 360 61 360 c 0,2,3
 60 360 60 360 60 360 c 2,4,5
 51 360 51 360 46 354 c 0,6,7
 40 348 40 348 40 340 c 2,8,-1
 40 20 l 2,9,10
 40 12 40 12 46 6 c 128,-1,11
 52 0 52 0 60 0 c 128,-1,12
 68 0 68 0 74 6 c 128,-1,13
 80 12 80 12 80 20 c 2,14,-1
 80 292 l 1,15,-1
 126 246 l 2,16,17
 129 243 129 243 132.5 241.5 c 128,-1,18
 136 240 136 240 139 240 c 0,19,20
 140 240 140 240 140 240 c 2,21,22
 148 240 148 240 154 246 c 2,23,-1
 200 292 l 1,24,-1
 200 20 l 2,25,26
 200 12 200 12 206 6 c 128,-1,27
 212 0 212 0 220 0 c 128,-1,28
 228 0 228 0 234 6 c 128,-1,29
 240 12 240 12 240 20 c 2,30,-1
 240 340 l 2,31,32
 240 349 240 349 234 354 c 0,33,34
 228 360 228 360 220 360 c 0,35,36
 215 360 215 360 210 358 c 0,37,38
 208 356 208 356 206 354 c 2,39,-1
 140 288 l 1,40,-1
 74 354 l 2,0,1
EndSplineSet
EndChar

StartChar: N
Encoding: 78 78 79
Width: 280
GlyphClass: 1
Flags: W
VStem: 40 40<1.59521 20 349 354.812> 200 40<5.18823 11 340 358.405>
LayerCount: 2
Fore
SplineSet
240 340 m 2,0,1
 240 348 240 348 234 354 c 128,-1,2
 228 360 228 360 220 360 c 128,-1,3
 212 360 212 360 206 354 c 128,-1,4
 200 348 200 348 200 340 c 2,5,-1
 200 105 l 1,6,-1
 78 349 l 2,7,8
 74 357 74 357 65 359 c 0,9,10
 63 360 63 360 60 360 c 0,11,12
 53 360 53 360 47 355 c 0,13,14
 40 349 40 349 40 340 c 2,15,-1
 40 20 l 2,16,17
 40 12 40 12 46 6 c 128,-1,18
 52 0 52 0 60 0 c 128,-1,19
 68 0 68 0 74 6 c 128,-1,20
 80 12 80 12 80 20 c 2,21,-1
 80 255 l 1,22,-1
 202 11 l 2,23,24
 206 3 206 3 215 1 c 0,25,26
 217 0 217 0 220 0 c 0,27,28
 227 0 227 0 233 5 c 0,29,30
 240 11 240 11 240 20 c 2,31,-1
 240 340 l 2,0,1
EndSplineSet
EndChar

StartChar: O
Encoding: 79 79 80
Width: 280
GlyphClass: 1
Flags: W
HStem: 0 40<103.913 176.087> 320 40<103.913 176.087>
VStem: 40 40<64.0894 295.911> 200 40<64.0894 295.911>
LayerCount: 2
Fore
SplineSet
140 360 m 128,-1,1
 181 360 181 360 210.5 330.5 c 128,-1,2
 240 301 240 301 240 260 c 2,3,-1
 240 100 l 2,4,5
 240 59 240 59 210.5 29.5 c 128,-1,6
 181 0 181 0 140 0 c 128,-1,7
 99 0 99 0 69.5 29.5 c 128,-1,8
 40 59 40 59 40 100 c 2,9,-1
 40 260 l 2,10,11
 40 301 40 301 69.5 330.5 c 128,-1,0
 99 360 99 360 140 360 c 128,-1,1
140 320 m 128,-1,13
 115 320 115 320 97.5 302.5 c 128,-1,14
 80 285 80 285 80 260 c 2,15,-1
 80 100 l 2,16,17
 80 75 80 75 97.5 57.5 c 128,-1,18
 115 40 115 40 140 40 c 128,-1,19
 165 40 165 40 182.5 57.5 c 128,-1,20
 200 75 200 75 200 100 c 2,21,-1
 200 260 l 2,22,23
 200 285 200 285 182.5 302.5 c 128,-1,12
 165 320 165 320 140 320 c 128,-1,13
EndSplineSet
EndChar

StartChar: P
Encoding: 80 80 81
Width: 280
GlyphClass: 1
Flags: W
HStem: 160 40<140 175.911> 320 40<140 175.911>
VStem: 40 40<1.59521 20> 200 40<223.913 296.087>
LayerCount: 2
Fore
SplineSet
80 200 m 1,0,-1
 80 320 l 1,1,-1
 140 320 l 2,2,3
 165 320 165 320 182.5 302.5 c 128,-1,4
 200 285 200 285 200 260 c 128,-1,5
 200 235 200 235 182.5 217.5 c 128,-1,6
 165 200 165 200 140 200 c 2,7,-1
 80 200 l 1,0,-1
80 160 m 1,8,-1
 140 160 l 2,9,10
 181 160 181 160 210.5 189.5 c 128,-1,11
 240 219 240 219 240 260 c 128,-1,12
 240 301 240 301 210.5 330.5 c 128,-1,13
 181 360 181 360 140 360 c 2,14,-1
 60 360 l 2,15,16
 52 360 52 360 46 354 c 128,-1,17
 40 348 40 348 40 340 c 2,18,-1
 40 20 l 2,19,20
 40 12 40 12 46 6 c 128,-1,21
 52 0 52 0 60 0 c 128,-1,22
 68 0 68 0 74 6 c 128,-1,23
 80 12 80 12 80 20 c 2,24,-1
 80 160 l 1,8,-1
EndSplineSet
EndChar

StartChar: Q
Encoding: 81 81 82
Width: 280
GlyphClass: 1
Flags: W
HStem: 0 40<103.913 165.459> 320 40<103.913 176.087>
VStem: 40 40<64.0894 100 260 295.911> 200 40<74.707 100 260 295.911>
LayerCount: 2
Fore
SplineSet
206 6 m 2,0,1
 215 -4 215 -4 227.5 1.5 c 128,-1,2
 240 7 240 7 240 20 c 0,3,4
 240 28 240 28 234 34 c 2,5,-1
 223 45 l 1,6,7
 240 70 240 70 240 100 c 2,8,-1
 240 260 l 2,9,10
 240 301 240 301 210.5 330.5 c 128,-1,11
 181 360 181 360 140 360 c 128,-1,12
 99 360 99 360 69.5 330.5 c 128,-1,13
 40 301 40 301 40 260 c 2,14,-1
 40 100 l 2,15,16
 40 59 40 59 69.5 29.5 c 128,-1,17
 99 0 99 0 140 0 c 0,18,19
 170 0 170 0 195 17 c 1,20,-1
 206 6 l 2,0,1
194 74 m 1,21,-1
 154 114 l 2,22,23
 145 124 145 124 132.5 118.5 c 128,-1,24
 120 113 120 113 120 100 c 0,25,26
 120 92 120 92 126 86 c 2,27,-1
 166 46 l 1,28,29
 154 40 154 40 140 40 c 0,30,31
 115 40 115 40 97.5 57.5 c 128,-1,32
 80 75 80 75 80 100 c 2,33,-1
 80 260 l 2,34,35
 80 285 80 285 97.5 302.5 c 128,-1,36
 115 320 115 320 140 320 c 128,-1,37
 165 320 165 320 182.5 302.5 c 128,-1,38
 200 285 200 285 200 260 c 2,39,-1
 200 100 l 2,40,41
 200 86 200 86 194 74 c 1,21,-1
EndSplineSet
EndChar

StartChar: R
Encoding: 82 82 83
Width: 280
GlyphClass: 1
Flags: W
HStem: 160 40<140 176.263> 320 40<140 175.911>
VStem: 40 40<1.59521 20> 200 40<1.59521 20 100 136.011 223.863 296.087>
LayerCount: 2
Fore
SplineSet
240 100 m 2,0,1
 240 150 240 150 200 180 c 1,2,3
 240 210 240 210 240 260 c 0,4,5
 240 301 240 301 210.5 330.5 c 128,-1,6
 181 360 181 360 140 360 c 2,7,8
 140 360 140 360 60 360 c 0,9,10
 52 360 52 360 46 354 c 128,-1,11
 40 348 40 348 40 340 c 2,12,-1
 40 20 l 2,13,14
 40 12 40 12 46 6 c 128,-1,15
 52 0 52 0 60 0 c 128,-1,16
 68 0 68 0 74 6 c 128,-1,17
 80 12 80 12 80 20 c 2,18,-1
 80 160 l 1,19,-1
 140 160 l 2,20,21
 165 160 165 160 182.5 142.5 c 128,-1,22
 200 125 200 125 200 100 c 1,23,-1
 200 20 l 2,24,25
 200 12 200 12 206 6 c 128,-1,26
 212 0 212 0 220 0 c 128,-1,27
 228 0 228 0 234 6 c 128,-1,28
 240 12 240 12 240 20 c 2,29,-1
 240 100 l 2,0,1
80 200 m 1,30,-1
 80 320 l 1,31,-1
 140 320 l 2,32,33
 165 320 165 320 182.5 302.5 c 128,-1,34
 200 285 200 285 200 260 c 128,-1,35
 200 235 200 235 182.5 217.5 c 128,-1,36
 165 200 165 200 140 200 c 2,37,-1
 80 200 l 1,30,-1
EndSplineSet
EndChar

StartChar: S
Encoding: 83 83 84
Width: 280
GlyphClass: 1
Flags: W
HStem: 0 40<103.913 176.087> 160 40<104.089 175.911> 320 40<103.913 176.087>
VStem: 40 40<64.0894 118.405 223.913 296.087> 200 40<63.9133 136.087 241.595 295.911>
CounterMasks: 1 e0
LayerCount: 2
Fore
SplineSet
140 360 m 128,-1,1
 181 360 181 360 210.5 330.5 c 128,-1,2
 240 301 240 301 240 260 c 0,3,4
 240 252 240 252 234 246 c 128,-1,5
 228 240 228 240 220 240 c 128,-1,6
 212 240 212 240 206 246 c 128,-1,7
 200 252 200 252 200 260 c 0,8,9
 200 285 200 285 182.5 302.5 c 128,-1,10
 165 320 165 320 140 320 c 128,-1,11
 115 320 115 320 97.5 302.5 c 128,-1,12
 80 285 80 285 80 260 c 128,-1,13
 80 235 80 235 97.5 217.5 c 128,-1,14
 115 200 115 200 140 200 c 0,15,16
 181 200 181 200 210.5 170.5 c 128,-1,17
 240 141 240 141 240 100 c 128,-1,18
 240 59 240 59 210.5 29.5 c 128,-1,19
 181 0 181 0 140 0 c 128,-1,20
 99 0 99 0 69.5 29.5 c 128,-1,21
 40 59 40 59 40 100 c 0,22,23
 40 108 40 108 46 114 c 128,-1,24
 52 120 52 120 60 120 c 128,-1,25
 68 120 68 120 74 114 c 128,-1,26
 80 108 80 108 80 100 c 0,27,28
 80 75 80 75 97.5 57.5 c 128,-1,29
 115 40 115 40 140 40 c 128,-1,30
 165 40 165 40 182.5 57.5 c 128,-1,31
 200 75 200 75 200 100 c 128,-1,32
 200 125 200 125 182.5 142.5 c 128,-1,33
 165 160 165 160 140 160 c 0,34,35
 99 160 99 160 69.5 189.5 c 128,-1,36
 40 219 40 219 40 260 c 128,-1,37
 40 301 40 301 69.5 330.5 c 128,-1,0
 99 360 99 360 140 360 c 128,-1,1
EndSplineSet
EndChar

StartChar: T
Encoding: 84 84 85
Width: 280
GlyphClass: 1
Flags: W
HStem: 0 21G<136 144> 320 40<41.5952 120 160 238.405>
VStem: 120 40<1.59521 320>
LayerCount: 2
Fore
SplineSet
60 360 m 2,0,-1
 140 360 l 1,1,-1
 220 360 l 2,2,3
 228 360 228 360 234 354 c 128,-1,4
 240 348 240 348 240 340 c 128,-1,5
 240 332 240 332 234 326 c 128,-1,6
 228 320 228 320 220 320 c 2,7,-1
 160 320 l 1,8,-1
 160 20 l 2,9,10
 160 12 160 12 154 6 c 128,-1,11
 148 0 148 0 140 0 c 128,-1,12
 132 0 132 0 126 6 c 128,-1,13
 120 12 120 12 120 20 c 2,14,-1
 120 320 l 1,15,-1
 60 320 l 2,16,17
 52 320 52 320 46 326 c 128,-1,18
 40 332 40 332 40 340 c 128,-1,19
 40 348 40 348 46 354 c 128,-1,20
 52 360 52 360 60 360 c 2,0,-1
EndSplineSet
EndChar

StartChar: U
Encoding: 85 85 86
Width: 280
GlyphClass: 1
Flags: W
HStem: 0 40<103.913 176.087> 340 20G<56 64 216 224>
VStem: 40 40<64.0894 358.405> 200 40<64.0894 358.405>
LayerCount: 2
Fore
SplineSet
60 360 m 128,-1,1
 68 360 68 360 74 354 c 128,-1,2
 80 348 80 348 80 340 c 2,3,-1
 80 100 l 2,4,5
 80 75 80 75 97.5 57.5 c 128,-1,6
 115 40 115 40 140 40 c 128,-1,7
 165 40 165 40 182.5 57.5 c 128,-1,8
 200 75 200 75 200 100 c 2,9,-1
 200 340 l 2,10,11
 200 348 200 348 206 354 c 128,-1,12
 212 360 212 360 220 360 c 128,-1,13
 228 360 228 360 234 354 c 128,-1,14
 240 348 240 348 240 340 c 2,15,-1
 240 100 l 2,16,17
 240 59 240 59 210.5 29.5 c 128,-1,18
 181 0 181 0 140 0 c 128,-1,19
 99 0 99 0 69.5 29.5 c 128,-1,20
 40 59 40 59 40 100 c 2,21,-1
 40 340 l 2,22,23
 40 348 40 348 46 354 c 128,-1,0
 52 360 52 360 60 360 c 128,-1,1
EndSplineSet
EndChar

StartChar: V
Encoding: 86 86 87
Width: 280
GlyphClass: 1
Flags: W
HStem: 0 21G<132 148> 340 20G<58.5 68 212 222>
LayerCount: 2
Fore
SplineSet
221 360 m 0,0,1
 223 360 223 360 225 359 c 0,2,3
 240 356 240 356 240 340 c 0,4,5
 240 338 240 338 239 335 c 2,6,7
 239 335 239 335 159 15 c 0,8,9
 156 0 156 0 140 0 c 128,-1,10
 124 0 124 0 121 15 c 2,11,-1
 41 335 l 2,12,13
 40 338 40 338 40 340 c 0,14,15
 40 356 40 356 55 359 c 0,16,17
 57 360 57 360 60 360 c 0,18,19
 76 360 76 360 79 345 c 2,20,-1
 140 102 l 1,21,22
 144 118 144 118 150 143 c 128,-1,23
 156 168 156 168 169.5 221 c 128,-1,24
 183 274 183 274 192 309.5 c 128,-1,25
 201 345 201 345 201 345 c 2,26,27
 204 360 204 360 220 360 c 2,28,29
 220 360 220 360 221 360 c 0,0,1
EndSplineSet
EndChar

StartChar: W
Encoding: 87 87 88
Width: 280
GlyphClass: 1
Flags: W
VStem: 40 40<340 358.405> 200 40<340 358.405>
LayerCount: 2
Fore
SplineSet
80 68 m 1,0,-1
 80 340 l 2,1,2
 80 348 80 348 74 354 c 128,-1,3
 68 360 68 360 60 360 c 128,-1,4
 52 360 52 360 46 354 c 128,-1,5
 40 348 40 348 40 340 c 2,6,-1
 40 20 l 2,7,8
 40 11 40 11 46 6 c 0,9,10
 52 0 52 0 60 0 c 128,-1,11
 68 0 68 0 74 6 c 2,12,-1
 140 72 l 1,13,-1
 206 6 l 2,14,15
 212 0 212 0 219 0 c 0,16,17
 220 0 220 0 220 0 c 2,18,19
 229 0 229 0 234 6 c 0,20,21
 240 12 240 12 240 20 c 2,22,-1
 240 340 l 2,23,24
 240 348 240 348 234 354 c 128,-1,25
 228 360 228 360 220 360 c 128,-1,26
 212 360 212 360 206 354 c 128,-1,27
 200 348 200 348 200 340 c 2,28,-1
 200 68 l 1,29,-1
 154 114 l 2,30,31
 151 117 151 117 147.5 118.5 c 128,-1,32
 144 120 144 120 141 120 c 0,33,34
 140 120 140 120 140 120 c 2,35,36
 132 120 132 120 126 114 c 2,37,-1
 80 68 l 1,0,-1
EndSplineSet
EndChar

StartChar: X
Encoding: 88 88 89
Width: 280
GlyphClass: 1
Flags: W
LayerCount: 2
Fore
SplineSet
42 29 m 2,0,1
 37 19 37 19 43 9.5 c 128,-1,2
 49 0 49 0 60 0 c 0,3,4
 72 0 72 0 78 11 c 2,5,-1
 140 135 l 1,6,-1
 202 11 l 2,7,8
 209 -3 209 -3 224.5 0.5 c 128,-1,9
 240 4 240 4 240 20 c 0,10,11
 240 25 240 25 238 29 c 2,12,-1
 162 180 l 1,13,-1
 238 331 l 2,14,15
 243 341 243 341 237 350.5 c 128,-1,16
 231 360 231 360 220 360 c 0,17,18
 208 360 208 360 202 349 c 2,19,-1
 140 225 l 1,20,-1
 78 349 l 2,21,22
 71 363 71 363 55.5 359.5 c 128,-1,23
 40 356 40 356 40 340 c 0,24,25
 40 335 40 335 42 331 c 2,26,-1
 118 180 l 1,27,-1
 42 29 l 2,0,1
EndSplineSet
EndChar

StartChar: Y
Encoding: 89 89 90
Width: 280
GlyphClass: 1
Flags: W
VStem: 120 40<1.59521 20>
LayerCount: 2
Fore
SplineSet
120 20 m 2,0,1
 120 12 120 12 126 6 c 128,-1,2
 132 0 132 0 140 0 c 128,-1,3
 148 0 148 0 154 6 c 128,-1,4
 160 12 160 12 160 20 c 2,5,-1
 160 175 l 1,6,-1
 238 331 l 2,7,8
 243 341 243 341 237 350.5 c 128,-1,9
 231 360 231 360 220 360 c 0,10,11
 208 360 208 360 202 349 c 2,12,-1
 140 225 l 1,13,-1
 78 349 l 2,14,15
 71 363 71 363 55.5 359.5 c 128,-1,16
 40 356 40 356 40 340 c 0,17,18
 40 335 40 335 42 331 c 2,19,-1
 120 175 l 1,20,-1
 120 20 l 2,0,1
EndSplineSet
EndChar

StartChar: Z
Encoding: 90 90 91
Width: 280
GlyphClass: 1
Flags: W
HStem: 0 40<92 238.405> 320 40<41.5952 188>
LayerCount: 2
Fore
SplineSet
60 360 m 0,0,1
 220 360 220 360 220 360 c 2,2,3
 228 360 228 360 234 354 c 128,-1,4
 240 348 240 348 240 340 c 0,5,6
 240 335 240 335 238 331 c 2,7,-1
 92 40 l 1,8,-1
 93 40 l 1,9,-1
 94 40 l 1,10,-1
 95 40 l 1,11,-1
 96 40 l 1,12,-1
 97 40 l 1,13,-1
 98 40 l 1,14,-1
 99 40 l 1,15,-1
 100 40 l 1,16,-1
 101 40 l 1,17,-1
 102 40 l 1,18,-1
 103 40 l 1,19,-1
 104 40 l 1,20,-1
 105 40 l 1,21,-1
 106 40 l 1,22,-1
 107 40 l 1,23,-1
 108 40 l 1,24,-1
 109 40 l 1,25,-1
 110 40 l 1,26,-1
 111 40 l 1,27,-1
 112 40 l 1,28,-1
 113 40 l 1,29,-1
 114 40 l 1,30,-1
 115 40 l 1,31,-1
 116 40 l 1,32,-1
 117 40 l 1,33,-1
 118 40 l 1,34,-1
 119 40 l 1,35,-1
 120 40 l 1,36,-1
 121 40 l 1,37,-1
 123 40 l 1,38,-1
 124 40 l 1,39,-1
 125 40 l 1,40,-1
 126 40 l 1,41,-1
 127 40 l 1,42,-1
 129 40 l 1,43,-1
 130 40 l 1,44,-1
 131 40 l 1,45,-1
 132 40 l 1,46,-1
 134 40 l 1,47,-1
 135 40 l 1,48,-1
 136 40 l 1,49,-1
 138 40 l 1,50,-1
 139 40 l 1,51,-1
 140 40 l 1,52,-1
 142 40 l 1,53,-1
 143 40 l 1,54,-1
 144 40 l 1,55,-1
 146 40 l 1,56,-1
 147 40 l 1,57,-1
 149 40 l 1,58,-1
 150 40 l 1,59,-1
 152 40 l 1,60,-1
 153 40 l 1,61,-1
 154 40 l 1,62,-1
 156 40 l 1,63,-1
 157 40 l 1,64,-1
 159 40 l 1,65,-1
 161 40 l 1,66,-1
 162 40 l 1,67,-1
 164 40 l 1,68,-1
 165 40 l 1,69,-1
 167 40 l 1,70,-1
 168 40 l 1,71,-1
 170 40 l 1,72,-1
 171 40 l 1,73,-1
 173 40 l 1,74,-1
 175 40 l 1,75,-1
 176 40 l 1,76,-1
 178 40 l 1,77,-1
 180 40 l 1,78,-1
 181 40 l 1,79,-1
 183 40 l 1,80,-1
 185 40 l 1,81,-1
 186 40 l 1,82,-1
 188 40 l 1,83,-1
 190 40 l 1,84,-1
 191 40 l 1,85,-1
 193 40 l 1,86,-1
 195 40 l 1,87,-1
 197 40 l 1,88,-1
 198 40 l 1,89,-1
 200 40 l 1,90,-1
 202 40 l 1,91,-1
 204 40 l 1,92,-1
 205 40 l 1,93,-1
 207 40 l 1,94,-1
 209 40 l 1,95,-1
 211 40 l 1,96,-1
 220 40 l 2,97,98
 228 40 228 40 234 34 c 128,-1,99
 240 28 240 28 240 20 c 128,-1,100
 240 12 240 12 234 6 c 128,-1,101
 228 0 228 0 220 0 c 0,102,103
 60 0 60 0 60 0 c 2,104,105
 52 0 52 0 46 6 c 128,-1,106
 40 12 40 12 40 20 c 0,107,108
 40 25 40 25 42 29 c 2,109,-1
 188 320 l 1,110,-1
 60 320 l 2,111,112
 52 320 52 320 46 326 c 128,-1,113
 40 332 40 332 40 340 c 128,-1,114
 40 348 40 348 46 354 c 128,-1,115
 52 360 52 360 60 360 c 0,0,1
EndSplineSet
EndChar

StartChar: bracketleft
Encoding: 91 91 92
Width: 280
GlyphClass: 1
Flags: W
HStem: 0 40<280 298.405> 320 40<280 298.405>
VStem: 120 180<1.59521 38.4048 321.595 358.405>
LayerCount: 2
Fore
SplineSet
160 320 m 1,0,-1
 280 320 l 2,1,2
 288 320 288 320 294 326 c 128,-1,3
 300 332 300 332 300 340 c 128,-1,4
 300 348 300 348 294 354 c 128,-1,5
 288 360 288 360 280 360 c 2,6,-1
 140 360 l 2,7,8
 132 360 132 360 126 354 c 128,-1,9
 120 348 120 348 120 340 c 2,10,-1
 120 20 l 2,11,12
 120 12 120 12 126 6 c 128,-1,13
 132 0 132 0 140 0 c 2,14,-1
 280 0 l 2,15,16
 288 0 288 0 294 6 c 128,-1,17
 300 12 300 12 300 20 c 128,-1,18
 300 28 300 28 294 34 c 128,-1,19
 288 40 288 40 280 40 c 2,20,-1
 160 40 l 1,21,-1
 160 320 l 1,0,-1
EndSplineSet
EndChar

StartChar: backslash
Encoding: 92 92 93
Width: 280
GlyphClass: 1
Flags: W
LayerCount: 2
Fore
SplineSet
18 469 m 2,0,1
 11 483 11 483 -4.5 479.5 c 128,-1,2
 -20 476 -20 476 -20 460 c 0,3,4
 -20 455 -20 455 -18 451 c 2,5,-1
 262 -109 l 2,6,7
 269 -123 269 -123 284.5 -119.5 c 128,-1,8
 300 -116 300 -116 300 -100 c 0,9,10
 300 -95 300 -95 298 -91 c 2,11,-1
 18 469 l 2,0,1
EndSplineSet
EndChar

StartChar: bracketright
Encoding: 93 93 94
Width: 280
GlyphClass: 1
Flags: W
HStem: 0 40<-18.4048 0> 320 40<-18.4048 0>
VStem: -20 180<1.59521 38.4048 321.595 358.405>
LayerCount: 2
Fore
SplineSet
0 40 m 2,0,1
 -8 40 -8 40 -14 34 c 128,-1,2
 -20 28 -20 28 -20 20 c 128,-1,3
 -20 12 -20 12 -14 6 c 128,-1,4
 -8 0 -8 0 0 0 c 2,5,-1
 140 0 l 2,6,7
 148 0 148 0 154 6 c 128,-1,8
 160 12 160 12 160 20 c 2,9,-1
 160 340 l 2,10,11
 160 348 160 348 154 354 c 128,-1,12
 148 360 148 360 140 360 c 2,13,-1
 0 360 l 2,14,15
 -8 360 -8 360 -14 354 c 128,-1,16
 -20 348 -20 348 -20 340 c 128,-1,17
 -20 332 -20 332 -14 326 c 128,-1,18
 -8 320 -8 320 0 320 c 2,19,-1
 120 320 l 1,20,-1
 120 40 l 1,21,-1
 0 40 l 2,0,1
EndSplineSet
EndChar

StartChar: asciicircum
Encoding: 94 94 95
Width: 280
GlyphClass: 1
Flags: W
LayerCount: 2
Fore
SplineSet
202 171 m 2,0,1
 209 157 209 157 224.5 160.5 c 128,-1,2
 240 164 240 164 240 180 c 0,3,4
 240 185 240 185 238 189 c 2,5,-1
 158 349 l 2,6,7
 152 360 152 360 140 360 c 128,-1,8
 128 360 128 360 122 349 c 2,9,-1
 42 189 l 2,10,11
 37 179 37 179 43 169.5 c 128,-1,12
 49 160 49 160 60 160 c 0,13,14
 72 160 72 160 78 171 c 2,15,-1
 140 295 l 1,16,-1
 202 171 l 2,0,1
EndSplineSet
EndChar

StartChar: underscore
Encoding: 95 95 96
Width: 280
GlyphClass: 1
Flags: W
HStem: -120 40<-8 0 280 280>
LayerCount: 2
Fore
SplineSet
0 -80 m 2,0,1
 -8 -80 -8 -80 -14 -86 c 128,-1,2
 -20 -92 -20 -92 -20 -100 c 128,-1,3
 -20 -108 -20 -108 -14 -114 c 128,-1,4
 -8 -120 -8 -120 0 -120 c 2,5,-1
 280 -120 l 2,6,7
 288 -120 288 -120 294 -114 c 128,-1,8
 300 -108 300 -108 300 -100 c 128,-1,9
 300 -92 300 -92 294 -86 c 128,-1,10
 288 -80 288 -80 280 -80 c 2,11,-1
 0 -80 l 2,0,1
0 -80 m 2,12,13
 -8 -80 -8 -80 -14 -86 c 128,-1,14
 -20 -92 -20 -92 -20 -100 c 128,-1,15
 -20 -108 -20 -108 -14 -114 c 128,-1,16
 -8 -120 -8 -120 0 -120 c 2,17,-1
 280 -120 l 2,18,19
 288 -120 288 -120 294 -114 c 128,-1,20
 300 -108 300 -108 300 -100 c 128,-1,21
 300 -92 300 -92 294 -86 c 128,-1,22
 288 -80 288 -80 280 -80 c 2,23,-1
 0 -80 l 2,12,13
EndSplineSet
EndChar

StartChar: grave
Encoding: 96 96 97
Width: 280
GlyphClass: 1
Flags: W
VStem: 80 120
LayerCount: 2
Fore
SplineSet
166 246 m 2,0,1
 175 236 175 236 187.5 241.5 c 128,-1,2
 200 247 200 247 200 260 c 0,3,4
 200 268 200 268 194 274 c 2,5,-1
 114 354 l 2,6,7
 105 364 105 364 92.5 358.5 c 128,-1,8
 80 353 80 353 80 340 c 0,9,10
 80 332 80 332 86 326 c 2,11,-1
 166 246 l 2,0,1
EndSplineSet
EndChar

StartChar: a
Encoding: 97 97 98
Width: 280
GlyphClass: 1
Flags: W
HStem: 0 40<81.6132 100 180 198.387> 80 40<81.6132 100 180 198.125> 160 40<81.5952 100 180 198.387>
VStem: 40 40<41.6042 78.3958> 200 40<41.6132 78.4048 140 158.387>
CounterMasks: 1 e0
LayerCount: 2
Fore
SplineSet
100 200 m 2,0,1
 92 200 92 200 86 194 c 128,-1,2
 80 188 80 188 80 180 c 128,-1,3
 80 172 80 172 86 166 c 128,-1,4
 92 160 92 160 100 160 c 2,5,-1
 180 160 l 2,6,7
 188 160 188 160 194 154 c 128,-1,8
 200 148 200 148 200 140 c 2,9,-1
 200 117 l 1,10,11
 190 120 190 120 180 120 c 2,12,-1
 100 120 l 2,13,14
 75 120 75 120 57.5 102.5 c 128,-1,15
 40 85 40 85 40 60 c 128,-1,16
 40 35 40 35 57.5 17.5 c 128,-1,17
 75 0 75 0 100 0 c 2,18,-1
 180 0 l 2,19,20
 205 0 205 0 222.5 17.5 c 128,-1,21
 240 35 240 35 240 60 c 2,22,-1
 240 140 l 2,23,24
 240 165 240 165 222.5 182.5 c 128,-1,25
 205 200 205 200 180 200 c 2,26,-1
 100 200 l 2,0,1
180 40 m 2,27,-1
 100 40 l 2,28,29
 92 40 92 40 86 46 c 128,-1,30
 80 52 80 52 80 60 c 128,-1,31
 80 68 80 68 86 74 c 128,-1,32
 92 80 92 80 100 80 c 2,33,-1
 180 80 l 2,34,35
 188 80 188 80 194 74 c 128,-1,36
 200 68 200 68 200 60 c 128,-1,37
 200 52 200 52 194 46 c 128,-1,38
 188 40 188 40 180 40 c 2,27,-1
EndSplineSet
EndChar

StartChar: b
Encoding: 98 98 99
Width: 280
GlyphClass: 1
Flags: W
HStem: 0 40<103.913 176.087> 160 40<103.793 176.087>
VStem: 40 40<64.0894 136.263 340 358.405> 200 40<63.9133 136.087>
LayerCount: 2
Fore
SplineSet
80 340 m 2,0,1
 80 348 80 348 74 354 c 128,-1,2
 68 360 68 360 60 360 c 128,-1,3
 52 360 52 360 46 354 c 128,-1,4
 40 348 40 348 40 340 c 2,5,-1
 40 100 l 1,6,7
 40 59 40 59 69.5 29.5 c 128,-1,8
 99 0 99 0 140 0 c 128,-1,9
 181 0 181 0 210.5 29.5 c 128,-1,10
 240 59 240 59 240 100 c 128,-1,11
 240 141 240 141 210.5 170.5 c 128,-1,12
 181 200 181 200 140 200 c 0,13,14
 107 200 107 200 80 180 c 1,15,-1
 80 340 l 2,0,1
200 100 m 128,-1,17
 200 75 200 75 182.5 57.5 c 128,-1,18
 165 40 165 40 140 40 c 128,-1,19
 115 40 115 40 97.5 57.5 c 128,-1,20
 80 75 80 75 80 100 c 128,-1,21
 80 125 80 125 97.5 142.5 c 128,-1,22
 115 160 115 160 140 160 c 128,-1,23
 165 160 165 160 182.5 142.5 c 128,-1,16
 200 125 200 125 200 100 c 128,-1,17
EndSplineSet
EndChar

StartChar: c
Encoding: 99 99 100
Width: 280
GlyphClass: 1
Flags: W
HStem: 0 40<103.913 175.121> 160 40<103.913 175.121>
VStem: 40 40<63.9133 136.087>
LayerCount: 2
Fore
SplineSet
211 29 m 0,0,1
 220 39 220 39 215 51 c 128,-1,2
 210 63 210 63 197 63 c 0,3,4
 188 63 188 63 182 58 c 0,5,6
 165 40 165 40 140 40 c 128,-1,7
 115 40 115 40 97.5 57.5 c 128,-1,8
 80 75 80 75 80 100 c 128,-1,9
 80 125 80 125 97.5 142.5 c 128,-1,10
 115 160 115 160 140 160 c 128,-1,11
 165 160 165 160 182 142 c 0,12,13
 192 133 192 133 204.5 138 c 128,-1,14
 217 143 217 143 217 157 c 0,15,16
 217 165 217 165 211 171 c 0,17,18
 181 200 181 200 140 200 c 128,-1,19
 99 200 99 200 69.5 170.5 c 128,-1,20
 40 141 40 141 40 100 c 128,-1,21
 40 59 40 59 69.5 29.5 c 128,-1,22
 99 0 99 0 140 0 c 128,-1,23
 181 0 181 0 211 29 c 0,0,1
EndSplineSet
EndChar

StartChar: d
Encoding: 100 100 101
Width: 280
GlyphClass: 1
Flags: W
HStem: 0 40<103.913 176.087> 160 40<103.913 176.207>
VStem: 40 40<63.9133 136.087> 200 40<64.0894 136.263 340 358.405>
LayerCount: 2
Fore
SplineSet
240 340 m 2,0,1
 240 348 240 348 234 354 c 128,-1,2
 228 360 228 360 220 360 c 128,-1,3
 212 360 212 360 206 354 c 128,-1,4
 200 348 200 348 200 340 c 2,5,-1
 200 180 l 1,6,7
 173 200 173 200 140 200 c 0,8,9
 99 200 99 200 69.5 170.5 c 128,-1,10
 40 141 40 141 40 100 c 128,-1,11
 40 59 40 59 69.5 29.5 c 128,-1,12
 99 0 99 0 140 0 c 128,-1,13
 181 0 181 0 210.5 29.5 c 128,-1,14
 240 59 240 59 240 100 c 1,15,16
 240 100 240 100 240 340 c 2,0,1
80 100 m 128,-1,18
 80 125 80 125 97.5 142.5 c 128,-1,19
 115 160 115 160 140 160 c 128,-1,20
 165 160 165 160 182.5 142.5 c 128,-1,21
 200 125 200 125 200 100 c 128,-1,22
 200 75 200 75 182.5 57.5 c 128,-1,23
 165 40 165 40 140 40 c 128,-1,24
 115 40 115 40 97.5 57.5 c 128,-1,17
 80 75 80 75 80 100 c 128,-1,18
EndSplineSet
EndChar

StartChar: e
Encoding: 101 101 102
Width: 280
GlyphClass: 1
Flags: W
HStem: 0 40<81.6132 100 180 198.405> 160 40<81.6132 100 180 198.387>
VStem: 40 40<41.6132 60 140 158.387> 200 40<140 158.387>
LayerCount: 2
Fore
SplineSet
200 120 m 1,0,-1
 80 120 l 1,1,-1
 80 140 l 2,2,3
 80 148 80 148 86 154 c 128,-1,4
 92 160 92 160 100 160 c 2,5,-1
 180 160 l 2,6,7
 188 160 188 160 194 154 c 128,-1,8
 200 148 200 148 200 140 c 2,9,-1
 200 120 l 1,0,-1
180 0 m 2,10,11
 188 0 188 0 194 6 c 128,-1,12
 200 12 200 12 200 20 c 128,-1,13
 200 28 200 28 194 34 c 128,-1,14
 188 40 188 40 180 40 c 2,15,-1
 100 40 l 2,16,17
 92 40 92 40 86 46 c 128,-1,18
 80 52 80 52 80 60 c 2,19,-1
 80 80 l 1,20,-1
 220 80 l 2,21,22
 228 80 228 80 234 86 c 128,-1,23
 240 92 240 92 240 100 c 2,24,-1
 240 140 l 2,25,26
 240 165 240 165 222.5 182.5 c 128,-1,27
 205 200 205 200 180 200 c 2,28,-1
 100 200 l 2,29,30
 75 200 75 200 57.5 182.5 c 128,-1,31
 40 165 40 165 40 140 c 2,32,-1
 40 60 l 2,33,34
 40 35 40 35 57.5 17.5 c 128,-1,35
 75 0 75 0 100 0 c 2,36,-1
 180 0 l 2,10,11
EndSplineSet
EndChar

StartChar: f
Encoding: 102 102 103
Width: 280
GlyphClass: 1
Flags: W
HStem: 160 40<180 198.405> 319.5 40.5<103.127 176.519>
VStem: 40 40<1.59521 20 260 296.021>
LayerCount: 2
Fore
SplineSet
69 331 m 0,0,1
 40 301 40 301 40 260 c 2,2,-1
 40 180 l 1,3,-1
 40 20 l 2,4,5
 40 12 40 12 46 6 c 128,-1,6
 52 0 52 0 60 0 c 128,-1,7
 68 0 68 0 74 6 c 128,-1,8
 80 12 80 12 80 20 c 2,9,-1
 80 160 l 1,10,-1
 180 160 l 2,11,12
 188 160 188 160 194 166 c 128,-1,13
 200 172 200 172 200 180 c 128,-1,14
 200 188 200 188 194 194 c 128,-1,15
 188 200 188 200 180 200 c 2,16,-1
 80 200 l 1,17,-1
 80 260 l 2,18,19
 80 285 80 285 97 302 c 1,20,21
 97 302 97 302 98 302 c 0,22,23
 101 306 101 306 105 309 c 0,24,25
 109 311 109 311 112 313 c 0,26,27
 129 322 129 322 148.5 319.5 c 128,-1,28
 168 317 168 317 182 302 c 0,29,30
 192 293 192 293 204.5 298 c 128,-1,31
 217 303 217 303 217 317 c 0,32,33
 217 325 217 325 211 331 c 0,34,35
 182 360 182 360 140 360 c 0,36,37
 120 360 120 360 102 353 c 0,38,39
 84 345 84 345 69 331 c 0,0,1
EndSplineSet
EndChar

StartChar: g
Encoding: 103 103 104
Width: 280
GlyphClass: 1
Flags: W
HStem: -80 40<81.5952 100 180 198.387> 0 40<103.913 176.207> 160 40<103.913 176.087>
VStem: 40 40<63.9133 136.087> 200 40<-38.3868 -20 63.7372 135.911>
LayerCount: 2
Fore
SplineSet
100 -40 m 2,0,1
 92 -40 92 -40 86 -46 c 128,-1,2
 80 -52 80 -52 80 -60 c 128,-1,3
 80 -68 80 -68 86 -74 c 128,-1,4
 92 -80 92 -80 100 -80 c 2,5,-1
 180 -80 l 2,6,7
 205 -80 205 -80 222.5 -62.5 c 128,-1,8
 240 -45 240 -45 240 -20 c 2,9,-1
 240 20 l 1,10,-1
 240 60 l 1,11,-1
 240 100 l 1,12,13
 240 141 240 141 210.5 170.5 c 128,-1,14
 181 200 181 200 140 200 c 128,-1,15
 99 200 99 200 69.5 170.5 c 128,-1,16
 40 141 40 141 40 100 c 128,-1,17
 40 59 40 59 69.5 29.5 c 128,-1,18
 99 0 99 0 140 0 c 0,19,20
 173 0 173 0 200 20 c 1,21,-1
 200 -20 l 2,22,23
 200 -28 200 -28 194 -34 c 128,-1,24
 188 -40 188 -40 180 -40 c 2,25,-1
 100 -40 l 2,0,1
80 100 m 128,-1,27
 80 125 80 125 97.5 142.5 c 128,-1,28
 115 160 115 160 140 160 c 128,-1,29
 165 160 165 160 182.5 142.5 c 128,-1,30
 200 125 200 125 200 100 c 128,-1,31
 200 75 200 75 182.5 57.5 c 128,-1,32
 165 40 165 40 140 40 c 128,-1,33
 115 40 115 40 97.5 57.5 c 128,-1,26
 80 75 80 75 80 100 c 128,-1,27
EndSplineSet
EndChar

StartChar: h
Encoding: 104 104 105
Width: 280
GlyphClass: 1
Flags: W
HStem: 160 40<103.793 176.087>
VStem: 40 40<1.59521 20 100 136.263 340 358.405> 200 40<1.59521 20 100 135.911>
LayerCount: 2
Fore
SplineSet
80 340 m 2,0,1
 80 348 80 348 74 354 c 128,-1,2
 68 360 68 360 60 360 c 128,-1,3
 52 360 52 360 46 354 c 128,-1,4
 40 348 40 348 40 340 c 2,5,-1
 40 100 l 1,6,-1
 40 20 l 2,7,8
 40 12 40 12 46 6 c 128,-1,9
 52 0 52 0 60 0 c 128,-1,10
 68 0 68 0 74 6 c 128,-1,11
 80 12 80 12 80 20 c 2,12,-1
 80 100 l 2,13,14
 80 125 80 125 97.5 142.5 c 128,-1,15
 115 160 115 160 140 160 c 128,-1,16
 165 160 165 160 182.5 142.5 c 128,-1,17
 200 125 200 125 200 100 c 2,18,-1
 200 20 l 2,19,20
 200 12 200 12 206 6 c 128,-1,21
 212 0 212 0 220 0 c 256,22,23
 228 0 228 0 234 6 c 128,-1,24
 240 12 240 12 240 20 c 2,25,-1
 240 100 l 2,26,27
 240 141 240 141 210.5 170.5 c 128,-1,28
 181 200 181 200 140 200 c 0,29,30
 107 200 107 200 80 180 c 1,31,-1
 80 340 l 2,0,1
EndSplineSet
EndChar

StartChar: i
Encoding: 105 105 106
Width: 280
GlyphClass: 1
Flags: W
HStem: 280 80<121.595 158.405>
VStem: 120 40<1.59521 20 180 198.405 281.595 300 340 358.405>
LayerCount: 2
Fore
SplineSet
120 20 m 2,0,1
 120 12 120 12 126 6 c 128,-1,2
 132 0 132 0 140 0 c 128,-1,3
 148 0 148 0 154 6 c 128,-1,4
 160 12 160 12 160 20 c 2,5,-1
 160 180 l 2,6,7
 160 188 160 188 154 194 c 128,-1,8
 148 200 148 200 140 200 c 128,-1,9
 132 200 132 200 126 194 c 128,-1,10
 120 188 120 188 120 180 c 2,11,-1
 120 20 l 2,0,1
160 340 m 2,12,13
 160 348 160 348 154 354 c 128,-1,14
 148 360 148 360 140 360 c 128,-1,15
 132 360 132 360 126 354 c 128,-1,16
 120 348 120 348 120 340 c 2,17,-1
 120 300 l 2,18,19
 120 292 120 292 126 286 c 128,-1,20
 132 280 132 280 140 280 c 128,-1,21
 148 280 148 280 154 286 c 128,-1,22
 160 292 160 292 160 300 c 2,23,-1
 160 340 l 2,12,13
EndSplineSet
EndChar

StartChar: j
Encoding: 106 106 107
Width: 280
GlyphClass: 1
Flags: W
HStem: -80 40.5<103.481 176.308> 280 80<201.595 238.405>
VStem: 200 40<-16.4922 20 180 198.405 281.595 300 340 358.405>
LayerCount: 2
Fore
SplineSet
240 340 m 2,0,1
 240 348 240 348 234 354 c 128,-1,2
 228 360 228 360 220 360 c 128,-1,3
 212 360 212 360 206 354 c 128,-1,4
 200 348 200 348 200 340 c 2,5,-1
 200 300 l 2,6,7
 200 292 200 292 206 286 c 128,-1,8
 212 280 212 280 220 280 c 128,-1,9
 228 280 228 280 234 286 c 128,-1,10
 240 292 240 292 240 300 c 2,11,-1
 240 340 l 2,0,1
178 -73 m 0,12,13
 196 -65 196 -65 210 -52 c 0,14,15
 240 -22 240 -22 240 20 c 2,16,-1
 240 180 l 2,17,18
 240 188 240 188 234 194 c 128,-1,19
 228 200 228 200 220 200 c 128,-1,20
 212 200 212 200 206 194 c 128,-1,21
 200 188 200 188 200 180 c 2,22,-1
 200 20 l 2,23,24
 200 -5 200 -5 183 -22 c 1,25,26
 183 -22 183 -22 182 -22 c 0,27,28
 179 -26 179 -26 174 -29 c 0,29,30
 171 -31 171 -31 168 -33 c 0,31,32
 151 -42 151 -42 131.5 -39.5 c 128,-1,33
 112 -37 112 -37 98 -22 c 0,34,35
 88 -13 88 -13 75.5 -18 c 128,-1,36
 63 -23 63 -23 63 -37 c 0,37,38
 63 -45 63 -45 69 -51 c 0,39,40
 98 -80 98 -80 140 -80 c 0,41,42
 160 -80 160 -80 178 -73 c 0,12,13
EndSplineSet
EndChar

StartChar: k
Encoding: 107 107 108
Width: 280
GlyphClass: 1
Flags: W
VStem: 40 40<340 358.405>
LayerCount: 2
Fore
SplineSet
80 340 m 2,0,1
 80 348 80 348 74 354 c 128,-1,2
 68 360 68 360 60 360 c 128,-1,3
 52 360 52 360 46 354 c 128,-1,4
 40 348 40 348 40 340 c 2,5,-1
 40 20 l 2,6,7
 40 11 40 11 46 6 c 0,8,9
 52 0 52 0 60 0 c 128,-1,10
 68 0 68 0 74 6 c 2,11,-1
 140 72 l 1,12,-1
 206 6 l 2,13,14
 215 -4 215 -4 227.5 1.5 c 128,-1,15
 240 7 240 7 240 20 c 0,16,17
 240 28 240 28 234 34 c 2,18,-1
 168 100 l 1,19,-1
 234 166 l 2,20,21
 244 175 244 175 238.5 187.5 c 128,-1,22
 233 200 233 200 220 200 c 0,23,24
 212 200 212 200 206 194 c 2,25,-1
 80 68 l 1,26,-1
 80 340 l 2,0,1
EndSplineSet
EndChar

StartChar: l
Encoding: 108 108 109
Width: 280
GlyphClass: 1
Flags: W
VStem: 120 40<1.59521 20 340 358.405>
LayerCount: 2
Fore
SplineSet
160 340 m 2,0,1
 160 348 160 348 154 354 c 128,-1,2
 148 360 148 360 140 360 c 128,-1,3
 132 360 132 360 126 354 c 128,-1,4
 120 348 120 348 120 340 c 2,5,-1
 120 20 l 2,6,7
 120 12 120 12 126 6 c 128,-1,8
 132 0 132 0 140 0 c 128,-1,9
 148 0 148 0 154 6 c 128,-1,10
 160 12 160 12 160 20 c 2,11,-1
 160 340 l 2,0,1
EndSplineSet
EndChar

StartChar: m
Encoding: 109 109 110
Width: 280
GlyphClass: 1
Flags: W
HStem: 160 40<81.6042 118.372 161.628 198.396>
VStem: 40 40<1.59521 20 140 158.387> 120 40<1.59521 20 140 158.405> 200 40<1.59521 20 140 158.387>
CounterMasks: 1 70
LayerCount: 2
Fore
SplineSet
240 140 m 2,0,1
 240 165 240 165 222.5 182.5 c 128,-1,2
 205 200 205 200 180 200 c 0,3,4
 157 200 157 200 140 185 c 1,5,6
 123 200 123 200 100 200 c 0,7,8
 75 200 75 200 57.5 182.5 c 128,-1,9
 40 165 40 165 40 140 c 2,10,-1
 40 20 l 2,11,12
 40 12 40 12 46 6 c 128,-1,13
 52 0 52 0 60 0 c 128,-1,14
 68 0 68 0 74 6 c 128,-1,15
 80 12 80 12 80 20 c 2,16,-1
 80 140 l 2,17,18
 80 148 80 148 86 154 c 128,-1,19
 92 160 92 160 100 160 c 128,-1,20
 108 160 108 160 114 154 c 128,-1,21
 120 148 120 148 120 140 c 2,22,-1
 120 20 l 2,23,24
 120 12 120 12 126 6 c 128,-1,25
 132 0 132 0 140 0 c 128,-1,26
 148 0 148 0 154 6 c 128,-1,27
 160 12 160 12 160 20 c 2,28,-1
 160 140 l 2,29,30
 160 148 160 148 166 154 c 128,-1,31
 172 160 172 160 180 160 c 128,-1,32
 188 160 188 160 194 154 c 128,-1,33
 200 148 200 148 200 140 c 2,34,-1
 200 20 l 2,35,36
 200 12 200 12 206 6 c 128,-1,37
 212 0 212 0 220 0 c 128,-1,38
 228 0 228 0 234 6 c 128,-1,39
 240 12 240 12 240 20 c 2,40,-1
 240 140 l 2,0,1
EndSplineSet
EndChar

StartChar: n
Encoding: 110 110 111
Width: 280
GlyphClass: 1
Flags: W
HStem: 160 40<103.913 176.087>
VStem: 40 40<1.59521 20 100 135.911> 200 40<1.59521 20 100 135.911>
LayerCount: 2
Fore
SplineSet
40 20 m 2,0,1
 40 12 40 12 46 6 c 128,-1,2
 52 0 52 0 60 0 c 128,-1,3
 68 0 68 0 74 6 c 128,-1,4
 80 12 80 12 80 20 c 2,5,-1
 80 100 l 2,6,7
 80 125 80 125 97.5 142.5 c 128,-1,8
 115 160 115 160 140 160 c 128,-1,9
 165 160 165 160 182.5 142.5 c 128,-1,10
 200 125 200 125 200 100 c 2,11,-1
 200 20 l 2,12,13
 200 12 200 12 206 6 c 128,-1,14
 212 0 212 0 220 0 c 256,15,16
 228 0 228 0 234 6 c 128,-1,17
 240 12 240 12 240 20 c 2,18,-1
 240 100 l 2,19,20
 240 141 240 141 210.5 170.5 c 128,-1,21
 181 200 181 200 140 200 c 128,-1,22
 99 200 99 200 69.5 170.5 c 128,-1,23
 40 141 40 141 40 100 c 2,24,-1
 40 20 l 2,0,1
EndSplineSet
EndChar

StartChar: o
Encoding: 111 111 112
Width: 280
GlyphClass: 1
Flags: W
HStem: 0 40<103.913 176.087> 160 40<103.913 176.087>
VStem: 40 40<63.9133 136.087> 200 40<63.9133 136.087>
LayerCount: 2
Fore
SplineSet
200 100 m 128,-1,1
 200 75 200 75 182.5 57.5 c 128,-1,2
 165 40 165 40 140 40 c 128,-1,3
 115 40 115 40 97.5 57.5 c 128,-1,4
 80 75 80 75 80 100 c 128,-1,5
 80 125 80 125 97.5 142.5 c 128,-1,6
 115 160 115 160 140 160 c 128,-1,7
 165 160 165 160 182.5 142.5 c 128,-1,0
 200 125 200 125 200 100 c 128,-1,1
240 100 m 128,-1,9
 240 141 240 141 210.5 170.5 c 128,-1,10
 181 200 181 200 140 200 c 128,-1,11
 99 200 99 200 69.5 170.5 c 128,-1,12
 40 141 40 141 40 100 c 128,-1,13
 40 59 40 59 69.5 29.5 c 128,-1,14
 99 0 99 0 140 0 c 128,-1,15
 181 0 181 0 210.5 29.5 c 128,-1,8
 240 59 240 59 240 100 c 128,-1,9
EndSplineSet
EndChar

StartChar: p
Encoding: 112 112 113
Width: 280
GlyphClass: 1
Flags: W
HStem: 0 40<103.793 176.087> 160 40<103.913 176.087>
VStem: 40 40<-78.4048 -60 63.7372 135.911> 200 40<63.9133 136.087>
LayerCount: 2
Fore
SplineSet
240 100 m 128,-1,1
 240 141 240 141 210.5 170.5 c 128,-1,2
 181 200 181 200 140 200 c 128,-1,3
 99 200 99 200 69.5 170.5 c 128,-1,4
 40 141 40 141 40 100 c 2,5,-1
 40 -60 l 2,6,7
 40 -68 40 -68 46 -74 c 128,-1,8
 52 -80 52 -80 60 -80 c 128,-1,9
 68 -80 68 -80 74 -74 c 128,-1,10
 80 -68 80 -68 80 -60 c 2,11,-1
 80 20 l 1,12,13
 107 0 107 0 140 0 c 0,14,15
 181 0 181 0 210.5 29.5 c 128,-1,0
 240 59 240 59 240 100 c 128,-1,1
200 100 m 128,-1,17
 200 75 200 75 182.5 57.5 c 128,-1,18
 165 40 165 40 140 40 c 128,-1,19
 115 40 115 40 97.5 57.5 c 128,-1,20
 80 75 80 75 80 100 c 128,-1,21
 80 125 80 125 97.5 142.5 c 128,-1,22
 115 160 115 160 140 160 c 128,-1,23
 165 160 165 160 182.5 142.5 c 128,-1,16
 200 125 200 125 200 100 c 128,-1,17
EndSplineSet
EndChar

StartChar: q
Encoding: 113 113 114
Width: 280
GlyphClass: 1
Flags: W
HStem: 0 40<103.913 176.207> 160 40<103.913 176.087>
VStem: 40 40<63.9133 136.087> 200 40<-78.4048 -60 63.7372 135.911>
LayerCount: 2
Fore
SplineSet
40 100 m 128,-1,1
 40 59 40 59 69.5 29.5 c 128,-1,2
 99 0 99 0 140 0 c 0,3,4
 173 0 173 0 200 20 c 1,5,-1
 200 -60 l 2,6,7
 200 -68 200 -68 206 -74 c 128,-1,8
 212 -80 212 -80 220 -80 c 128,-1,9
 228 -80 228 -80 234 -74 c 128,-1,10
 240 -68 240 -68 240 -60 c 2,11,-1
 240 100 l 2,12,13
 240 141 240 141 210.5 170.5 c 128,-1,14
 181 200 181 200 140 200 c 128,-1,15
 99 200 99 200 69.5 170.5 c 128,-1,0
 40 141 40 141 40 100 c 128,-1,1
80 100 m 128,-1,17
 80 125 80 125 97.5 142.5 c 128,-1,18
 115 160 115 160 140 160 c 128,-1,19
 165 160 165 160 182.5 142.5 c 128,-1,20
 200 125 200 125 200 100 c 128,-1,21
 200 75 200 75 182.5 57.5 c 128,-1,22
 165 40 165 40 140 40 c 128,-1,23
 115 40 115 40 97.5 57.5 c 128,-1,16
 80 75 80 75 80 100 c 128,-1,17
EndSplineSet
EndChar

StartChar: r
Encoding: 114 114 115
Width: 280
GlyphClass: 1
Flags: W
HStem: 160 40<103.913 176.087>
VStem: 40 40<1.59521 20 100 135.911> 200 40<81.5952 135.911>
LayerCount: 2
Fore
SplineSet
200 100 m 0,0,1
 200 92 200 92 206 86 c 128,-1,2
 212 80 212 80 220 80 c 128,-1,3
 228 80 228 80 234 86 c 128,-1,4
 240 92 240 92 240 100 c 0,5,6
 240 141 240 141 210.5 170.5 c 128,-1,7
 181 200 181 200 140 200 c 128,-1,8
 99 200 99 200 69.5 170.5 c 128,-1,9
 40 141 40 141 40 100 c 2,10,-1
 40 20 l 2,11,12
 40 12 40 12 46 6 c 128,-1,13
 52 0 52 0 60 0 c 128,-1,14
 68 0 68 0 74 6 c 128,-1,15
 80 12 80 12 80 20 c 2,16,-1
 80 100 l 2,17,18
 80 125 80 125 97.5 142.5 c 128,-1,19
 115 160 115 160 140 160 c 128,-1,20
 165 160 165 160 182.5 142.5 c 128,-1,21
 200 125 200 125 200 100 c 0,0,1
EndSplineSet
EndChar

StartChar: s
Encoding: 115 115 116
Width: 280
GlyphClass: 1
Flags: W
HStem: 0 40<41.5952 60 180 198.387> 80 40<81.6132 100 180 198.387> 160 40<81.6132 100 220 238.405>
VStem: 40 40<121.604 158.396> 200 40<41.6042 78.3958>
CounterMasks: 1 e0
LayerCount: 2
Fore
SplineSet
220 160 m 2,0,1
 228 160 228 160 234 166 c 128,-1,2
 240 172 240 172 240 180 c 128,-1,3
 240 188 240 188 234 194 c 128,-1,4
 228 200 228 200 220 200 c 2,5,-1
 100 200 l 2,6,7
 75 200 75 200 57.5 182.5 c 128,-1,8
 40 165 40 165 40 140 c 128,-1,9
 40 115 40 115 57.5 97.5 c 128,-1,10
 75 80 75 80 100 80 c 2,11,-1
 180 80 l 2,12,13
 188 80 188 80 194 74 c 128,-1,14
 200 68 200 68 200 60 c 128,-1,15
 200 52 200 52 194 46 c 128,-1,16
 188 40 188 40 180 40 c 2,17,-1
 60 40 l 2,18,19
 52 40 52 40 46 34 c 128,-1,20
 40 28 40 28 40 20 c 128,-1,21
 40 12 40 12 46 6 c 128,-1,22
 52 0 52 0 60 0 c 2,23,-1
 180 0 l 2,24,25
 205 0 205 0 222.5 17.5 c 128,-1,26
 240 35 240 35 240 60 c 128,-1,27
 240 85 240 85 222.5 102.5 c 128,-1,28
 205 120 205 120 180 120 c 2,29,-1
 100 120 l 2,30,31
 92 120 92 120 86 126 c 128,-1,32
 80 132 80 132 80 140 c 128,-1,33
 80 148 80 148 86 154 c 128,-1,34
 92 160 92 160 100 160 c 2,35,-1
 220 160 l 2,0,1
EndSplineSet
EndChar

StartChar: t
Encoding: 116 116 117
Width: 280
GlyphClass: 1
Flags: W
HStem: 0 40<103.376 174.898> 160 40<180 198.405>
VStem: 40 40<64.1992 100 340 358.405>
LayerCount: 2
Fore
SplineSet
97 58 m 1,0,1
 80 75 80 75 80 100 c 2,2,-1
 80 160 l 1,3,-1
 180 160 l 2,4,5
 188 160 188 160 194 166 c 128,-1,6
 200 172 200 172 200 180 c 128,-1,7
 200 188 200 188 194 194 c 128,-1,8
 188 200 188 200 180 200 c 2,9,-1
 80 200 l 1,10,-1
 80 340 l 2,11,12
 80 348 80 348 74 354 c 128,-1,13
 68 360 68 360 60 360 c 128,-1,14
 52 360 52 360 46 354 c 128,-1,15
 40 348 40 348 40 340 c 2,16,-1
 40 180 l 1,17,-1
 40 100 l 2,18,19
 40 59 40 59 69 30 c 0,20,21
 69 29 69 29 69 29 c 1,22,23
 84 14 84 14 104 7 c 0,24,25
 121 0 121 0 140 0 c 0,26,27
 181 0 181 0 211 29 c 0,28,29
 220 39 220 39 215 51 c 128,-1,30
 210 63 210 63 197 63 c 0,31,32
 188 63 188 63 182 58 c 0,33,34
 165 40 165 40 140 40 c 2,35,36
 140 40 140 40 139.5 40 c 128,-1,37
 139 40 139 40 139 40 c 2,38,39
 126 40 126 40 115 46 c 0,40,41
 107 49 107 49 101 54 c 0,42,43
 99 56 99 56 98 58 c 0,44,45
 97 58 97 58 97 58 c 1,0,1
EndSplineSet
EndChar

StartChar: u
Encoding: 117 117 118
Width: 280
GlyphClass: 1
Flags: W
HStem: 0 40<103.913 176.087>
VStem: 40 40<64.0894 100 180 198.405> 200 40<64.0894 100 180 198.405>
LayerCount: 2
Fore
SplineSet
80 180 m 2,0,1
 80 188 80 188 74 194 c 128,-1,2
 68 200 68 200 60 200 c 128,-1,3
 52 200 52 200 46 194 c 128,-1,4
 40 188 40 188 40 180 c 2,5,-1
 40 100 l 1,6,7
 40 59 40 59 69.5 29.5 c 128,-1,8
 99 0 99 0 140 0 c 128,-1,9
 181 0 181 0 210.5 29.5 c 128,-1,10
 240 59 240 59 240 100 c 1,11,-1
 240 180 l 2,12,13
 240 188 240 188 234 194 c 128,-1,14
 228 200 228 200 220 200 c 128,-1,15
 212 200 212 200 206 194 c 128,-1,16
 200 188 200 188 200 180 c 2,17,-1
 200 100 l 2,18,19
 200 75 200 75 182.5 57.5 c 128,-1,20
 165 40 165 40 140 40 c 128,-1,21
 115 40 115 40 97.5 57.5 c 128,-1,22
 80 75 80 75 80 100 c 2,23,-1
 80 180 l 2,0,1
EndSplineSet
EndChar

StartChar: v
Encoding: 118 118 119
Width: 280
GlyphClass: 1
Flags: W
LayerCount: 2
Fore
SplineSet
78 189 m 2,0,1
 71 203 71 203 55.5 199.5 c 128,-1,2
 40 196 40 196 40 180 c 0,3,4
 40 175 40 175 42 171 c 2,5,-1
 122 11 l 2,6,7
 128 0 128 0 140 0 c 128,-1,8
 152 0 152 0 158 11 c 2,9,-1
 238 171 l 2,10,11
 243 181 243 181 237 190.5 c 128,-1,12
 231 200 231 200 220 200 c 0,13,14
 208 200 208 200 202 189 c 2,15,-1
 140 65 l 1,16,-1
 78 189 l 2,0,1
EndSplineSet
EndChar

StartChar: w
Encoding: 119 119 120
Width: 280
GlyphClass: 1
Flags: W
HStem: 0 40<81.6042 118.372 161.628 198.396>
VStem: 40 40<41.6132 60 180 198.405> 120 40<41.5952 60 180 198.405> 200 40<41.6132 60 180 198.405>
CounterMasks: 1 70
LayerCount: 2
Fore
SplineSet
200 60 m 2,0,1
 200 52 200 52 194 46 c 128,-1,2
 188 40 188 40 180 40 c 128,-1,3
 172 40 172 40 166 46 c 128,-1,4
 160 52 160 52 160 60 c 2,5,-1
 160 180 l 2,6,7
 160 188 160 188 154 194 c 128,-1,8
 148 200 148 200 140 200 c 128,-1,9
 132 200 132 200 126 194 c 128,-1,10
 120 188 120 188 120 180 c 2,11,-1
 120 60 l 2,12,13
 120 52 120 52 114 46 c 128,-1,14
 108 40 108 40 100 40 c 128,-1,15
 92 40 92 40 86 46 c 128,-1,16
 80 52 80 52 80 60 c 2,17,-1
 80 180 l 2,18,19
 80 188 80 188 74 194 c 128,-1,20
 68 200 68 200 60 200 c 128,-1,21
 52 200 52 200 46 194 c 128,-1,22
 40 188 40 188 40 180 c 2,23,-1
 40 60 l 2,24,25
 40 35 40 35 57.5 17.5 c 128,-1,26
 75 0 75 0 100 0 c 0,27,28
 123 0 123 0 140 15 c 1,29,30
 157 0 157 0 180 0 c 0,31,32
 205 0 205 0 222.5 17.5 c 128,-1,33
 240 35 240 35 240 60 c 2,34,-1
 240 180 l 2,35,36
 240 188 240 188 234 194 c 128,-1,37
 228 200 228 200 220 200 c 128,-1,38
 212 200 212 200 206 194 c 128,-1,39
 200 188 200 188 200 180 c 2,40,-1
 200 60 l 2,0,1
EndSplineSet
EndChar

StartChar: x
Encoding: 120 120 121
Width: 280
GlyphClass: 1
Flags: W
LayerCount: 2
Fore
SplineSet
234 166 m 2,0,1
 244 175 244 175 238.5 187.5 c 128,-1,2
 233 200 233 200 220 200 c 0,3,4
 212 200 212 200 206 194 c 2,5,-1
 140 128 l 1,6,-1
 74 194 l 2,7,8
 65 204 65 204 52.5 198.5 c 128,-1,9
 40 193 40 193 40 180 c 0,10,11
 40 172 40 172 46 166 c 2,12,-1
 112 100 l 1,13,-1
 46 34 l 2,14,15
 36 25 36 25 41.5 12.5 c 128,-1,16
 47 0 47 0 60 0 c 0,17,18
 68 0 68 0 74 6 c 2,19,-1
 140 72 l 1,20,-1
 206 6 l 2,21,22
 215 -4 215 -4 227.5 1.5 c 128,-1,23
 240 7 240 7 240 20 c 0,24,25
 240 28 240 28 234 34 c 2,26,-1
 168 100 l 1,27,-1
 234 166 l 2,0,1
EndSplineSet
EndChar

StartChar: y
Encoding: 121 121 122
Width: 280
GlyphClass: 1
Flags: W
HStem: -80 40<81.5952 100 180 198.387> 0 40<103.913 176.207>
VStem: 40 40<64.0894 100 180 198.405> 200 40<-38.3868 -20 63.7372 100 180 198.405>
LayerCount: 2
Fore
SplineSet
100 -40 m 2,0,1
 92 -40 92 -40 86 -46 c 128,-1,2
 80 -52 80 -52 80 -60 c 128,-1,3
 80 -68 80 -68 86 -74 c 128,-1,4
 92 -80 92 -80 100 -80 c 2,5,-1
 180 -80 l 2,6,7
 205 -80 205 -80 222.5 -62.5 c 128,-1,8
 240 -45 240 -45 240 -20 c 2,9,-1
 240 20 l 1,10,-1
 240 60 l 1,11,-1
 240 100 l 1,12,-1
 240 180 l 2,13,14
 240 188 240 188 234 194 c 128,-1,15
 228 200 228 200 220 200 c 128,-1,16
 212 200 212 200 206 194 c 128,-1,17
 200 188 200 188 200 180 c 2,18,-1
 200 100 l 2,19,20
 200 75 200 75 182.5 57.5 c 128,-1,21
 165 40 165 40 140 40 c 128,-1,22
 115 40 115 40 97.5 57.5 c 128,-1,23
 80 75 80 75 80 100 c 2,24,-1
 80 180 l 2,25,26
 80 188 80 188 74 194 c 128,-1,27
 68 200 68 200 60 200 c 128,-1,28
 52 200 52 200 46 194 c 128,-1,29
 40 188 40 188 40 180 c 2,30,-1
 40 100 l 2,31,32
 40 59 40 59 69.5 29.5 c 128,-1,33
 99 0 99 0 140 0 c 0,34,35
 173 0 173 0 200 20 c 1,36,-1
 200 -20 l 2,37,38
 200 -28 200 -28 194 -34 c 128,-1,39
 188 -40 188 -40 180 -40 c 2,40,-1
 100 -40 l 2,0,1
EndSplineSet
EndChar

StartChar: z
Encoding: 122 122 123
Width: 280
GlyphClass: 1
Flags: W
HStem: 0 40<220 238.405> 160 40<41.5952 60>
LayerCount: 2
Fore
SplineSet
60 200 m 2,0,1
 52 200 52 200 46 194 c 128,-1,2
 40 188 40 188 40 180 c 128,-1,3
 40 172 40 172 46 166 c 128,-1,4
 52 160 52 160 60 160 c 2,5,-1
 172 160 l 1,6,-1
 46 34 l 2,7,8
 36 25 36 25 41.5 12.5 c 128,-1,9
 47 0 47 0 60 0 c 2,10,-1
 220 0 l 2,11,12
 228 0 228 0 234 6 c 128,-1,13
 240 12 240 12 240 20 c 128,-1,14
 240 28 240 28 234 34 c 128,-1,15
 228 40 228 40 220 40 c 2,16,-1
 108 40 l 1,17,-1
 234 166 l 2,18,19
 244 175 244 175 238.5 187.5 c 128,-1,20
 233 200 233 200 220 200 c 2,21,-1
 60 200 l 2,0,1
EndSplineSet
EndChar

StartChar: braceleft
Encoding: 123 123 124
Width: 280
GlyphClass: 1
Flags: W
VStem: 200 40<-26.3452 105.488 250.207 380.539>
LayerCount: 2
Fore
SplineSet
264 -114 m 0,0,1
 273 -123 273 -123 285.5 -118 c 128,-1,2
 298 -113 298 -113 298 -100 c 0,3,4
 298 -92 298 -92 292 -86 c 0,5,6
 240 -34 240 -34 240 40 c 0,7,8
 240 119 240 119 190 179 c 1,9,10
 242 240 242 240 242 320 c 0,11,12
 242 394 242 394 294 446 c 0,13,14
 304 455 304 455 298.5 467.5 c 128,-1,15
 293 480 293 480 280 480 c 0,16,17
 272 480 272 480 266 474 c 0,18,19
 202 410 202 410 202 320 c 0,20,21
 202 249 202 249 154 198 c 1,22,23
 142 193 142 193 142 180 c 0,24,25
 142 172 142 172 148 166 c 0,26,27
 200 114 200 114 200 40 c 0,28,29
 200 -50 200 -50 264 -114 c 0,0,1
EndSplineSet
EndChar

StartChar: bar
Encoding: 124 124 125
Width: 280
GlyphClass: 1
Flags: W
VStem: 120 40<-118.405 -100 460 478.405>
LayerCount: 2
Fore
SplineSet
160 460 m 2,0,1
 160 468 160 468 154 474 c 128,-1,2
 148 480 148 480 140 480 c 128,-1,3
 132 480 132 480 126 474 c 128,-1,4
 120 468 120 468 120 460 c 2,5,-1
 120 -100 l 2,6,7
 120 -108 120 -108 126 -114 c 128,-1,8
 132 -120 132 -120 140 -120 c 128,-1,9
 148 -120 148 -120 154 -114 c 128,-1,10
 160 -108 160 -108 160 -100 c 2,11,-1
 160 460 l 2,0,1
EndSplineSet
EndChar

StartChar: braceright
Encoding: 125 125 126
Width: 280
GlyphClass: 1
Flags: W
VStem: 40 40<-26.3452 105.488 250.705 380.539>
LayerCount: 2
Fore
SplineSet
132 166 m 0,0,1
 140 174 140 174 137.5 184 c 128,-1,2
 135 194 135 194 126 198 c 0,3,4
 78 250 78 250 78 320 c 0,5,6
 78 410 78 410 14 474 c 0,7,8
 5 484 5 484 -7.5 478.5 c 128,-1,9
 -20 473 -20 473 -20 460 c 0,10,11
 -20 452 -20 452 -14 446 c 0,12,13
 38 394 38 394 38 320 c 0,14,15
 38 240 38 240 90 179 c 1,16,17
 40 119 40 119 40 40 c 0,18,19
 40 -34 40 -34 -12 -86 c 0,20,21
 -22 -95 -22 -95 -16.5 -107.5 c 128,-1,22
 -11 -120 -11 -120 2 -120 c 0,23,24
 10 -120 10 -120 16 -114 c 0,25,26
 80 -50 80 -50 80 40 c 0,27,28
 80 114 80 114 132 166 c 0,0,1
EndSplineSet
EndChar

StartChar: asciitilde
Encoding: 126 126 127
Width: 280
GlyphClass: 1
Flags: W
HStem: 240 40<161.604 198.396> 320 40<81.6042 118.396>
VStem: 40 40<281.595 318.387> 120 40<281.613 318.387> 200 40<281.613 318.405>
CounterMasks: 1 38
LayerCount: 2
Fore
SplineSet
40 300 m 0,0,1
 40 292 40 292 46 286 c 128,-1,2
 52 280 52 280 60 280 c 128,-1,3
 68 280 68 280 74 286 c 128,-1,4
 80 292 80 292 80 300 c 128,-1,5
 80 308 80 308 86 314 c 128,-1,6
 92 320 92 320 100 320 c 128,-1,7
 108 320 108 320 114 314 c 128,-1,8
 120 308 120 308 120 300 c 0,9,10
 120 275 120 275 137.5 257.5 c 128,-1,11
 155 240 155 240 180 240 c 128,-1,12
 205 240 205 240 222.5 257.5 c 128,-1,13
 240 275 240 275 240 300 c 0,14,15
 240 308 240 308 234 314 c 128,-1,16
 228 320 228 320 220 320 c 128,-1,17
 212 320 212 320 206 314 c 128,-1,18
 200 308 200 308 200 300 c 128,-1,19
 200 292 200 292 194 286 c 128,-1,20
 188 280 188 280 180 280 c 128,-1,21
 172 280 172 280 166 286 c 128,-1,22
 160 292 160 292 160 300 c 0,23,24
 160 325 160 325 142.5 342.5 c 128,-1,25
 125 360 125 360 100 360 c 128,-1,26
 75 360 75 360 57.5 342.5 c 128,-1,27
 40 325 40 325 40 300 c 0,0,1
EndSplineSet
EndChar

StartChar: exclamdown
Encoding: 161 161 162
Width: 280
GlyphClass: 1
Flags: W
HStem: 280 80<121.595 158.405>
VStem: 120 40<-118.405 -100 180 198.405 281.595 300 340 358.405>
LayerCount: 2
Fore
SplineSet
120 300 m 2,0,1
 120 292 120 292 126 286 c 128,-1,2
 132 280 132 280 140 280 c 128,-1,3
 148 280 148 280 154 286 c 128,-1,4
 160 292 160 292 160 300 c 2,5,-1
 160 340 l 2,6,7
 160 348 160 348 154 354 c 128,-1,8
 148 360 148 360 140 360 c 128,-1,9
 132 360 132 360 126 354 c 128,-1,10
 120 348 120 348 120 340 c 2,11,-1
 120 300 l 2,0,1
120 -100 m 2,12,13
 120 -108 120 -108 126 -114 c 128,-1,14
 132 -120 132 -120 140 -120 c 128,-1,15
 148 -120 148 -120 154 -114 c 128,-1,16
 160 -108 160 -108 160 -100 c 2,17,-1
 160 180 l 2,18,19
 160 188 160 188 154 194 c 128,-1,20
 148 200 148 200 140 200 c 128,-1,21
 132 200 132 200 126 194 c 128,-1,22
 120 188 120 188 120 180 c 2,23,-1
 120 -100 l 2,12,13
EndSplineSet
EndChar

StartChar: cent
Encoding: 162 162 163
Width: 280
GlyphClass: 1
Flags: W
VStem: 40 40<64.6315 135.369> 120 40<-58.4048 5.0564 43 157 194.944 258.405>
LayerCount: 2
Fore
SplineSet
140 260 m 128,-1,1
 148 260 148 260 154 254 c 128,-1,2
 160 248 160 248 160 240 c 2,3,-1
 160 198 l 1,4,5
 189 192 189 192 211 171 c 0,6,7
 217 165 217 165 217 156.5 c 128,-1,8
 217 148 217 148 211 142.5 c 128,-1,9
 205 137 205 137 196.5 137 c 128,-1,10
 188 137 188 137 182 142 c 0,11,12
 173 152 173 152 160 157 c 1,13,-1
 160 43 l 1,14,15
 173 48 173 48 182 58 c 0,16,17
 188 63 188 63 196.5 63 c 128,-1,18
 205 63 205 63 211 57.5 c 128,-1,19
 217 52 217 52 217 43.5 c 128,-1,20
 217 35 217 35 211 29 c 0,21,22
 189 8 189 8 160 2 c 1,23,-1
 160 -40 l 2,24,25
 160 -48 160 -48 154 -54 c 128,-1,26
 148 -60 148 -60 140 -60 c 128,-1,27
 132 -60 132 -60 126 -54 c 128,-1,28
 120 -48 120 -48 120 -40 c 2,29,-1
 120 2 l 1,30,31
 91 8 91 8 69 29 c 0,32,33
 40 58 40 58 40 100 c 128,-1,34
 40 142 40 142 69 171 c 0,35,36
 91 192 91 192 120 198 c 1,37,-1
 120 240 l 2,38,39
 120 248 120 248 126 254 c 128,-1,0
 132 260 132 260 140 260 c 128,-1,1
120 157 m 1,40,41
 107 152 107 152 98 142 c 0,42,43
 80 125 80 125 80 100 c 128,-1,44
 80 75 80 75 98 58 c 0,45,46
 107 48 107 48 120 43 c 1,47,-1
 120 157 l 1,40,41
EndSplineSet
EndChar

StartChar: sterling
Encoding: 163 163 164
Width: 280
GlyphClass: 1
Flags: W
HStem: 0 40<220 238.405> 160 40<180 198.405> 320 40<103.391 174.898>
VStem: 40 40<260 295.801>
CounterMasks: 1 e0
LayerCount: 2
Fore
SplineSet
69 330 m 0,0,1
 40 301 40 301 40 260 c 2,2,-1
 40 180 l 1,3,-1
 40 20 l 2,4,5
 40 12 40 12 46 6 c 128,-1,6
 52 0 52 0 60 0 c 2,7,-1
 220 0 l 2,8,9
 228 0 228 0 234 6 c 128,-1,10
 240 12 240 12 240 20 c 128,-1,11
 240 28 240 28 234 34 c 128,-1,12
 228 40 228 40 220 40 c 2,13,-1
 80 40 l 1,14,-1
 80 160 l 1,15,-1
 180 160 l 2,16,17
 188 160 188 160 194 166 c 128,-1,18
 200 172 200 172 200 180 c 128,-1,19
 200 188 200 188 194 194 c 128,-1,20
 188 200 188 200 180 200 c 2,21,-1
 80 200 l 1,22,-1
 80 260 l 2,23,24
 80 285 80 285 97 302 c 0,25,26
 98 302 98 302 98 302 c 2,27,28
 99 304 99 304 100 305 c 0,29,30
 107 311 107 311 116 315 c 0,31,32
 127 320 127 320 139 320 c 2,33,34
 139 320 139 320 140 320 c 0,35,36
 165 320 165 320 182 302 c 0,37,38
 192 293 192 293 204.5 298 c 128,-1,39
 217 303 217 303 217 317 c 0,40,41
 217 325 217 325 211 331 c 0,42,43
 181 360 181 360 140 360 c 0,44,45
 121 360 121 360 104 353 c 0,46,47
 84 346 84 346 69 331 c 1,48,49
 69 331 69 331 69 330 c 0,0,1
EndSplineSet
EndChar

StartChar: currency
Encoding: 164 164 165
Width: 280
GlyphClass: 1
Flags: W
HStem: 200 40<121.645 158.355> 280 40<121.645 158.355>
VStem: 80 40<241.645 278.355> 160 40<241.645 278.355>
LayerCount: 2
Fore
SplineSet
74 354 m 2,0,1
 65 364 65 364 52.5 358.5 c 128,-1,2
 40 353 40 353 40 340 c 0,3,4
 40 332 40 332 46 326 c 2,5,-1
 86 286 l 1,6,7
 80 274 80 274 80 260 c 256,8,9
 80 246 80 246 86 234 c 1,10,-1
 46 194 l 2,11,12
 36 185 36 185 41.5 172.5 c 128,-1,13
 47 160 47 160 60 160 c 0,14,15
 68 160 68 160 74 166 c 2,16,-1
 114 206 l 1,17,18
 126 200 126 200 140 200 c 128,-1,19
 154 200 154 200 166 206 c 1,20,-1
 206 166 l 2,21,22
 215 156 215 156 227.5 161.5 c 128,-1,23
 240 167 240 167 240 180 c 0,24,25
 240 188 240 188 234 194 c 2,26,-1
 194 234 l 1,27,28
 200 246 200 246 200 260 c 128,-1,29
 200 274 200 274 194 286 c 1,30,-1
 234 326 l 2,31,32
 244 335 244 335 238.5 347.5 c 128,-1,33
 233 360 233 360 220 360 c 0,34,35
 212 360 212 360 206 354 c 2,36,-1
 166 314 l 1,37,38
 154 320 154 320 140 320 c 128,-1,39
 126 320 126 320 114 314 c 1,40,-1
 74 354 l 2,0,1
160 260 m 128,-1,42
 160 252 160 252 154 246 c 128,-1,43
 148 240 148 240 140 240 c 128,-1,44
 132 240 132 240 126 246 c 128,-1,45
 120 252 120 252 120 260 c 256,46,47
 120 268 120 268 126 274 c 128,-1,48
 132 280 132 280 140 280 c 128,-1,49
 148 280 148 280 154 274 c 128,-1,41
 160 268 160 268 160 260 c 128,-1,42
EndSplineSet
EndChar

StartChar: yen
Encoding: 165 165 166
Width: 280
GlyphClass: 1
Flags: W
HStem: 80 40<41.5952 60 220 238.405> 160 40<41.5952 60 220 238.405>
VStem: 120 40<1.59521 20>
LayerCount: 2
Fore
SplineSet
60 120 m 2,0,1
 52 120 52 120 46 114 c 128,-1,2
 40 108 40 108 40 100 c 128,-1,3
 40 92 40 92 46 86 c 128,-1,4
 52 80 52 80 60 80 c 2,5,-1
 120 80 l 1,6,-1
 120 20 l 2,7,8
 120 12 120 12 126 6 c 128,-1,9
 132 0 132 0 140 0 c 128,-1,10
 148 0 148 0 154 6 c 128,-1,11
 160 12 160 12 160 20 c 2,12,-1
 160 80 l 1,13,-1
 220 80 l 2,14,15
 228 80 228 80 234 86 c 128,-1,16
 240 92 240 92 240 100 c 128,-1,17
 240 108 240 108 234 114 c 128,-1,18
 228 120 228 120 220 120 c 2,19,-1
 160 120 l 1,20,-1
 160 160 l 1,21,-1
 220 160 l 2,22,23
 228 160 228 160 234 166 c 128,-1,24
 240 172 240 172 240 180 c 128,-1,25
 240 188 240 188 234 194 c 128,-1,26
 228 200 228 200 220 200 c 2,27,-1
 172 200 l 1,28,-1
 238 331 l 2,29,30
 243 341 243 341 237 350.5 c 128,-1,31
 231 360 231 360 220 360 c 0,32,33
 208 360 208 360 202 349 c 2,34,-1
 140 225 l 1,35,-1
 78 349 l 2,36,37
 71 363 71 363 55.5 359.5 c 128,-1,38
 40 356 40 356 40 340 c 0,39,40
 40 335 40 335 42 331 c 2,41,-1
 108 200 l 1,42,-1
 60 200 l 2,43,44
 52 200 52 200 46 194 c 128,-1,45
 40 188 40 188 40 180 c 128,-1,46
 40 172 40 172 46 166 c 128,-1,47
 52 160 52 160 60 160 c 2,48,-1
 120 160 l 1,49,-1
 120 120 l 1,50,-1
 60 120 l 2,0,1
EndSplineSet
EndChar

StartChar: brokenbar
Encoding: 166 166 167
Width: 280
GlyphClass: 1
Flags: W
VStem: 120 40<-118.405 -100 60 78.4048 281.595 300 460 478.405>
LayerCount: 2
Fore
SplineSet
160 60 m 2,0,1
 160 68 160 68 154 74 c 128,-1,2
 148 80 148 80 140 80 c 128,-1,3
 132 80 132 80 126 74 c 128,-1,4
 120 68 120 68 120 60 c 2,5,-1
 120 -100 l 2,6,7
 120 -108 120 -108 126 -114 c 128,-1,8
 132 -120 132 -120 140 -120 c 128,-1,9
 148 -120 148 -120 154 -114 c 128,-1,10
 160 -108 160 -108 160 -100 c 2,11,-1
 160 60 l 2,0,1
160 460 m 2,12,13
 160 468 160 468 154 474 c 128,-1,14
 148 480 148 480 140 480 c 128,-1,15
 132 480 132 480 126 474 c 128,-1,16
 120 468 120 468 120 460 c 2,17,-1
 120 300 l 2,18,19
 120 292 120 292 126 286 c 128,-1,20
 132 280 132 280 140 280 c 128,-1,21
 148 280 148 280 154 286 c 128,-1,22
 160 292 160 292 160 300 c 2,23,-1
 160 460 l 2,12,13
EndSplineSet
EndChar

StartChar: section
Encoding: 167 167 168
Width: 280
GlyphClass: 1
Flags: W
HStem: -80 40<103.913 176.087> 80 40<104.089 176.263> 240 40<103.737 175.911> 400 40<103.913 176.087>
VStem: 40 40<-15.9106 38.4048 143.913 216.137 303.863 376.087> 200 40<-16.0867 56.1368 143.863 216.087 321.595 375.911>
LayerCount: 2
Fore
SplineSet
200 340 m 0,0,1
 200 332 200 332 206 326 c 128,-1,2
 212 320 212 320 220 320 c 128,-1,3
 228 320 228 320 234 326 c 128,-1,4
 240 332 240 332 240 340 c 0,5,6
 240 381 240 381 210.5 410.5 c 128,-1,7
 181 440 181 440 140 440 c 128,-1,8
 99 440 99 440 69.5 410.5 c 128,-1,9
 40 381 40 381 40 340 c 1,10,11
 40 290 40 290 80 260 c 1,12,13
 40 230 40 230 40 180 c 1,14,15
 40 139 40 139 69.5 109.5 c 128,-1,16
 99 80 99 80 140 80 c 1,17,18
 165 80 165 80 182.5 62.5 c 128,-1,19
 200 45 200 45 200 20 c 128,-1,20
 200 -5 200 -5 182.5 -22.5 c 128,-1,21
 165 -40 165 -40 140 -40 c 128,-1,22
 115 -40 115 -40 97.5 -22.5 c 128,-1,23
 80 -5 80 -5 80 20 c 0,24,25
 80 28 80 28 74 34 c 128,-1,26
 68 40 68 40 60 40 c 128,-1,27
 52 40 52 40 46 34 c 128,-1,28
 40 28 40 28 40 20 c 0,29,30
 40 -21 40 -21 69.5 -50.5 c 128,-1,31
 99 -80 99 -80 140 -80 c 128,-1,32
 181 -80 181 -80 210.5 -50.5 c 128,-1,33
 240 -21 240 -21 240 20 c 0,34,35
 240 70 240 70 200 100 c 1,36,37
 240 130 240 130 240 180 c 0,38,39
 240 221 240 221 210.5 250.5 c 128,-1,40
 181 280 181 280 140 280 c 0,41,42
 115 280 115 280 97.5 297.5 c 128,-1,43
 80 315 80 315 80 340 c 128,-1,44
 80 365 80 365 97.5 382.5 c 128,-1,45
 115 400 115 400 140 400 c 128,-1,46
 165 400 165 400 182.5 382.5 c 128,-1,47
 200 365 200 365 200 340 c 0,0,1
140 120 m 128,-1,49
 115 120 115 120 97.5 137.5 c 128,-1,50
 80 155 80 155 80 180 c 128,-1,51
 80 205 80 205 97.5 222.5 c 128,-1,52
 115 240 115 240 140 240 c 128,-1,53
 165 240 165 240 182.5 222.5 c 128,-1,54
 200 205 200 205 200 180 c 128,-1,55
 200 155 200 155 182.5 137.5 c 128,-1,48
 165 120 165 120 140 120 c 128,-1,49
EndSplineSet
EndChar

StartChar: dieresis
Encoding: 168 168 169
Width: 280
GlyphClass: 1
Flags: W
HStem: 280 80<81.5952 118.405 161.595 198.405>
VStem: 80 40<281.595 300 340 358.405> 160 40<281.595 300 340 358.405>
LayerCount: 2
Fore
SplineSet
120 340 m 2,0,1
 120 348 120 348 114 354 c 128,-1,2
 108 360 108 360 100 360 c 128,-1,3
 92 360 92 360 86 354 c 128,-1,4
 80 348 80 348 80 340 c 2,5,-1
 80 300 l 2,6,7
 80 292 80 292 86 286 c 128,-1,8
 92 280 92 280 100 280 c 128,-1,9
 108 280 108 280 114 286 c 128,-1,10
 120 292 120 292 120 300 c 2,11,-1
 120 340 l 2,0,1
200 340 m 2,12,13
 200 348 200 348 194 354 c 128,-1,14
 188 360 188 360 180 360 c 128,-1,15
 172 360 172 360 166 354 c 128,-1,16
 160 348 160 348 160 340 c 2,17,-1
 160 300 l 2,18,19
 160 292 160 292 166 286 c 128,-1,20
 172 280 172 280 180 280 c 128,-1,21
 188 280 188 280 194 286 c 128,-1,22
 200 292 200 292 200 300 c 2,23,-1
 200 340 l 2,12,13
EndSplineSet
EndChar

StartChar: copyright
Encoding: 169 169 170
Width: 280
GlyphClass: 1
Flags: W
HStem: 40 40<92.3461 187.654> 120 40<121.68 171.562> 200 40<124.297 171.562> 280 40<92.3461 187.654>
VStem: 0 40<132.346 227.654> 80 40<161.695 195.827> 240 40<132.346 227.654>
LayerCount: 2
Fore
SplineSet
140 200 m 128,-1,1
 147 200 147 200 154 194 c 128,-1,2
 161 188 161 188 168 188 c 0,3,4
 182 188 182 188 187 200.5 c 128,-1,5
 192 213 192 213 182 222 c 0,6,7
 165 240 165 240 140 240 c 128,-1,8
 115 240 115 240 98 222 c 0,9,10
 80 202 80 202 80 179 c 128,-1,11
 80 156 80 156 97 138 c 128,-1,12
 114 120 114 120 140 120 c 0,13,14
 165 120 165 120 182 138 c 0,15,16
 192 147 192 147 187 159.5 c 128,-1,17
 182 172 182 172 168 172 c 0,18,19
 161 172 161 172 154 166 c 128,-1,20
 147 160 147 160 140 160 c 0,21,22
 132 160 132 160 126 166 c 128,-1,23
 120 172 120 172 120 180 c 0,24,25
 120 187 120 187 126 194 c 0,26,0
 133 200 133 200 140 200 c 128,-1,1
140 80 m 128,-1,28
 99 80 99 80 69.5 109.5 c 128,-1,29
 40 139 40 139 40 180 c 128,-1,30
 40 221 40 221 69.5 250.5 c 128,-1,31
 99 280 99 280 140 280 c 128,-1,32
 181 280 181 280 210.5 250.5 c 128,-1,33
 240 221 240 221 240 180 c 128,-1,34
 240 139 240 139 210.5 109.5 c 128,-1,27
 181 80 181 80 140 80 c 128,-1,28
140 40 m 128,-1,36
 198 40 198 40 239 81 c 128,-1,37
 280 122 280 122 280 180 c 128,-1,38
 280 238 280 238 239 279 c 128,-1,39
 198 320 198 320 140 320 c 128,-1,40
 82 320 82 320 41 279 c 128,-1,41
 0 238 0 238 0 180 c 128,-1,42
 0 122 0 122 41 81 c 128,-1,35
 82 40 82 40 140 40 c 128,-1,36
EndSplineSet
EndChar

StartChar: ordfeminine
Encoding: 170 170 171
Width: 280
GlyphClass: 1
Flags: W
HStem: 160 40<81.6132 100 180 198.387> 240 40<81.6132 100 180 198.125> 320 40<81.5952 100 180 198.387>
VStem: 40 40<201.604 238.396> 200 40<201.613 238.405 300 318.387>
CounterMasks: 1 e0
LayerCount: 2
Fore
SplineSet
100 360 m 2,0,1
 92 360 92 360 86 354 c 128,-1,2
 80 348 80 348 80 340 c 128,-1,3
 80 332 80 332 86 326 c 128,-1,4
 92 320 92 320 100 320 c 2,5,-1
 180 320 l 2,6,7
 188 320 188 320 194 314 c 128,-1,8
 200 308 200 308 200 300 c 2,9,-1
 200 277 l 1,10,11
 190 280 190 280 180 280 c 2,12,-1
 100 280 l 2,13,14
 75 280 75 280 57.5 262.5 c 128,-1,15
 40 245 40 245 40 220 c 128,-1,16
 40 195 40 195 57.5 177.5 c 128,-1,17
 75 160 75 160 100 160 c 2,18,-1
 180 160 l 2,19,20
 205 160 205 160 222.5 177.5 c 128,-1,21
 240 195 240 195 240 220 c 2,22,-1
 240 300 l 2,23,24
 240 325 240 325 222.5 342.5 c 128,-1,25
 205 360 205 360 180 360 c 2,26,-1
 100 360 l 2,0,1
180 200 m 2,27,-1
 100 200 l 2,28,29
 92 200 92 200 86 206 c 128,-1,30
 80 212 80 212 80 220 c 128,-1,31
 80 228 80 228 86 234 c 128,-1,32
 92 240 92 240 100 240 c 2,33,-1
 180 240 l 2,34,35
 188 240 188 240 194 234 c 128,-1,36
 200 228 200 228 200 220 c 128,-1,37
 200 212 200 212 194 206 c 128,-1,38
 188 200 188 200 180 200 c 2,27,-1
EndSplineSet
EndChar

StartChar: guillemotleft
Encoding: 171 171 172
Width: 280
GlyphClass: 1
Flags: W
LayerCount: 2
Fore
SplineSet
294 326 m 2,0,1
 304 335 304 335 298.5 347.5 c 128,-1,2
 293 360 293 360 280 360 c 0,3,4
 272 360 272 360 266 354 c 2,5,-1
 106 194 l 2,6,7
 100 188 100 188 100 180 c 128,-1,8
 100 172 100 172 106 166 c 2,9,-1
 266 6 l 2,10,11
 275 -4 275 -4 287.5 1.5 c 128,-1,12
 300 7 300 7 300 20 c 0,13,14
 300 28 300 28 294 34 c 2,15,-1
 148 180 l 1,16,-1
 294 326 l 2,0,1
174 326 m 2,17,18
 184 335 184 335 178.5 347.5 c 128,-1,19
 173 360 173 360 160 360 c 0,20,21
 152 360 152 360 146 354 c 2,22,-1
 -14 194 l 2,23,24
 -20 188 -20 188 -20 180 c 128,-1,25
 -20 172 -20 172 -14 166 c 2,26,-1
 146 6 l 2,27,28
 155 -4 155 -4 167.5 1.5 c 128,-1,29
 180 7 180 7 180 20 c 0,30,31
 180 28 180 28 174 34 c 2,32,-1
 28 180 l 1,33,-1
 174 326 l 2,17,18
EndSplineSet
EndChar

StartChar: logicalnot
Encoding: 172 172 173
Width: 280
GlyphClass: 1
Flags: W
HStem: 320 40<-18.4048 0>
VStem: 120 40<1.59521 20>
LayerCount: 2
Fore
SplineSet
0 360 m 2,0,1
 -8 360 -8 360 -14 354 c 128,-1,2
 -20 348 -20 348 -20 340 c 128,-1,3
 -20 332 -20 332 -14 326 c 128,-1,4
 -8 320 -8 320 0 320 c 2,5,-1
 120 320 l 1,6,-1
 120 20 l 2,7,8
 120 12 120 12 126 6 c 128,-1,9
 132 0 132 0 140 0 c 128,-1,10
 148 0 148 0 154 6 c 128,-1,11
 160 12 160 12 160 20 c 2,12,-1
 160 340 l 2,13,14
 160 348 160 348 154 354 c 128,-1,15
 148 360 148 360 140 360 c 2,16,-1
 0 360 l 2,0,1
EndSplineSet
EndChar

StartChar: uni00AD
Encoding: 173 173 174
Width: 280
GlyphClass: 1
Flags: W
HStem: 160 40<41.5952 60 220 238.405>
LayerCount: 2
Fore
SplineSet
60 200 m 2,0,1
 52 200 52 200 46 194 c 128,-1,2
 40 188 40 188 40 180 c 128,-1,3
 40 172 40 172 46 166 c 128,-1,4
 52 160 52 160 60 160 c 2,5,-1
 220 160 l 2,6,7
 228 160 228 160 234 166 c 128,-1,8
 240 172 240 172 240 180 c 128,-1,9
 240 188 240 188 234 194 c 128,-1,10
 228 200 228 200 220 200 c 2,11,-1
 60 200 l 2,0,1
EndSplineSet
EndChar

StartChar: registered
Encoding: 174 174 175
Width: 280
GlyphClass: 1
Flags: W
HStem: 0 40<92.3461 187.654> 160 40<140 158.405> 240 40<140 158.387> 320 40<92.3461 187.654>
VStem: 0 40<92.5039 140 220 267.496> 80 40<81.5952 100> 160 40<81.5952 100 140 158.338 201.628 238.396> 240 40<92.5039 140 220 267.496>
LayerCount: 2
Fore
SplineSet
120 200 m 1,0,-1
 120 240 l 1,1,-1
 140 240 l 2,2,3
 148 240 148 240 154 234 c 128,-1,4
 160 228 160 228 160 220 c 128,-1,5
 160 212 160 212 154 206 c 128,-1,6
 148 200 148 200 140 200 c 2,7,-1
 120 200 l 1,0,-1
240 140 m 2,8,9
 240 99 240 99 210.5 69.5 c 128,-1,10
 181 40 181 40 140 40 c 128,-1,11
 99 40 99 40 69.5 69.5 c 128,-1,12
 40 99 40 99 40 140 c 2,13,-1
 40 220 l 2,14,15
 40 261 40 261 69.5 290.5 c 128,-1,16
 99 320 99 320 140 320 c 128,-1,17
 181 320 181 320 210.5 290.5 c 128,-1,18
 240 261 240 261 240 220 c 2,19,-1
 240 140 l 2,8,9
280 140 m 2,20,-1
 280 220 l 2,21,22
 280 278 280 278 239 319 c 128,-1,23
 198 360 198 360 140 360 c 128,-1,24
 82 360 82 360 41 319 c 128,-1,25
 0 278 0 278 0 220 c 2,26,-1
 0 140 l 2,27,28
 0 82 0 82 41 41 c 128,-1,29
 82 0 82 0 140 0 c 128,-1,30
 198 0 198 0 239 41 c 128,-1,31
 280 82 280 82 280 140 c 2,20,-1
120 140 m 1,32,-1
 120 160 l 1,33,-1
 140 160 l 2,34,35
 148 160 148 160 154 154 c 128,-1,36
 160 148 160 148 160 140 c 2,37,-1
 160 100 l 2,38,39
 160 92 160 92 166 86 c 128,-1,40
 172 80 172 80 180 80 c 128,-1,41
 188 80 188 80 194 86 c 128,-1,42
 200 92 200 92 200 100 c 2,43,-1
 200 140 l 2,44,45
 200 163 200 163 185 180 c 1,46,47
 200 197 200 197 200 220 c 0,48,49
 200 245 200 245 182.5 262.5 c 128,-1,50
 165 280 165 280 140 280 c 2,51,-1
 100 280 l 2,52,53
 92 280 92 280 86 274 c 128,-1,54
 80 268 80 268 80 260 c 2,55,-1
 80 180 l 1,56,-1
 80 140 l 1,57,-1
 80 100 l 2,58,59
 80 92 80 92 86 86 c 128,-1,60
 92 80 92 80 100 80 c 128,-1,61
 108 80 108 80 114 86 c 128,-1,62
 120 92 120 92 120 100 c 2,63,-1
 120 140 l 1,32,-1
EndSplineSet
EndChar

StartChar: macron
Encoding: 175 175 176
Width: 280
GlyphClass: 1
Flags: W
HStem: 440 40<-18.4048 0 280 298.405>
LayerCount: 2
Fore
SplineSet
0 480 m 2,0,1
 -8 480 -8 480 -14 474 c 128,-1,2
 -20 468 -20 468 -20 460 c 128,-1,3
 -20 452 -20 452 -14 446 c 128,-1,4
 -8 440 -8 440 0 440 c 2,5,-1
 280 440 l 2,6,7
 288 440 288 440 294 446 c 128,-1,8
 300 452 300 452 300 460 c 128,-1,9
 300 468 300 468 294 474 c 128,-1,10
 288 480 288 480 280 480 c 2,11,-1
 0 480 l 2,0,1
EndSplineSet
EndChar

StartChar: degree
Encoding: 176 176 177
Width: 280
GlyphClass: 1
Flags: W
HStem: 160 40<103.846 176.156> 320.002 40<103.846 176.156>
VStem: 40.001 40<223.845 296.157> 200 40<223.845 296.157>
LayerCount: 2
Fore
SplineSet
200 260.000976562 m 128,-1,1
 200 235.163649767 200 235.163649767 182.418372732 217.581824883 c 128,-1,2
 164.836745464 200 164.836745464 200 140.001953125 200 c 128,-1,3
 115.164626323 200 115.164626323 200 97.5828014427 217.581627267 c 128,-1,4
 80.0009765625 235.163254535 80.0009765625 235.163254535 80.0009765625 260.000976562 c 128,-1,5
 80.0009765625 284.838134766 80.0009765625 284.838134766 97.5828857422 302.420043945 c 128,-1,6
 115.164794922 320.001953125 115.164794922 320.001953125 140.001953125 320.001953125 c 128,-1,7
 164.836745464 320.001953125 164.836745464 320.001953125 182.418372732 302.420128242 c 128,-1,0
 200 284.838303358 200 284.838303358 200 260.000976562 c 128,-1,1
240 260.000976562 m 128,-1,9
 240 301.395205632 240 301.395205632 210.697416714 330.698579379 c 128,-1,10
 181.394833429 360.001953125 181.394833429 360.001953125 140.001953125 360.001953125 c 128,-1,11
 98.6076660156 360.001953125 98.6076660156 360.001953125 69.3043212891 330.698608398 c 128,-1,12
 40.0009765625 301.395263672 40.0009765625 301.395263672 40.0009765625 260.000976562 c 128,-1,13
 40.0009765625 218.606125627 40.0009765625 218.606125627 69.3042369905 189.303062814 c 128,-1,14
 98.6074974186 160 98.6074974186 160 140.001953125 160 c 128,-1,15
 181.394833429 160 181.394833429 160 210.697416714 189.303373746 c 128,-1,8
 240 218.606747493 240 218.606747493 240 260.000976562 c 128,-1,9
EndSplineSet
EndChar

StartChar: plusminus
Encoding: 177 177 178
Width: 280
GlyphClass: 1
Flags: W
HStem: -120 40<-18.4048 0 280 298.405> 160 40<-18.4048 0 280 298.405>
VStem: 120 40<21.5952 40 320 338.405>
LayerCount: 2
Fore
SplineSet
0 -80 m 2,0,1
 -8 -80 -8 -80 -14 -86 c 128,-1,2
 -20 -92 -20 -92 -20 -100 c 128,-1,3
 -20 -108 -20 -108 -14 -114 c 128,-1,4
 -8 -120 -8 -120 0 -120 c 2,5,-1
 280 -120 l 2,6,7
 288 -120 288 -120 294 -114 c 128,-1,8
 300 -108 300 -108 300 -100 c 128,-1,9
 300 -92 300 -92 294 -86 c 128,-1,10
 288 -80 288 -80 280 -80 c 2,11,-1
 0 -80 l 2,0,1
0 200 m 2,12,13
 -8 200 -8 200 -14 194 c 128,-1,14
 -20 188 -20 188 -20 180 c 128,-1,15
 -20 172 -20 172 -14 166 c 128,-1,16
 -8 160 -8 160 0 160 c 2,17,-1
 120 160 l 1,18,-1
 120 40 l 2,19,20
 120 32 120 32 126 26 c 128,-1,21
 132 20 132 20 140 20 c 128,-1,22
 148 20 148 20 154 26 c 128,-1,23
 160 32 160 32 160 40 c 2,24,-1
 160 160 l 1,25,-1
 280 160 l 2,26,27
 288 160 288 160 294 166 c 128,-1,28
 300 172 300 172 300 180 c 128,-1,29
 300 188 300 188 294 194 c 128,-1,30
 288 200 288 200 280 200 c 2,31,-1
 160 200 l 1,32,-1
 160 320 l 2,33,34
 160 328 160 328 154 334 c 128,-1,35
 148 340 148 340 140 340 c 128,-1,36
 132 340 132 340 126 334 c 128,-1,37
 120 328 120 328 120 320 c 2,38,-1
 120 200 l 1,39,-1
 0 200 l 2,12,13
EndSplineSet
EndChar

StartChar: uni00B2
Encoding: 178 178 179
Width: 280
GlyphClass: 1
Flags: W
HStem: 160 40<180 198.405> 320 40<121.604 158.396>
VStem: 80 40<281.595 318.387> 160 40<276.688 297 300 318.387>
LayerCount: 2
Fore
SplineSet
180 160 m 2,0,1
 188 160 188 160 194 166 c 128,-1,2
 200 172 200 172 200 180 c 128,-1,3
 200 188 200 188 194 194 c 128,-1,4
 188 200 188 200 180 200 c 2,5,-1
 128 200 l 1,6,-1
 182 254 l 2,7,8
 200 272 200 272 200 297 c 2,9,10
 200 297 200 297 200 298 c 128,-1,11
 200 299 200 299 200 300 c 0,12,13
 200 325 200 325 182.5 342.5 c 128,-1,14
 165 360 165 360 140 360 c 128,-1,15
 115 360 115 360 97.5 342.5 c 128,-1,16
 80 325 80 325 80 300 c 0,17,18
 80 292 80 292 86 286 c 128,-1,19
 92 280 92 280 100 280 c 128,-1,20
 108 280 108 280 114 286 c 128,-1,21
 120 292 120 292 120 300 c 128,-1,22
 120 308 120 308 126 314 c 128,-1,23
 132 320 132 320 140 320 c 128,-1,24
 148 320 148 320 154 314 c 128,-1,25
 160 308 160 308 160 300 c 0,26,27
 160 299 160 299 160 298 c 128,-1,28
 160 297 160 297 160 297 c 2,29,30
 160 290 160 290 154 282 c 2,31,-1
 86 214 l 2,32,33
 80 208 80 208 80 200 c 2,34,-1
 80 180 l 2,35,36
 80 172 80 172 86 166 c 128,-1,37
 92 160 92 160 100 160 c 2,38,-1
 180 160 l 2,0,1
EndSplineSet
EndChar

StartChar: uni00B3
Encoding: 179 179 180
Width: 280
GlyphClass: 1
Flags: W
HStem: 160 40<121.604 158.396> 240 40<121.595 158.405> 320 40<121.604 158.396>
VStem: 80 40<201.613 238.405 281.595 318.387> 160 40<201.604 238.372 281.628 318.396>
CounterMasks: 1 e0
LayerCount: 2
Fore
SplineSet
200 220 m 0,0,1
 200 243 200 243 185 260 c 1,2,3
 200 277 200 277 200 300 c 0,4,5
 200 325 200 325 182.5 342.5 c 128,-1,6
 165 360 165 360 140 360 c 128,-1,7
 115 360 115 360 97.5 342.5 c 128,-1,8
 80 325 80 325 80 300 c 0,9,10
 80 292 80 292 86 286 c 128,-1,11
 92 280 92 280 100 280 c 128,-1,12
 108 280 108 280 114 286 c 128,-1,13
 120 292 120 292 120 300 c 256,14,15
 120 308 120 308 126 314 c 128,-1,16
 132 320 132 320 140 320 c 128,-1,17
 148 320 148 320 154 314 c 128,-1,18
 160 308 160 308 160 300 c 128,-1,19
 160 292 160 292 154 286 c 128,-1,20
 148 280 148 280 140 280 c 128,-1,21
 132 280 132 280 126 274 c 128,-1,22
 120 268 120 268 120 260 c 128,-1,23
 120 252 120 252 126 246 c 128,-1,24
 132 240 132 240 140 240 c 128,-1,25
 148 240 148 240 154 234 c 128,-1,26
 160 228 160 228 160 220 c 128,-1,27
 160 212 160 212 154 206 c 128,-1,28
 148 200 148 200 140 200 c 128,-1,29
 132 200 132 200 126 206 c 128,-1,30
 120 212 120 212 120 220 c 128,-1,31
 120 228 120 228 114 234 c 128,-1,32
 108 240 108 240 100 240 c 128,-1,33
 92 240 92 240 86 234 c 128,-1,34
 80 228 80 228 80 220 c 0,35,36
 80 195 80 195 97.5 177.5 c 128,-1,37
 115 160 115 160 140 160 c 128,-1,38
 165 160 165 160 182.5 177.5 c 128,-1,39
 200 195 200 195 200 220 c 0,0,1
EndSplineSet
EndChar

StartChar: acute
Encoding: 180 180 181
Width: 280
GlyphClass: 1
Flags: W
HStem: 240 120
LayerCount: 2
Fore
SplineSet
86 274 m 2,0,1
 76 265 76 265 81.5 252.5 c 128,-1,2
 87 240 87 240 100 240 c 0,3,4
 108 240 108 240 114 246 c 2,5,-1
 194 326 l 2,6,7
 204 335 204 335 198.5 347.5 c 128,-1,8
 193 360 193 360 180 360 c 0,9,10
 172 360 172 360 166 354 c 2,11,-1
 86 274 l 2,0,1
EndSplineSet
EndChar

StartChar: mu
Encoding: 181 181 182
Width: 280
GlyphClass: 1
Flags: W
HStem: 0 40<103.793 176.087>
VStem: 40 40<-78.4048 -60 63.7372 100 180 198.405> 200 40<64.0894 100 180 198.405>
LayerCount: 2
Fore
SplineSet
60 200 m 128,-1,1
 52 200 52 200 46 194 c 128,-1,2
 40 188 40 188 40 180 c 2,3,-1
 40 100 l 1,4,-1
 40 -60 l 2,5,6
 40 -68 40 -68 46 -74 c 128,-1,7
 52 -80 52 -80 60 -80 c 128,-1,8
 68 -80 68 -80 74 -74 c 128,-1,9
 80 -68 80 -68 80 -60 c 2,10,-1
 80 20 l 1,11,12
 107 0 107 0 140 0 c 0,13,14
 181 0 181 0 210.5 29.5 c 128,-1,15
 240 59 240 59 240 100 c 2,16,-1
 240 180 l 2,17,18
 240 188 240 188 234 194 c 128,-1,19
 228 200 228 200 220 200 c 128,-1,20
 212 200 212 200 206 194 c 128,-1,21
 200 188 200 188 200 180 c 2,22,-1
 200 100 l 2,23,24
 200 75 200 75 182.5 57.5 c 128,-1,25
 165 40 165 40 140 40 c 128,-1,26
 115 40 115 40 97.5 57.5 c 128,-1,27
 80 75 80 75 80 100 c 2,28,-1
 80 180 l 2,29,30
 80 188 80 188 74 194 c 128,-1,0
 68 200 68 200 60 200 c 128,-1,1
EndSplineSet
EndChar

StartChar: paragraph
Encoding: 182 182 183
Width: 280
GlyphClass: 1
Flags: W
VStem: 40 120<211.709 307.812> 120 40<1.59521 20 162 165.012> 200 40<1.59521 20>
LayerCount: 2
Fore
SplineSet
160 320 m 1,0,-1
 200 320 l 1,1,-1
 200 20 l 2,2,3
 200 12 200 12 206 6 c 128,-1,4
 212 0 212 0 220 0 c 128,-1,5
 228 0 228 0 234 6 c 128,-1,6
 240 12 240 12 240 20 c 2,7,-1
 240 340 l 2,8,9
 240 348 240 348 234 354 c 128,-1,10
 228 360 228 360 220 360 c 2,11,-1
 140 360 l 2,12,13
 99 360 99 360 69.5 330.5 c 128,-1,14
 40 301 40 301 40 260 c 0,15,16
 40 224 40 224 62.5 196.5 c 128,-1,17
 85 169 85 169 120 162 c 1,18,-1
 120 20 l 2,19,20
 120 12 120 12 126 6 c 128,-1,21
 132 0 132 0 140 0 c 128,-1,22
 148 0 148 0 154 6 c 128,-1,23
 160 12 160 12 160 20 c 2,24,-1
 160 180 l 1,25,-1
 160 320 l 1,0,-1
EndSplineSet
EndChar

StartChar: periodcentered
Encoding: 183 183 184
Width: 280
GlyphClass: 1
Flags: W
HStem: 120 80<121.595 158.405>
VStem: 120 40<121.595 140 180 198.405>
LayerCount: 2
Fore
SplineSet
160 180 m 2,0,1
 160 188 160 188 154 194 c 128,-1,2
 148 200 148 200 140 200 c 128,-1,3
 132 200 132 200 126 194 c 128,-1,4
 120 188 120 188 120 180 c 2,5,-1
 120 140 l 2,6,7
 120 132 120 132 126 126 c 128,-1,8
 132 120 132 120 140 120 c 128,-1,9
 148 120 148 120 154 126 c 128,-1,10
 160 132 160 132 160 140 c 2,11,-1
 160 180 l 2,0,1
EndSplineSet
EndChar

StartChar: cedilla
Encoding: 184 184 185
Width: 280
GlyphClass: 1
Flags: W
HStem: -80 40<121.595 158.387> 0 40<121.595 158.387>
VStem: 160 40<-38.3958 -1.60419>
LayerCount: 2
Fore
SplineSet
140 -40 m 256,0,1
 132 -40 132 -40 126 -46 c 128,-1,2
 120 -52 120 -52 120 -60 c 128,-1,3
 120 -68 120 -68 126 -74 c 128,-1,4
 132 -80 132 -80 140 -80 c 0,5,6
 165 -80 165 -80 182.5 -62.5 c 128,-1,7
 200 -45 200 -45 200 -20 c 128,-1,8
 200 5 200 5 182.5 22.5 c 128,-1,9
 165 40 165 40 140 40 c 0,10,11
 132 40 132 40 126 34 c 128,-1,12
 120 28 120 28 120 20 c 128,-1,13
 120 12 120 12 126 6 c 128,-1,14
 132 0 132 0 140 0 c 128,-1,15
 148 0 148 0 154 -6 c 128,-1,16
 160 -12 160 -12 160 -20 c 128,-1,17
 160 -28 160 -28 154 -34 c 128,-1,18
 148 -40 148 -40 140 -40 c 256,0,1
EndSplineSet
EndChar

StartChar: uni00B9
Encoding: 185 185 186
Width: 280
GlyphClass: 1
Flags: W
VStem: 160 40<161.595 180>
LayerCount: 2
Fore
SplineSet
86 274 m 2,0,1
 76 265 76 265 81.5 252.5 c 128,-1,2
 87 240 87 240 100 240 c 0,3,4
 108 240 108 240 114 246 c 2,5,-1
 160 292 l 1,6,-1
 160 180 l 2,7,8
 160 172 160 172 166 166 c 128,-1,9
 172 160 172 160 180 160 c 128,-1,10
 188 160 188 160 194 166 c 128,-1,11
 200 172 200 172 200 180 c 2,12,-1
 200 340 l 2,13,14
 200 349 200 349 194 354 c 0,15,16
 188 360 188 360 180 360 c 128,-1,17
 172 360 172 360 166 354 c 2,18,-1
 86 274 l 2,0,1
EndSplineSet
EndChar

StartChar: ordmasculine
Encoding: 186 186 187
Width: 280
GlyphClass: 1
Flags: W
HStem: 160 40<-13.9549 0.000976562 280 298.405> 280.001 40<104.048 175.955> 440.004 40<103.922 176.082>
VStem: 40.0049 40<344.047 415.955> 200.004 40<343.921 416.082>
LayerCount: 2
Fore
SplineSet
0.0009765625 200 m 6,0,1
 -8.27734375 200 -8.27734375 200 -14.138671875 194.139648438 c 132,-1,2
 -19.9990234375 188.278320312 -19.9990234375 188.278320312 -19.9990234375 180 c 132,-1,3
 -19.9990234375 171.721679688 -19.9990234375 171.721679688 -14.138671875 165.860351562 c 132,-1,4
 -8.27734375 160 -8.27734375 160 0.0009765625 160 c 6,5,-1
 280 160 l 6,6,7
 288 160 288 160 294 166 c 132,-1,8
 300 172 300 172 300 180 c 132,-1,9
 300 188 300 188 294 194 c 132,-1,10
 288 200 288 200 280 200 c 6,11,-1
 0.0009765625 200 l 6,0,1
200.00390625 380.002929688 m 132,-1,13
 200 355 200 355 182.421875 337.583007812 c 132,-1,14
 165 320 165 320 140.001953125 320.000976562 c 132,-1,15
 115 320 115 320 97.5859375 337.583007812 c 132,-1,16
 80 355 80 355 80.0048828125 380.002929688 c 132,-1,17
 80 405 80 405 97.5869140625 422.419921875 c 132,-1,18
 115 440 115 440 140.00390625 440.00390625 c 132,-1,19
 165 440 165 440 182.421875 422.420898438 c 132,-1,12
 200 405 200 405 200.00390625 380.002929688 c 132,-1,13
240.00390625 380.002929688 m 132,-1,21
 240 421 240 421 210.69921875 450.69921875 c 4,22,23
 181 480 181 480 140.000976562 480.00390625 c 132,-1,24
 99 480 99 480 69.306640625 450.697265625 c 4,25,26
 40 421 40 421 40.0048828125 380.002929688 c 132,-1,27
 40 339 40 339 69.3076171875 309.3046875 c 4,28,29
 99 280 99 280 140.001953125 280.000976562 c 132,-1,30
 181 280 181 280 210.700195312 309.3046875 c 4,31,20
 240 339 240 339 240.00390625 380.002929688 c 132,-1,21
EndSplineSet
EndChar

StartChar: guillemotright
Encoding: 187 187 188
Width: 280
GlyphClass: 1
Flags: W
LayerCount: 2
Fore
SplineSet
14 354 m 2,0,1
 5 364 5 364 -7.5 358.5 c 128,-1,2
 -20 353 -20 353 -20 340 c 0,3,4
 -20 332 -20 332 -14 326 c 2,5,-1
 132 180 l 1,6,-1
 -14 34 l 2,7,8
 -24 25 -24 25 -18.5 12.5 c 128,-1,9
 -13 0 -13 0 0 0 c 0,10,11
 8 0 8 0 14 6 c 2,12,-1
 174 166 l 2,13,14
 180 172 180 172 180 180 c 128,-1,15
 180 188 180 188 174 194 c 2,16,-1
 14 354 l 2,0,1
134 354 m 2,17,18
 125 364 125 364 112.5 358.5 c 128,-1,19
 100 353 100 353 100 340 c 0,20,21
 100 332 100 332 106 326 c 2,22,-1
 252 180 l 1,23,-1
 106 34 l 2,24,25
 96 25 96 25 101.5 12.5 c 128,-1,26
 107 0 107 0 120 0 c 0,27,28
 128 0 128 0 134 6 c 2,29,-1
 294 166 l 2,30,31
 300 172 300 172 300 180 c 128,-1,32
 300 188 300 188 294 194 c 2,33,-1
 134 354 l 2,17,18
EndSplineSet
EndChar

StartChar: onequarter
Encoding: 188 188 189
Width: 280
GlyphClass: 1
Flags: W
VStem: 40 40<161.595 180> 240 40<-38.4048 -20>
LayerCount: 2
Fore
SplineSet
240 40 m 1,0,-1
 240 -20 l 2,1,2
 240 -28 240 -28 246 -34 c 128,-1,3
 252 -40 252 -40 260 -40 c 128,-1,4
 268 -40 268 -40 274 -34 c 128,-1,5
 280 -28 280 -28 280 -20 c 2,6,-1
 280 60 l 2,7,8
 280 68 280 68 274 74 c 128,-1,9
 268 80 268 80 260 80 c 2,10,-1
 212 80 l 1,11,-1
 238 131 l 2,12,13
 243 141 243 141 237 150.5 c 128,-1,14
 231 160 231 160 220 160 c 0,15,16
 207 160 207 160 202 149 c 2,17,-1
 162 69 l 2,18,19
 159 63 159 63 160 57 c 0,20,21
 161 49 161 49 167 45 c 0,22,23
 173 40 173 40 180 40 c 2,24,-1
 240 40 l 1,0,-1
-34 274 m 2,25,26
 -44 265 -44 265 -38.5 252.5 c 128,-1,27
 -33 240 -33 240 -20 240 c 0,28,29
 -12 240 -12 240 -6 246 c 2,30,-1
 40 292 l 1,31,-1
 40 180 l 2,32,33
 40 172 40 172 46 166 c 128,-1,34
 52 160 52 160 60 160 c 128,-1,35
 68 160 68 160 74 166 c 128,-1,36
 80 172 80 172 80 180 c 2,37,-1
 80 340 l 2,38,39
 80 349 80 349 74 354 c 0,40,41
 68 360 68 360 60 360 c 128,-1,42
 52 360 52 360 46 354 c 2,43,-1
 -34 274 l 2,25,26
298 451 m 2,44,45
 303 461 303 461 297 470.5 c 128,-1,46
 291 480 291 480 280 480 c 0,47,48
 268 480 268 480 262 469 c 2,49,-1
 -18 -91 l 2,50,51
 -23 -101 -23 -101 -17 -110.5 c 128,-1,52
 -11 -120 -11 -120 0 -120 c 0,53,54
 12 -120 12 -120 18 -109 c 2,55,-1
 298 451 l 2,44,45
EndSplineSet
EndChar

StartChar: onehalf
Encoding: 189 189 190
Width: 280
GlyphClass: 1
Flags: W
HStem: -40 40<260 278.405> 120 40<201.604 238.396>
VStem: 40 40<161.595 180> 160 40<81.5952 118.387> 240 40<76.6875 97 100 118.387>
LayerCount: 2
Fore
SplineSet
260 -40 m 2,0,1
 268 -40 268 -40 274 -34 c 128,-1,2
 280 -28 280 -28 280 -20 c 128,-1,3
 280 -12 280 -12 274 -6 c 128,-1,4
 268 0 268 0 260 0 c 2,5,-1
 208 0 l 1,6,-1
 262 54 l 2,7,8
 280 72 280 72 280 97 c 2,9,10
 280 97 280 97 280 98 c 128,-1,11
 280 99 280 99 280 100 c 0,12,13
 280 125 280 125 262.5 142.5 c 128,-1,14
 245 160 245 160 220 160 c 128,-1,15
 195 160 195 160 177.5 142.5 c 128,-1,16
 160 125 160 125 160 100 c 0,17,18
 160 92 160 92 166 86 c 128,-1,19
 172 80 172 80 180 80 c 128,-1,20
 188 80 188 80 194 86 c 128,-1,21
 200 92 200 92 200 100 c 128,-1,22
 200 108 200 108 206 114 c 128,-1,23
 212 120 212 120 220 120 c 128,-1,24
 228 120 228 120 234 114 c 128,-1,25
 240 108 240 108 240 100 c 0,26,27
 240 99 240 99 240 98 c 128,-1,28
 240 97 240 97 240 97 c 2,29,30
 240 90 240 90 234 82 c 2,31,-1
 166 14 l 2,32,33
 160 8 160 8 160 0 c 2,34,-1
 160 -20 l 2,35,36
 160 -28 160 -28 166 -34 c 128,-1,37
 172 -40 172 -40 180 -40 c 2,38,-1
 260 -40 l 2,0,1
-34 274 m 2,39,40
 -44 265 -44 265 -38.5 252.5 c 128,-1,41
 -33 240 -33 240 -20 240 c 0,42,43
 -12 240 -12 240 -6 246 c 2,44,-1
 40 292 l 1,45,-1
 40 180 l 2,46,47
 40 172 40 172 46 166 c 128,-1,48
 52 160 52 160 60 160 c 128,-1,49
 68 160 68 160 74 166 c 128,-1,50
 80 172 80 172 80 180 c 2,51,-1
 80 340 l 2,52,53
 80 349 80 349 74 354 c 0,54,55
 68 360 68 360 60 360 c 128,-1,56
 52 360 52 360 46 354 c 2,57,-1
 -34 274 l 2,39,40
298 451 m 2,58,59
 303 461 303 461 297 470.5 c 128,-1,60
 291 480 291 480 280 480 c 0,61,62
 268 480 268 480 262 469 c 2,63,-1
 -18 -91 l 2,64,65
 -23 -101 -23 -101 -17 -110.5 c 128,-1,66
 -11 -120 -11 -120 0 -120 c 0,67,68
 12 -120 12 -120 18 -109 c 2,69,-1
 298 451 l 2,58,59
EndSplineSet
EndChar

StartChar: threequarters
Encoding: 190 190 191
Width: 280
GlyphClass: 1
Flags: W
HStem: 160 40<41.6042 78.3958> 240 40<41.5952 78.4048> 320 40<41.6042 78.3958>
VStem: 0 40<201.613 238.405 281.595 318.387> 80 40<201.604 238.372 281.628 318.396> 240 40<-38.4048 -20>
CounterMasks: 1 e0
LayerCount: 2
Fore
SplineSet
240 40 m 1,0,-1
 240 -20 l 2,1,2
 240 -28 240 -28 246 -34 c 128,-1,3
 252 -40 252 -40 260 -40 c 128,-1,4
 268 -40 268 -40 274 -34 c 128,-1,5
 280 -28 280 -28 280 -20 c 2,6,-1
 280 60 l 2,7,8
 280 68 280 68 274 74 c 128,-1,9
 268 80 268 80 260 80 c 2,10,-1
 212 80 l 1,11,-1
 238 131 l 2,12,13
 243 141 243 141 237 150.5 c 128,-1,14
 231 160 231 160 220 160 c 0,15,16
 207 160 207 160 202 149 c 2,17,-1
 162 69 l 1,18,19
 162 69 162 69 162 68 c 0,20,21
 159 63 159 63 160 57 c 0,22,23
 161 49 161 49 167 45 c 0,24,25
 173 40 173 40 180 40 c 2,26,-1
 240 40 l 1,0,-1
298 451 m 2,27,28
 303 461 303 461 297 470.5 c 128,-1,29
 291 480 291 480 280 480 c 0,30,31
 268 480 268 480 262 469 c 2,32,-1
 -18 -91 l 2,33,34
 -23 -101 -23 -101 -17 -110.5 c 128,-1,35
 -11 -120 -11 -120 0 -120 c 0,36,37
 12 -120 12 -120 18 -109 c 2,38,-1
 298 451 l 2,27,28
120 220 m 0,39,40
 120 243 120 243 105 260 c 1,41,42
 120 277 120 277 120 300 c 0,43,44
 120 325 120 325 102.5 342.5 c 128,-1,45
 85 360 85 360 60 360 c 128,-1,46
 35 360 35 360 17.5 342.5 c 128,-1,47
 0 325 0 325 0 300 c 0,48,49
 0 292 0 292 6 286 c 128,-1,50
 12 280 12 280 20 280 c 128,-1,51
 28 280 28 280 34 286 c 128,-1,52
 40 292 40 292 40 300 c 128,-1,53
 40 308 40 308 46 314 c 128,-1,54
 52 320 52 320 60 320 c 128,-1,55
 68 320 68 320 74 314 c 128,-1,56
 80 308 80 308 80 300 c 128,-1,57
 80 292 80 292 74 286 c 128,-1,58
 68 280 68 280 60 280 c 128,-1,59
 52 280 52 280 46 274 c 128,-1,60
 40 268 40 268 40 260 c 128,-1,61
 40 252 40 252 46 246 c 128,-1,62
 52 240 52 240 60 240 c 128,-1,63
 68 240 68 240 74 234 c 128,-1,64
 80 228 80 228 80 220 c 128,-1,65
 80 212 80 212 74 206 c 128,-1,66
 68 200 68 200 60 200 c 128,-1,67
 52 200 52 200 46 206 c 128,-1,68
 40 212 40 212 40 220 c 128,-1,69
 40 228 40 228 34 234 c 128,-1,70
 28 240 28 240 20 240 c 128,-1,71
 12 240 12 240 6 234 c 128,-1,72
 0 228 0 228 0 220 c 0,73,74
 0 195 0 195 17.5 177.5 c 128,-1,75
 35 160 35 160 60 160 c 128,-1,76
 85 160 85 160 102.5 177.5 c 128,-1,77
 120 195 120 195 120 220 c 0,39,40
EndSplineSet
EndChar

StartChar: questiondown
Encoding: 191 191 192
Width: 280
GlyphClass: 1
Flags: W
HStem: 0 40<103.913 176.087> 280 80<121.595 158.405>
VStem: 40 40<64.0894 100 107 142.344> 120 40<281.595 300 340 358.405> 200 40<64.0894 118.405>
CounterMasks: 1 38
LayerCount: 2
Fore
SplineSet
160 340 m 2,0,1
 160 348 160 348 154 354 c 128,-1,2
 148 360 148 360 140 360 c 128,-1,3
 132 360 132 360 126 354 c 128,-1,4
 120 348 120 348 120 340 c 2,5,-1
 120 300 l 2,6,7
 120 292 120 292 126 286 c 128,-1,8
 132 280 132 280 140 280 c 128,-1,9
 148 280 148 280 154 286 c 128,-1,10
 160 292 160 292 160 300 c 2,11,-1
 160 340 l 2,0,1
154 206 m 0,12,13
 164 215 164 215 158.5 227.5 c 128,-1,14
 153 240 153 240 140 240 c 0,15,16
 132 240 132 240 126 234 c 2,17,-1
 69 178 l 2,18,19
 69 177 69 177 69 177 c 1,20,21
 40 148 40 148 40 107 c 2,22,-1
 40 100 l 2,23,24
 40 59 40 59 69.5 29.5 c 128,-1,25
 99 0 99 0 140 0 c 128,-1,26
 181 0 181 0 210.5 29.5 c 128,-1,27
 240 59 240 59 240 100 c 0,28,29
 240 108 240 108 234 114 c 128,-1,30
 228 120 228 120 220 120 c 128,-1,31
 212 120 212 120 206 114 c 128,-1,32
 200 108 200 108 200 100 c 0,33,34
 200 75 200 75 182.5 57.5 c 128,-1,35
 165 40 165 40 140 40 c 128,-1,36
 115 40 115 40 97.5 57.5 c 128,-1,37
 80 75 80 75 80 100 c 2,38,-1
 80 107 l 2,39,40
 80 132 80 132 98 149 c 1,41,42
 126 178 126 178 154 206 c 0,12,13
EndSplineSet
EndChar

StartChar: Agrave
Encoding: 192 192 193
Width: 280
GlyphClass: 1
Flags: W
HStem: 0 21G<56 64 216 224> 160 40<80 200> 320 40<103.913 176.087>
VStem: 40 40<1.59521 160 200 295.911> 200 40<1.59521 160 200 295.911>
LayerCount: 2
Fore
SplineSet
140 360 m 128,-1,1
 181 360 181 360 210.5 330.5 c 128,-1,2
 240 301 240 301 240 260 c 2,3,-1
 240 180 l 1,4,-1
 240 20 l 2,5,6
 240 12 240 12 234 6 c 128,-1,7
 228 0 228 0 220 0 c 128,-1,8
 212 0 212 0 206 6 c 128,-1,9
 200 12 200 12 200 20 c 2,10,-1
 200 160 l 1,11,-1
 80 160 l 1,12,-1
 80 20 l 2,13,14
 80 12 80 12 74 6 c 128,-1,15
 68 0 68 0 60 0 c 128,-1,16
 52 0 52 0 46 6 c 128,-1,17
 40 12 40 12 40 20 c 2,18,-1
 40 180 l 1,19,-1
 40 260 l 2,20,21
 40 301 40 301 69.5 330.5 c 128,-1,0
 99 360 99 360 140 360 c 128,-1,1
140 320 m 128,-1,23
 115 320 115 320 97.5 302.5 c 128,-1,24
 80 285 80 285 80 260 c 2,25,-1
 80 200 l 1,26,-1
 200 200 l 1,27,-1
 200 260 l 2,28,29
 200 285 200 285 182.5 302.5 c 128,-1,22
 165 320 165 320 140 320 c 128,-1,23
166 406 m 2,30,31
 175 396 175 396 187.5 401.5 c 128,-1,32
 200 407 200 407 200 420 c 0,33,34
 200 428 200 428 194 434 c 2,35,-1
 114 514 l 2,36,37
 105 524 105 524 92.5 518.5 c 128,-1,38
 80 513 80 513 80 500 c 0,39,40
 80 492 80 492 86 486 c 2,41,-1
 166 406 l 2,30,31
EndSplineSet
EndChar

StartChar: Aacute
Encoding: 193 193 194
Width: 280
GlyphClass: 1
Flags: W
HStem: 0 21G<56 64 216 224> 160 40<80 200> 320 40<103.913 176.087>
VStem: 40 40<1.59521 160 200 295.911> 200 40<1.59521 160 200 295.911>
LayerCount: 2
Fore
SplineSet
86 434 m 2,0,1
 76 425 76 425 81.5 412.5 c 128,-1,2
 87 400 87 400 100 400 c 0,3,4
 108 400 108 400 114 406 c 2,5,-1
 194 486 l 2,6,7
 204 495 204 495 198.5 507.5 c 128,-1,8
 193 520 193 520 180 520 c 0,9,10
 172 520 172 520 166 514 c 2,11,-1
 86 434 l 2,0,1
140 360 m 128,-1,13
 181 360 181 360 210.5 330.5 c 128,-1,14
 240 301 240 301 240 260 c 2,15,-1
 240 180 l 1,16,-1
 240 20 l 2,17,18
 240 12 240 12 234 6 c 128,-1,19
 228 0 228 0 220 0 c 128,-1,20
 212 0 212 0 206 6 c 128,-1,21
 200 12 200 12 200 20 c 2,22,-1
 200 160 l 1,23,-1
 80 160 l 1,24,-1
 80 20 l 2,25,26
 80 12 80 12 74 6 c 128,-1,27
 68 0 68 0 60 0 c 128,-1,28
 52 0 52 0 46 6 c 128,-1,29
 40 12 40 12 40 20 c 2,30,-1
 40 180 l 1,31,-1
 40 260 l 2,32,33
 40 301 40 301 69.5 330.5 c 128,-1,12
 99 360 99 360 140 360 c 128,-1,13
140 320 m 128,-1,35
 115 320 115 320 97.5 302.5 c 128,-1,36
 80 285 80 285 80 260 c 2,37,-1
 80 200 l 1,38,-1
 200 200 l 1,39,-1
 200 260 l 2,40,41
 200 285 200 285 182.5 302.5 c 128,-1,34
 165 320 165 320 140 320 c 128,-1,35
EndSplineSet
EndChar

StartChar: Acircumflex
Encoding: 194 194 195
Width: 280
GlyphClass: 1
Flags: W
HStem: 0 21G<56 64 216 224> 160 40<80 200> 320 40<103.913 176.087>
VStem: 40 40<1.59521 160 200 295.911> 200 40<1.59521 160 200 295.911>
LayerCount: 2
Fore
SplineSet
140 320 m 128,-1,1
 115 320 115 320 97.5 302.5 c 128,-1,2
 80 285 80 285 80 260 c 2,3,-1
 80 200 l 1,4,-1
 200 200 l 1,5,-1
 200 260 l 2,6,7
 200 285 200 285 182.5 302.5 c 128,-1,0
 165 320 165 320 140 320 c 128,-1,1
140 360 m 128,-1,9
 181 360 181 360 210.5 330.5 c 128,-1,10
 240 301 240 301 240 260 c 2,11,-1
 240 180 l 1,12,-1
 240 20 l 2,13,14
 240 12 240 12 234 6 c 128,-1,15
 228 0 228 0 220 0 c 128,-1,16
 212 0 212 0 206 6 c 128,-1,17
 200 12 200 12 200 20 c 2,18,-1
 200 160 l 1,19,-1
 80 160 l 1,20,-1
 80 20 l 2,21,22
 80 12 80 12 74 6 c 128,-1,23
 68 0 68 0 60 0 c 128,-1,24
 52 0 52 0 46 6 c 128,-1,25
 40 12 40 12 40 20 c 2,26,-1
 40 180 l 1,27,-1
 40 260 l 2,28,29
 40 301 40 301 69.5 330.5 c 128,-1,8
 99 360 99 360 140 360 c 128,-1,9
206 406 m 2,30,31
 215 396 215 396 227.5 401.5 c 128,-1,32
 240 407 240 407 240 420 c 0,33,34
 240 428 240 428 234 434 c 2,35,-1
 154 514 l 2,36,37
 151 517 151 517 147.5 518.5 c 128,-1,38
 144 520 144 520 141 520 c 0,39,40
 140 520 140 520 140 520 c 2,41,42
 132 520 132 520 126 514 c 2,43,-1
 46 434 l 2,44,45
 36 425 36 425 41.5 412.5 c 128,-1,46
 47 400 47 400 60 400 c 0,47,48
 68 400 68 400 74 406 c 2,49,-1
 140 472 l 1,50,-1
 206 406 l 2,30,31
EndSplineSet
EndChar

StartChar: Atilde
Encoding: 195 195 196
Width: 280
GlyphClass: 1
Flags: W
HStem: 0 21G<56 64 216 224> 160 40<80 200> 320 40<103.913 176.087> 400 40<161.604 198.396> 480 40<81.6042 118.396>
VStem: 40 40<1.59521 160 200 295.911 441.595 478.387> 120 40<441.613 478.387> 200 40<1.59521 160 200 295.911 441.613 478.405>
CounterMasks: 1 07
LayerCount: 2
Fore
SplineSet
140 320 m 128,-1,1
 115 320 115 320 97.5 302.5 c 128,-1,2
 80 285 80 285 80 260 c 2,3,-1
 80 200 l 1,4,-1
 200 200 l 1,5,-1
 200 260 l 2,6,7
 200 285 200 285 182.5 302.5 c 128,-1,0
 165 320 165 320 140 320 c 128,-1,1
140 360 m 128,-1,9
 181 360 181 360 210.5 330.5 c 128,-1,10
 240 301 240 301 240 260 c 2,11,-1
 240 180 l 1,12,-1
 240 20 l 2,13,14
 240 12 240 12 234 6 c 128,-1,15
 228 0 228 0 220 0 c 128,-1,16
 212 0 212 0 206 6 c 128,-1,17
 200 12 200 12 200 20 c 2,18,-1
 200 160 l 1,19,-1
 80 160 l 1,20,-1
 80 20 l 2,21,22
 80 12 80 12 74 6 c 128,-1,23
 68 0 68 0 60 0 c 128,-1,24
 52 0 52 0 46 6 c 128,-1,25
 40 12 40 12 40 20 c 2,26,-1
 40 180 l 1,27,-1
 40 260 l 2,28,29
 40 301 40 301 69.5 330.5 c 128,-1,8
 99 360 99 360 140 360 c 128,-1,9
40 460 m 0,30,31
 40 452 40 452 46 446 c 128,-1,32
 52 440 52 440 60 440 c 128,-1,33
 68 440 68 440 74 446 c 128,-1,34
 80 452 80 452 80 460 c 128,-1,35
 80 468 80 468 86 474 c 128,-1,36
 92 480 92 480 100 480 c 128,-1,37
 108 480 108 480 114 474 c 128,-1,38
 120 468 120 468 120 460 c 0,39,40
 120 435 120 435 137.5 417.5 c 128,-1,41
 155 400 155 400 180 400 c 128,-1,42
 205 400 205 400 222.5 417.5 c 128,-1,43
 240 435 240 435 240 460 c 0,44,45
 240 468 240 468 234 474 c 128,-1,46
 228 480 228 480 220 480 c 128,-1,47
 212 480 212 480 206 474 c 128,-1,48
 200 468 200 468 200 460 c 128,-1,49
 200 452 200 452 194 446 c 128,-1,50
 188 440 188 440 180 440 c 128,-1,51
 172 440 172 440 166 446 c 128,-1,52
 160 452 160 452 160 460 c 0,53,54
 160 485 160 485 142.5 502.5 c 128,-1,55
 125 520 125 520 100 520 c 128,-1,56
 75 520 75 520 57.5 502.5 c 128,-1,57
 40 485 40 485 40 460 c 0,30,31
EndSplineSet
EndChar

StartChar: Adieresis
Encoding: 196 196 197
Width: 280
GlyphClass: 1
Flags: W
HStem: 0 21G<56 64 216 224> 160 40<80 200> 320 40<103.913 176.087> 440 80<81.5952 118.405 161.595 198.405>
VStem: 40 40<1.59521 160 200 295.911> 80 40<441.595 460 500 518.405> 160 40<441.595 460 500 518.405> 200 40<1.59521 160 200 295.911>
LayerCount: 2
Fore
SplineSet
120 500 m 2,0,1
 120 508 120 508 114 514 c 128,-1,2
 108 520 108 520 100 520 c 128,-1,3
 92 520 92 520 86 514 c 128,-1,4
 80 508 80 508 80 500 c 2,5,-1
 80 460 l 2,6,7
 80 452 80 452 86 446 c 128,-1,8
 92 440 92 440 100 440 c 128,-1,9
 108 440 108 440 114 446 c 128,-1,10
 120 452 120 452 120 460 c 2,11,-1
 120 500 l 2,0,1
200 500 m 2,12,13
 200 508 200 508 194 514 c 128,-1,14
 188 520 188 520 180 520 c 128,-1,15
 172 520 172 520 166 514 c 128,-1,16
 160 508 160 508 160 500 c 2,17,-1
 160 460 l 2,18,19
 160 452 160 452 166 446 c 128,-1,20
 172 440 172 440 180 440 c 128,-1,21
 188 440 188 440 194 446 c 128,-1,22
 200 452 200 452 200 460 c 2,23,-1
 200 500 l 2,12,13
140 360 m 128,-1,25
 181 360 181 360 210.5 330.5 c 128,-1,26
 240 301 240 301 240 260 c 2,27,-1
 240 180 l 1,28,-1
 240 20 l 2,29,30
 240 12 240 12 234 6 c 128,-1,31
 228 0 228 0 220 0 c 128,-1,32
 212 0 212 0 206 6 c 128,-1,33
 200 12 200 12 200 20 c 2,34,-1
 200 160 l 1,35,-1
 80 160 l 1,36,-1
 80 20 l 2,37,38
 80 12 80 12 74 6 c 128,-1,39
 68 0 68 0 60 0 c 128,-1,40
 52 0 52 0 46 6 c 128,-1,41
 40 12 40 12 40 20 c 2,42,-1
 40 180 l 1,43,-1
 40 260 l 2,44,45
 40 301 40 301 69.5 330.5 c 128,-1,24
 99 360 99 360 140 360 c 128,-1,25
140 320 m 128,-1,47
 115 320 115 320 97.5 302.5 c 128,-1,48
 80 285 80 285 80 260 c 2,49,-1
 80 200 l 1,50,-1
 200 200 l 1,51,-1
 200 260 l 2,52,53
 200 285 200 285 182.5 302.5 c 128,-1,46
 165 320 165 320 140 320 c 128,-1,47
EndSplineSet
EndChar

StartChar: Aring
Encoding: 197 197 198
Width: 280
GlyphClass: 1
Flags: W
HStem: 0 21G<56 64 216 224> 160 40<80 200> 320 40<103.913 176.087> 400 40<121.604 158.396> 480 40<121.604 158.396>
VStem: 40 40<1.59521 160 200 295.911> 80 40<441.604 478.396> 160 40<441.604 478.396> 200 40<1.59521 160 200 295.911>
LayerCount: 2
Fore
SplineSet
140 320 m 128,-1,1
 115 320 115 320 97.5 302.5 c 128,-1,2
 80 285 80 285 80 260 c 2,3,-1
 80 200 l 1,4,-1
 200 200 l 1,5,-1
 200 260 l 2,6,7
 200 285 200 285 182.5 302.5 c 128,-1,0
 165 320 165 320 140 320 c 128,-1,1
140 360 m 128,-1,9
 181 360 181 360 210.5 330.5 c 128,-1,10
 240 301 240 301 240 260 c 2,11,-1
 240 180 l 1,12,-1
 240 20 l 2,13,14
 240 12 240 12 234 6 c 128,-1,15
 228 0 228 0 220 0 c 128,-1,16
 212 0 212 0 206 6 c 128,-1,17
 200 12 200 12 200 20 c 2,18,-1
 200 160 l 1,19,-1
 80 160 l 1,20,-1
 80 20 l 2,21,22
 80 12 80 12 74 6 c 128,-1,23
 68 0 68 0 60 0 c 128,-1,24
 52 0 52 0 46 6 c 128,-1,25
 40 12 40 12 40 20 c 2,26,-1
 40 180 l 1,27,-1
 40 260 l 2,28,29
 40 301 40 301 69.5 330.5 c 128,-1,8
 99 360 99 360 140 360 c 128,-1,9
200 460 m 128,-1,31
 200 485 200 485 182.5 502.5 c 128,-1,32
 165 520 165 520 140 520 c 128,-1,33
 115 520 115 520 97.5 502.5 c 128,-1,34
 80 485 80 485 80 460 c 128,-1,35
 80 435 80 435 97.5 417.5 c 128,-1,36
 115 400 115 400 140 400 c 128,-1,37
 165 400 165 400 182.5 417.5 c 128,-1,30
 200 435 200 435 200 460 c 128,-1,31
160 460 m 128,-1,39
 160 452 160 452 154 446 c 128,-1,40
 148 440 148 440 140 440 c 128,-1,41
 132 440 132 440 126 446 c 128,-1,42
 120 452 120 452 120 460 c 128,-1,43
 120 468 120 468 126 474 c 128,-1,44
 132 480 132 480 140 480 c 128,-1,45
 148 480 148 480 154 474 c 128,-1,38
 160 468 160 468 160 460 c 128,-1,39
EndSplineSet
EndChar

StartChar: AE
Encoding: 198 198 199
Width: 280
GlyphClass: 1
Flags: W
HStem: 0 40<260 278.405> 160 40<220 238.405> 320 40<64.0894 100 260 278.405>
VStem: 0 40<1.59521 20 260 295.911>
CounterMasks: 1 e0
LayerCount: 2
Fore
SplineSet
220 160 m 2,0,1
 228 160 228 160 234 166 c 128,-1,2
 240 172 240 172 240 180 c 128,-1,3
 240 188 240 188 234 194 c 128,-1,4
 228 200 228 200 220 200 c 2,5,-1
 160 200 l 1,6,-1
 160 320 l 1,7,-1
 260 320 l 2,8,9
 268 320 268 320 274 326 c 128,-1,10
 280 332 280 332 280 340 c 128,-1,11
 280 348 280 348 274 354 c 128,-1,12
 268 360 268 360 260 360 c 2,13,-1
 140 360 l 1,14,-1
 100 360 l 2,15,16
 59 360 59 360 29.5 330.5 c 128,-1,17
 0 301 0 301 0 260 c 2,18,-1
 0 180 l 1,19,-1
 0 20 l 2,20,21
 0 12 0 12 6 6 c 128,-1,22
 12 0 12 0 20 0 c 128,-1,23
 28 0 28 0 34 6 c 128,-1,24
 40 12 40 12 40 20 c 2,25,-1
 40 160 l 1,26,-1
 120 160 l 1,27,-1
 120 20 l 2,28,29
 120 12 120 12 126 6 c 128,-1,30
 132 0 132 0 140 0 c 2,31,-1
 260 0 l 2,32,33
 268 0 268 0 274 6 c 128,-1,34
 280 12 280 12 280 20 c 128,-1,35
 280 28 280 28 274 34 c 128,-1,36
 268 40 268 40 260 40 c 2,37,-1
 160 40 l 1,38,-1
 160 160 l 1,39,-1
 220 160 l 2,0,1
40 200 m 1,40,-1
 40 260 l 2,41,42
 40 285 40 285 57.5 302.5 c 128,-1,43
 75 320 75 320 100 320 c 2,44,-1
 120 320 l 1,45,-1
 120 200 l 1,46,-1
 40 200 l 1,40,-1
EndSplineSet
EndChar

StartChar: Ccedilla
Encoding: 199 199 200
Width: 280
GlyphClass: 1
Flags: W
HStem: -80 40<121.595 158.387> 0 40<104.089 158.387> 320 40<103.913 176.087>
VStem: 40 40<64.0894 100 260 295.911> 160 40<-38.3958 -1.65845> 200 40<64.0088 118.405 241.595 295.911>
LayerCount: 2
Fore
SplineSet
140 -40 m 128,-1,1
 132 -40 132 -40 126 -46 c 128,-1,2
 120 -52 120 -52 120 -60 c 128,-1,3
 120 -68 120 -68 126 -74 c 128,-1,4
 132 -80 132 -80 140 -80 c 0,5,6
 165 -80 165 -80 182.5 -62.5 c 128,-1,7
 200 -45 200 -45 200 -20 c 0,8,9
 200 -2 200 -2 190 13 c 1,10,11
 213 27 213 27 226.5 50 c 128,-1,12
 240 73 240 73 240 100 c 0,13,14
 240 108 240 108 234 114 c 128,-1,15
 228 120 228 120 220 120 c 128,-1,16
 212 120 212 120 206 114 c 128,-1,17
 200 108 200 108 200 100 c 0,18,19
 200 75 200 75 182.5 57.5 c 128,-1,20
 165 40 165 40 140 40 c 128,-1,21
 115 40 115 40 97.5 57.5 c 128,-1,22
 80 75 80 75 80 100 c 2,23,-1
 80 260 l 2,24,25
 80 285 80 285 97.5 302.5 c 128,-1,26
 115 320 115 320 140 320 c 128,-1,27
 165 320 165 320 182.5 302.5 c 128,-1,28
 200 285 200 285 200 260 c 0,29,30
 200 252 200 252 206 246 c 128,-1,31
 212 240 212 240 220 240 c 128,-1,32
 228 240 228 240 234 246 c 128,-1,33
 240 252 240 252 240 260 c 0,34,35
 240 301 240 301 210.5 330.5 c 128,-1,36
 181 360 181 360 140 360 c 128,-1,37
 99 360 99 360 69.5 330.5 c 128,-1,38
 40 301 40 301 40 260 c 2,39,-1
 40 100 l 2,40,41
 40 59 40 59 69.5 29.5 c 128,-1,42
 99 0 99 0 140 0 c 0,43,44
 148 0 148 0 154 -6 c 128,-1,45
 160 -12 160 -12 160 -20 c 128,-1,46
 160 -28 160 -28 154 -34 c 128,-1,0
 148 -40 148 -40 140 -40 c 128,-1,1
EndSplineSet
EndChar

StartChar: Egrave
Encoding: 200 200 201
Width: 280
GlyphClass: 1
Flags: W
HStem: 0 40<220 238.405> 160 40<180 198.405> 320 40<220 238.405>
CounterMasks: 1 e0
LayerCount: 2
Fore
SplineSet
166 406 m 2,0,1
 175 396 175 396 187.5 401.5 c 128,-1,2
 200 407 200 407 200 420 c 0,3,4
 200 428 200 428 194 434 c 2,5,-1
 114 514 l 2,6,7
 105 524 105 524 92.5 518.5 c 128,-1,8
 80 513 80 513 80 500 c 0,9,10
 80 492 80 492 86 486 c 2,11,-1
 166 406 l 2,0,1
220 0 m 2,12,13
 228 0 228 0 234 6 c 128,-1,14
 240 12 240 12 240 20 c 128,-1,15
 240 28 240 28 234 34 c 128,-1,16
 228 40 228 40 220 40 c 2,17,-1
 80 40 l 1,18,-1
 80 160 l 1,19,-1
 180 160 l 2,20,21
 188 160 188 160 194 166 c 128,-1,22
 200 172 200 172 200 180 c 128,-1,23
 200 188 200 188 194 194 c 128,-1,24
 188 200 188 200 180 200 c 2,25,-1
 80 200 l 1,26,-1
 80 320 l 1,27,-1
 220 320 l 2,28,29
 228 320 228 320 234 326 c 128,-1,30
 240 332 240 332 240 340 c 128,-1,31
 240 348 240 348 234 354 c 128,-1,32
 228 360 228 360 220 360 c 2,33,-1
 60 360 l 2,34,35
 52 360 52 360 46 354 c 128,-1,36
 40 348 40 348 40 340 c 2,37,-1
 40 20 l 2,38,39
 40 12 40 12 46 6 c 128,-1,40
 52 0 52 0 60 0 c 2,41,-1
 220 0 l 2,12,13
EndSplineSet
EndChar

StartChar: Eacute
Encoding: 201 201 202
Width: 280
GlyphClass: 1
Flags: W
HStem: 0 40<220 238.405> 160 40<180 198.405> 320 40<220 238.405>
CounterMasks: 1 e0
LayerCount: 2
Fore
SplineSet
86 434 m 2,0,1
 76 425 76 425 81.5 412.5 c 128,-1,2
 87 400 87 400 100 400 c 0,3,4
 108 400 108 400 114 406 c 2,5,-1
 194 486 l 2,6,7
 204 495 204 495 198.5 507.5 c 128,-1,8
 193 520 193 520 180 520 c 0,9,10
 172 520 172 520 166 514 c 2,11,-1
 86 434 l 2,0,1
220 0 m 2,12,13
 228 0 228 0 234 6 c 128,-1,14
 240 12 240 12 240 20 c 128,-1,15
 240 28 240 28 234 34 c 128,-1,16
 228 40 228 40 220 40 c 2,17,-1
 80 40 l 1,18,-1
 80 160 l 1,19,-1
 180 160 l 2,20,21
 188 160 188 160 194 166 c 128,-1,22
 200 172 200 172 200 180 c 128,-1,23
 200 188 200 188 194 194 c 128,-1,24
 188 200 188 200 180 200 c 2,25,-1
 80 200 l 1,26,-1
 80 320 l 1,27,-1
 220 320 l 2,28,29
 228 320 228 320 234 326 c 128,-1,30
 240 332 240 332 240 340 c 128,-1,31
 240 348 240 348 234 354 c 128,-1,32
 228 360 228 360 220 360 c 2,33,-1
 60 360 l 2,34,35
 52 360 52 360 46 354 c 128,-1,36
 40 348 40 348 40 340 c 2,37,-1
 40 20 l 2,38,39
 40 12 40 12 46 6 c 128,-1,40
 52 0 52 0 60 0 c 2,41,-1
 220 0 l 2,12,13
EndSplineSet
EndChar

StartChar: Ecircumflex
Encoding: 202 202 203
Width: 280
GlyphClass: 1
Flags: W
HStem: 0 40<220 238.405> 160 40<180 198.405> 320 40<220 238.405>
CounterMasks: 1 e0
LayerCount: 2
Fore
SplineSet
220 0 m 2,0,1
 228 0 228 0 234 6 c 128,-1,2
 240 12 240 12 240 20 c 128,-1,3
 240 28 240 28 234 34 c 128,-1,4
 228 40 228 40 220 40 c 2,5,-1
 80 40 l 1,6,-1
 80 160 l 1,7,-1
 180 160 l 2,8,9
 188 160 188 160 194 166 c 128,-1,10
 200 172 200 172 200 180 c 128,-1,11
 200 188 200 188 194 194 c 128,-1,12
 188 200 188 200 180 200 c 2,13,-1
 80 200 l 1,14,-1
 80 320 l 1,15,-1
 220 320 l 2,16,17
 228 320 228 320 234 326 c 128,-1,18
 240 332 240 332 240 340 c 128,-1,19
 240 348 240 348 234 354 c 128,-1,20
 228 360 228 360 220 360 c 2,21,-1
 60 360 l 2,22,23
 52 360 52 360 46 354 c 128,-1,24
 40 348 40 348 40 340 c 2,25,-1
 40 20 l 2,26,27
 40 12 40 12 46 6 c 128,-1,28
 52 0 52 0 60 0 c 2,29,-1
 220 0 l 2,0,1
206 406 m 2,30,31
 215 396 215 396 227.5 401.5 c 128,-1,32
 240 407 240 407 240 420 c 0,33,34
 240 428 240 428 234 434 c 2,35,-1
 154 514 l 2,36,37
 151 517 151 517 147.5 518.5 c 128,-1,38
 144 520 144 520 141 520 c 0,39,40
 140 520 140 520 140 520 c 2,41,42
 132 520 132 520 126 514 c 2,43,-1
 46 434 l 2,44,45
 36 425 36 425 41.5 412.5 c 128,-1,46
 47 400 47 400 60 400 c 0,47,48
 68 400 68 400 74 406 c 2,49,-1
 140 472 l 1,50,-1
 206 406 l 2,30,31
EndSplineSet
EndChar

StartChar: Edieresis
Encoding: 203 203 204
Width: 280
GlyphClass: 1
Flags: W
HStem: 0 40<220 238.405> 160 40<180 198.405> 320 40<220 238.405> 440 80<81.5952 118.405 161.595 198.405>
VStem: 80 40<441.595 460 500 518.405> 160 40<441.595 460 500 518.405>
LayerCount: 2
Fore
SplineSet
200 500 m 2,0,1
 200 508 200 508 194 514 c 128,-1,2
 188 520 188 520 180 520 c 128,-1,3
 172 520 172 520 166 514 c 128,-1,4
 160 508 160 508 160 500 c 2,5,-1
 160 460 l 2,6,7
 160 452 160 452 166 446 c 128,-1,8
 172 440 172 440 180 440 c 128,-1,9
 188 440 188 440 194 446 c 128,-1,10
 200 452 200 452 200 460 c 2,11,-1
 200 500 l 2,0,1
120 500 m 2,12,13
 120 508 120 508 114 514 c 128,-1,14
 108 520 108 520 100 520 c 128,-1,15
 92 520 92 520 86 514 c 128,-1,16
 80 508 80 508 80 500 c 2,17,-1
 80 460 l 2,18,19
 80 452 80 452 86 446 c 128,-1,20
 92 440 92 440 100 440 c 128,-1,21
 108 440 108 440 114 446 c 128,-1,22
 120 452 120 452 120 460 c 2,23,-1
 120 500 l 2,12,13
220 0 m 2,24,25
 228 0 228 0 234 6 c 128,-1,26
 240 12 240 12 240 20 c 128,-1,27
 240 28 240 28 234 34 c 128,-1,28
 228 40 228 40 220 40 c 2,29,-1
 80 40 l 1,30,-1
 80 160 l 1,31,-1
 180 160 l 2,32,33
 188 160 188 160 194 166 c 128,-1,34
 200 172 200 172 200 180 c 128,-1,35
 200 188 200 188 194 194 c 128,-1,36
 188 200 188 200 180 200 c 2,37,-1
 80 200 l 1,38,-1
 80 320 l 1,39,-1
 220 320 l 2,40,41
 228 320 228 320 234 326 c 128,-1,42
 240 332 240 332 240 340 c 128,-1,43
 240 348 240 348 234 354 c 128,-1,44
 228 360 228 360 220 360 c 2,45,-1
 60 360 l 2,46,47
 52 360 52 360 46 354 c 128,-1,48
 40 348 40 348 40 340 c 2,49,-1
 40 20 l 2,50,51
 40 12 40 12 46 6 c 128,-1,52
 52 0 52 0 60 0 c 2,53,-1
 220 0 l 2,24,25
EndSplineSet
EndChar

StartChar: Igrave
Encoding: 204 204 205
Width: 280
GlyphClass: 1
Flags: W
HStem: 0 40<41.5952 60 220 238.405> 320 40<41.5952 60 220 238.405>
LayerCount: 2
Fore
SplineSet
166 406 m 2,0,1
 175 396 175 396 187.5 401.5 c 128,-1,2
 200 407 200 407 200 420 c 0,3,4
 200 428 200 428 194 434 c 2,5,-1
 114 514 l 2,6,7
 105 524 105 524 92.5 518.5 c 128,-1,8
 80 513 80 513 80 500 c 0,9,10
 80 492 80 492 86 486 c 2,11,-1
 166 406 l 2,0,1
60 40 m 2,12,13
 52 40 52 40 46 34 c 128,-1,14
 40 28 40 28 40 20 c 128,-1,15
 40 12 40 12 46 6 c 128,-1,16
 52 0 52 0 60 0 c 2,17,-1
 220 0 l 2,18,19
 228 0 228 0 234 6 c 128,-1,20
 240 12 240 12 240 20 c 128,-1,21
 240 28 240 28 234 34 c 128,-1,22
 228 40 228 40 220 40 c 2,23,-1
 160 40 l 1,24,-1
 160 320 l 1,25,-1
 220 320 l 2,26,27
 228 320 228 320 234 326 c 128,-1,28
 240 332 240 332 240 340 c 128,-1,29
 240 348 240 348 234 354 c 128,-1,30
 228 360 228 360 220 360 c 2,31,-1
 60 360 l 2,32,33
 52 360 52 360 46 354 c 128,-1,34
 40 348 40 348 40 340 c 128,-1,35
 40 332 40 332 46 326 c 128,-1,36
 52 320 52 320 60 320 c 2,37,-1
 120 320 l 1,38,-1
 120 40 l 1,39,-1
 60 40 l 2,12,13
EndSplineSet
EndChar

StartChar: Iacute
Encoding: 205 205 206
Width: 280
GlyphClass: 1
Flags: W
HStem: 0 40<41.5952 60 220 238.405> 320 40<41.5952 60 220 238.405>
LayerCount: 2
Fore
SplineSet
86 434 m 2,0,1
 76 425 76 425 81.5 412.5 c 128,-1,2
 87 400 87 400 100 400 c 0,3,4
 108 400 108 400 114 406 c 2,5,-1
 194 486 l 2,6,7
 204 495 204 495 198.5 507.5 c 128,-1,8
 193 520 193 520 180 520 c 0,9,10
 172 520 172 520 166 514 c 2,11,-1
 86 434 l 2,0,1
60 40 m 2,12,13
 52 40 52 40 46 34 c 128,-1,14
 40 28 40 28 40 20 c 128,-1,15
 40 12 40 12 46 6 c 128,-1,16
 52 0 52 0 60 0 c 2,17,-1
 220 0 l 2,18,19
 228 0 228 0 234 6 c 128,-1,20
 240 12 240 12 240 20 c 128,-1,21
 240 28 240 28 234 34 c 128,-1,22
 228 40 228 40 220 40 c 2,23,-1
 160 40 l 1,24,-1
 160 320 l 1,25,-1
 220 320 l 2,26,27
 228 320 228 320 234 326 c 128,-1,28
 240 332 240 332 240 340 c 128,-1,29
 240 348 240 348 234 354 c 128,-1,30
 228 360 228 360 220 360 c 2,31,-1
 60 360 l 2,32,33
 52 360 52 360 46 354 c 128,-1,34
 40 348 40 348 40 340 c 128,-1,35
 40 332 40 332 46 326 c 128,-1,36
 52 320 52 320 60 320 c 2,37,-1
 120 320 l 1,38,-1
 120 40 l 1,39,-1
 60 40 l 2,12,13
EndSplineSet
EndChar

StartChar: Icircumflex
Encoding: 206 206 207
Width: 280
GlyphClass: 1
Flags: W
HStem: 0 40<41.5952 60 220 238.405> 320 40<41.5952 60 220 238.405>
LayerCount: 2
Fore
SplineSet
206 406 m 2,0,1
 215 396 215 396 227.5 401.5 c 128,-1,2
 240 407 240 407 240 420 c 0,3,4
 240 428 240 428 234 434 c 2,5,-1
 154 514 l 2,6,7
 151 517 151 517 147.5 518.5 c 128,-1,8
 144 520 144 520 141 520 c 0,9,10
 140 520 140 520 140 520 c 2,11,12
 132 520 132 520 126 514 c 2,13,-1
 46 434 l 2,14,15
 36 425 36 425 41.5 412.5 c 128,-1,16
 47 400 47 400 60 400 c 0,17,18
 68 400 68 400 74 406 c 2,19,-1
 140 472 l 1,20,-1
 206 406 l 2,0,1
60 40 m 2,21,22
 52 40 52 40 46 34 c 128,-1,23
 40 28 40 28 40 20 c 128,-1,24
 40 12 40 12 46 6 c 128,-1,25
 52 0 52 0 60 0 c 2,26,-1
 220 0 l 2,27,28
 228 0 228 0 234 6 c 128,-1,29
 240 12 240 12 240 20 c 128,-1,30
 240 28 240 28 234 34 c 128,-1,31
 228 40 228 40 220 40 c 2,32,-1
 160 40 l 1,33,-1
 160 320 l 1,34,-1
 220 320 l 2,35,36
 228 320 228 320 234 326 c 128,-1,37
 240 332 240 332 240 340 c 128,-1,38
 240 348 240 348 234 354 c 128,-1,39
 228 360 228 360 220 360 c 2,40,-1
 60 360 l 2,41,42
 52 360 52 360 46 354 c 128,-1,43
 40 348 40 348 40 340 c 128,-1,44
 40 332 40 332 46 326 c 128,-1,45
 52 320 52 320 60 320 c 2,46,-1
 120 320 l 1,47,-1
 120 40 l 1,48,-1
 60 40 l 2,21,22
EndSplineSet
EndChar

StartChar: Idieresis
Encoding: 207 207 208
Width: 280
GlyphClass: 1
Flags: W
HStem: 0 40<41.5952 60 220 238.405> 320 40<41.5952 60 220 238.405> 440 80<81.5952 118.405 161.595 198.405>
VStem: 80 40<441.595 460 500 518.405> 160 40<441.595 460 500 518.405>
LayerCount: 2
Fore
SplineSet
200 500 m 2,0,1
 200 508 200 508 194 514 c 128,-1,2
 188 520 188 520 180 520 c 128,-1,3
 172 520 172 520 166 514 c 128,-1,4
 160 508 160 508 160 500 c 2,5,-1
 160 460 l 2,6,7
 160 452 160 452 166 446 c 128,-1,8
 172 440 172 440 180 440 c 128,-1,9
 188 440 188 440 194 446 c 128,-1,10
 200 452 200 452 200 460 c 2,11,-1
 200 500 l 2,0,1
120 500 m 2,12,13
 120 508 120 508 114 514 c 128,-1,14
 108 520 108 520 100 520 c 128,-1,15
 92 520 92 520 86 514 c 128,-1,16
 80 508 80 508 80 500 c 2,17,-1
 80 460 l 2,18,19
 80 452 80 452 86 446 c 128,-1,20
 92 440 92 440 100 440 c 128,-1,21
 108 440 108 440 114 446 c 128,-1,22
 120 452 120 452 120 460 c 2,23,-1
 120 500 l 2,12,13
60 40 m 2,24,25
 52 40 52 40 46 34 c 128,-1,26
 40 28 40 28 40 20 c 128,-1,27
 40 12 40 12 46 6 c 128,-1,28
 52 0 52 0 60 0 c 2,29,-1
 220 0 l 2,30,31
 228 0 228 0 234 6 c 128,-1,32
 240 12 240 12 240 20 c 128,-1,33
 240 28 240 28 234 34 c 128,-1,34
 228 40 228 40 220 40 c 2,35,-1
 160 40 l 1,36,-1
 160 320 l 1,37,-1
 220 320 l 2,38,39
 228 320 228 320 234 326 c 128,-1,40
 240 332 240 332 240 340 c 128,-1,41
 240 348 240 348 234 354 c 128,-1,42
 228 360 228 360 220 360 c 2,43,-1
 60 360 l 2,44,45
 52 360 52 360 46 354 c 128,-1,46
 40 348 40 348 40 340 c 128,-1,47
 40 332 40 332 46 326 c 128,-1,48
 52 320 52 320 60 320 c 2,49,-1
 120 320 l 1,50,-1
 120 40 l 1,51,-1
 60 40 l 2,24,25
EndSplineSet
EndChar

StartChar: Eth
Encoding: 208 208 209
Width: 280
GlyphClass: 1
Flags: W
HStem: 0 40<140 175.911> 160 40<-18.4048 0 120 138.405> 320 40<140 175.911>
VStem: 200 40<64.0894 100 260 295.911>
CounterMasks: 1 e0
LayerCount: 2
Fore
SplineSet
0 200 m 2,0,1
 -8 200 -8 200 -14 194 c 128,-1,2
 -20 188 -20 188 -20 180 c 128,-1,3
 -20 172 -20 172 -14 166 c 128,-1,4
 -8 160 -8 160 0 160 c 2,5,-1
 40 160 l 1,6,-1
 40 20 l 2,7,8
 40 12 40 12 46 6 c 128,-1,9
 52 0 52 0 60 0 c 2,10,-1
 140 0 l 2,11,12
 181 0 181 0 210.5 29.5 c 128,-1,13
 240 59 240 59 240 100 c 2,14,-1
 240 260 l 2,15,16
 240 301 240 301 210.5 330.5 c 128,-1,17
 181 360 181 360 140 360 c 2,18,-1
 60 360 l 2,19,20
 52 360 52 360 46 354 c 128,-1,21
 40 348 40 348 40 340 c 2,22,-1
 40 200 l 1,23,-1
 0 200 l 2,0,1
80 320 m 1,24,-1
 140 320 l 2,25,26
 165 320 165 320 182.5 302.5 c 128,-1,27
 200 285 200 285 200 260 c 2,28,-1
 200 100 l 2,29,30
 200 75 200 75 182.5 57.5 c 128,-1,31
 165 40 165 40 140 40 c 2,32,-1
 80 40 l 1,33,-1
 80 160 l 1,34,-1
 120 160 l 2,35,36
 128 160 128 160 134 166 c 128,-1,37
 140 172 140 172 140 180 c 128,-1,38
 140 188 140 188 134 194 c 128,-1,39
 128 200 128 200 120 200 c 2,40,-1
 80 200 l 1,41,-1
 80 320 l 1,24,-1
EndSplineSet
EndChar

StartChar: Ntilde
Encoding: 209 209 210
Width: 280
GlyphClass: 1
Flags: W
HStem: 400 40<161.604 198.396> 480 40<81.6042 118.396>
VStem: 40 40<1.59521 20 349 358.143 441.595 478.387> 120 40<441.613 478.387> 200 40<5.18823 11 340 358.405 441.613 478.405>
CounterMasks: 1 38
LayerCount: 2
Fore
SplineSet
40 460 m 0,0,1
 40 452 40 452 46 446 c 128,-1,2
 52 440 52 440 60 440 c 128,-1,3
 68 440 68 440 74 446 c 128,-1,4
 80 452 80 452 80 460 c 128,-1,5
 80 468 80 468 86 474 c 128,-1,6
 92 480 92 480 100 480 c 128,-1,7
 108 480 108 480 114 474 c 128,-1,8
 120 468 120 468 120 460 c 0,9,10
 120 435 120 435 137.5 417.5 c 128,-1,11
 155 400 155 400 180 400 c 128,-1,12
 205 400 205 400 222.5 417.5 c 128,-1,13
 240 435 240 435 240 460 c 0,14,15
 240 468 240 468 234 474 c 128,-1,16
 228 480 228 480 220 480 c 128,-1,17
 212 480 212 480 206 474 c 128,-1,18
 200 468 200 468 200 460 c 128,-1,19
 200 452 200 452 194 446 c 128,-1,20
 188 440 188 440 180 440 c 128,-1,21
 172 440 172 440 166 446 c 128,-1,22
 160 452 160 452 160 460 c 0,23,24
 160 485 160 485 142.5 502.5 c 128,-1,25
 125 520 125 520 100 520 c 128,-1,26
 75 520 75 520 57.5 502.5 c 128,-1,27
 40 485 40 485 40 460 c 0,0,1
240 340 m 2,28,29
 240 348 240 348 234 354 c 128,-1,30
 228 360 228 360 220 360 c 128,-1,31
 212 360 212 360 206 354 c 128,-1,32
 200 348 200 348 200 340 c 2,33,-1
 200 105 l 1,34,-1
 78 349 l 2,35,36
 74 357 74 357 65 359 c 0,37,38
 63 360 63 360 60 360 c 0,39,40
 53 360 53 360 47 355 c 256,41,42
 41 350 41 350 40 341 c 2,43,44
 40 341 40 341 40 340 c 0,45,46
 40 20 40 20 40 20 c 2,47,48
 40 12 40 12 46 6 c 128,-1,49
 52 0 52 0 60 0 c 128,-1,50
 68 0 68 0 74 6 c 128,-1,51
 80 12 80 12 80 20 c 2,52,-1
 80 255 l 1,53,-1
 202 11 l 2,54,55
 206 3 206 3 215 1 c 0,56,57
 217 0 217 0 220 0 c 0,58,59
 227 0 227 0 233 5 c 0,60,61
 240 11 240 11 240 20 c 2,62,-1
 240 340 l 2,28,29
EndSplineSet
EndChar

StartChar: Ograve
Encoding: 210 210 211
Width: 280
GlyphClass: 1
Flags: W
HStem: 0 40<103.913 176.087> 320 40<103.913 176.087>
VStem: 40 40<64.0894 100 260 295.911> 200 40<64.0894 100 260 295.911>
LayerCount: 2
Fore
SplineSet
166 406 m 2,0,1
 175 396 175 396 187.5 401.5 c 128,-1,2
 200 407 200 407 200 420 c 0,3,4
 200 428 200 428 194 434 c 2,5,-1
 114 514 l 2,6,7
 105 524 105 524 92.5 518.5 c 128,-1,8
 80 513 80 513 80 500 c 0,9,10
 80 492 80 492 86 486 c 2,11,-1
 166 406 l 2,0,1
200 100 m 2,12,13
 200 75 200 75 182.5 57.5 c 128,-1,14
 165 40 165 40 140 40 c 128,-1,15
 115 40 115 40 97.5 57.5 c 128,-1,16
 80 75 80 75 80 100 c 2,17,-1
 80 260 l 2,18,19
 80 285 80 285 97.5 302.5 c 128,-1,20
 115 320 115 320 140 320 c 128,-1,21
 165 320 165 320 182.5 302.5 c 128,-1,22
 200 285 200 285 200 260 c 2,23,-1
 200 100 l 2,12,13
240 100 m 2,24,-1
 240 260 l 2,25,26
 240 301 240 301 210.5 330.5 c 128,-1,27
 181 360 181 360 140 360 c 128,-1,28
 99 360 99 360 69.5 330.5 c 128,-1,29
 40 301 40 301 40 260 c 2,30,-1
 40 100 l 2,31,32
 40 59 40 59 69.5 29.5 c 128,-1,33
 99 0 99 0 140 0 c 128,-1,34
 181 0 181 0 210.5 29.5 c 128,-1,35
 240 59 240 59 240 100 c 2,24,-1
EndSplineSet
EndChar

StartChar: Oacute
Encoding: 211 211 212
Width: 280
GlyphClass: 1
Flags: W
HStem: 0 40<103.913 176.087> 320 40<103.913 176.087>
VStem: 40 40<64.0894 100 260 295.911> 200 40<64.0894 100 260 295.911>
LayerCount: 2
Fore
SplineSet
86 434 m 2,0,1
 76 425 76 425 81.5 412.5 c 128,-1,2
 87 400 87 400 100 400 c 0,3,4
 108 400 108 400 114 406 c 2,5,-1
 194 486 l 2,6,7
 204 495 204 495 198.5 507.5 c 128,-1,8
 193 520 193 520 180 520 c 0,9,10
 172 520 172 520 166 514 c 2,11,-1
 86 434 l 2,0,1
200 100 m 2,12,13
 200 75 200 75 182.5 57.5 c 128,-1,14
 165 40 165 40 140 40 c 128,-1,15
 115 40 115 40 97.5 57.5 c 128,-1,16
 80 75 80 75 80 100 c 2,17,-1
 80 260 l 2,18,19
 80 285 80 285 97.5 302.5 c 128,-1,20
 115 320 115 320 140 320 c 128,-1,21
 165 320 165 320 182.5 302.5 c 128,-1,22
 200 285 200 285 200 260 c 2,23,-1
 200 100 l 2,12,13
240 100 m 2,24,-1
 240 260 l 2,25,26
 240 301 240 301 210.5 330.5 c 128,-1,27
 181 360 181 360 140 360 c 128,-1,28
 99 360 99 360 69.5 330.5 c 128,-1,29
 40 301 40 301 40 260 c 2,30,-1
 40 100 l 2,31,32
 40 59 40 59 69.5 29.5 c 128,-1,33
 99 0 99 0 140 0 c 128,-1,34
 181 0 181 0 210.5 29.5 c 128,-1,35
 240 59 240 59 240 100 c 2,24,-1
EndSplineSet
EndChar

StartChar: Ocircumflex
Encoding: 212 212 213
Width: 280
GlyphClass: 1
Flags: W
HStem: 0 40<103.913 176.087> 320 40<103.913 176.087>
VStem: 40 40<64.0894 100 260 295.911> 200 40<64.0894 100 260 295.911>
LayerCount: 2
Fore
SplineSet
206 406 m 2,0,1
 215 396 215 396 227.5 401.5 c 128,-1,2
 240 407 240 407 240 420 c 0,3,4
 240 428 240 428 234 434 c 2,5,-1
 154 514 l 2,6,7
 151 517 151 517 147.5 518.5 c 128,-1,8
 144 520 144 520 141 520 c 0,9,10
 140 520 140 520 140 520 c 2,11,12
 132 520 132 520 126 514 c 2,13,-1
 46 434 l 2,14,15
 36 425 36 425 41.5 412.5 c 128,-1,16
 47 400 47 400 60 400 c 0,17,18
 68 400 68 400 74 406 c 2,19,-1
 140 472 l 1,20,-1
 206 406 l 2,0,1
200 100 m 2,21,22
 200 75 200 75 182.5 57.5 c 128,-1,23
 165 40 165 40 140 40 c 128,-1,24
 115 40 115 40 97.5 57.5 c 128,-1,25
 80 75 80 75 80 100 c 2,26,-1
 80 260 l 2,27,28
 80 285 80 285 97.5 302.5 c 128,-1,29
 115 320 115 320 140 320 c 128,-1,30
 165 320 165 320 182.5 302.5 c 128,-1,31
 200 285 200 285 200 260 c 2,32,-1
 200 100 l 2,21,22
240 100 m 2,33,-1
 240 260 l 2,34,35
 240 301 240 301 210.5 330.5 c 128,-1,36
 181 360 181 360 140 360 c 128,-1,37
 99 360 99 360 69.5 330.5 c 128,-1,38
 40 301 40 301 40 260 c 2,39,-1
 40 100 l 2,40,41
 40 59 40 59 69.5 29.5 c 128,-1,42
 99 0 99 0 140 0 c 128,-1,43
 181 0 181 0 210.5 29.5 c 128,-1,44
 240 59 240 59 240 100 c 2,33,-1
EndSplineSet
EndChar

StartChar: Otilde
Encoding: 213 213 214
Width: 280
GlyphClass: 1
Flags: W
HStem: 0 40<103.913 176.087> 320 40<103.913 176.087> 400 40<161.604 198.396> 480 40<81.6042 118.396>
VStem: 40 40<64.0894 100 260 295.911 441.595 478.387> 120 40<441.613 478.387> 200 40<64.0894 100 260 295.911 441.613 478.405>
CounterMasks: 1 0e
LayerCount: 2
Fore
SplineSet
40 460 m 0,0,1
 40 452 40 452 46 446 c 128,-1,2
 52 440 52 440 60 440 c 128,-1,3
 68 440 68 440 74 446 c 128,-1,4
 80 452 80 452 80 460 c 128,-1,5
 80 468 80 468 86 474 c 128,-1,6
 92 480 92 480 100 480 c 128,-1,7
 108 480 108 480 114 474 c 128,-1,8
 120 468 120 468 120 460 c 0,9,10
 120 435 120 435 137.5 417.5 c 128,-1,11
 155 400 155 400 180 400 c 128,-1,12
 205 400 205 400 222.5 417.5 c 128,-1,13
 240 435 240 435 240 460 c 0,14,15
 240 468 240 468 234 474 c 128,-1,16
 228 480 228 480 220 480 c 128,-1,17
 212 480 212 480 206 474 c 128,-1,18
 200 468 200 468 200 460 c 128,-1,19
 200 452 200 452 194 446 c 128,-1,20
 188 440 188 440 180 440 c 128,-1,21
 172 440 172 440 166 446 c 128,-1,22
 160 452 160 452 160 460 c 0,23,24
 160 485 160 485 142.5 502.5 c 128,-1,25
 125 520 125 520 100 520 c 128,-1,26
 75 520 75 520 57.5 502.5 c 128,-1,27
 40 485 40 485 40 460 c 0,0,1
200 100 m 2,28,29
 200 75 200 75 182.5 57.5 c 128,-1,30
 165 40 165 40 140 40 c 128,-1,31
 115 40 115 40 97.5 57.5 c 128,-1,32
 80 75 80 75 80 100 c 2,33,-1
 80 260 l 2,34,35
 80 285 80 285 97.5 302.5 c 128,-1,36
 115 320 115 320 140 320 c 128,-1,37
 165 320 165 320 182.5 302.5 c 128,-1,38
 200 285 200 285 200 260 c 2,39,-1
 200 100 l 2,28,29
240 100 m 2,40,-1
 240 260 l 2,41,42
 240 301 240 301 210.5 330.5 c 128,-1,43
 181 360 181 360 140 360 c 128,-1,44
 99 360 99 360 69.5 330.5 c 128,-1,45
 40 301 40 301 40 260 c 2,46,-1
 40 100 l 2,47,48
 40 59 40 59 69.5 29.5 c 128,-1,49
 99 0 99 0 140 0 c 128,-1,50
 181 0 181 0 210.5 29.5 c 128,-1,51
 240 59 240 59 240 100 c 2,40,-1
EndSplineSet
EndChar

StartChar: Odieresis
Encoding: 214 214 215
Width: 280
GlyphClass: 1
Flags: W
HStem: 0 40<103.913 176.087> 320 40<103.913 176.087> 440 80<81.5952 118.405 161.595 198.405>
VStem: 40 40<64.0894 100 260 295.911> 80 40<441.595 460 500 518.405> 160 40<441.595 460 500 518.405> 200 40<64.0894 100 260 295.911>
LayerCount: 2
Fore
SplineSet
200 500 m 2,0,1
 200 508 200 508 194 514 c 128,-1,2
 188 520 188 520 180 520 c 128,-1,3
 172 520 172 520 166 514 c 128,-1,4
 160 508 160 508 160 500 c 2,5,-1
 160 460 l 2,6,7
 160 452 160 452 166 446 c 128,-1,8
 172 440 172 440 180 440 c 128,-1,9
 188 440 188 440 194 446 c 128,-1,10
 200 452 200 452 200 460 c 2,11,-1
 200 500 l 2,0,1
120 500 m 2,12,13
 120 508 120 508 114 514 c 128,-1,14
 108 520 108 520 100 520 c 128,-1,15
 92 520 92 520 86 514 c 128,-1,16
 80 508 80 508 80 500 c 2,17,-1
 80 460 l 2,18,19
 80 452 80 452 86 446 c 128,-1,20
 92 440 92 440 100 440 c 128,-1,21
 108 440 108 440 114 446 c 128,-1,22
 120 452 120 452 120 460 c 2,23,-1
 120 500 l 2,12,13
200 100 m 2,24,25
 200 75 200 75 182.5 57.5 c 128,-1,26
 165 40 165 40 140 40 c 128,-1,27
 115 40 115 40 97.5 57.5 c 128,-1,28
 80 75 80 75 80 100 c 2,29,-1
 80 260 l 2,30,31
 80 285 80 285 97.5 302.5 c 128,-1,32
 115 320 115 320 140 320 c 128,-1,33
 165 320 165 320 182.5 302.5 c 128,-1,34
 200 285 200 285 200 260 c 2,35,-1
 200 100 l 2,24,25
240 100 m 2,36,-1
 240 260 l 2,37,38
 240 301 240 301 210.5 330.5 c 128,-1,39
 181 360 181 360 140 360 c 128,-1,40
 99 360 99 360 69.5 330.5 c 128,-1,41
 40 301 40 301 40 260 c 2,42,-1
 40 100 l 2,43,44
 40 59 40 59 69.5 29.5 c 128,-1,45
 99 0 99 0 140 0 c 128,-1,46
 181 0 181 0 210.5 29.5 c 128,-1,47
 240 59 240 59 240 100 c 2,36,-1
EndSplineSet
EndChar

StartChar: multiply
Encoding: 215 215 216
Width: 280
GlyphClass: 1
Flags: W
LayerCount: 2
Fore
SplineSet
234 246 m 2,0,1
 244 255 244 255 238.5 267.5 c 128,-1,2
 233 280 233 280 220 280 c 0,3,4
 212 280 212 280 206 274 c 2,5,-1
 140 208 l 1,6,-1
 74 274 l 2,7,8
 65 284 65 284 52.5 278.5 c 128,-1,9
 40 273 40 273 40 260 c 0,10,11
 40 252 40 252 46 246 c 2,12,-1
 112 180 l 1,13,-1
 46 114 l 2,14,15
 36 105 36 105 41.5 92.5 c 128,-1,16
 47 80 47 80 60 80 c 0,17,18
 68 80 68 80 74 86 c 2,19,-1
 140 152 l 1,20,-1
 206 86 l 2,21,22
 215 76 215 76 227.5 81.5 c 128,-1,23
 240 87 240 87 240 100 c 0,24,25
 240 108 240 108 234 114 c 2,26,-1
 168 180 l 1,27,-1
 234 246 l 2,0,1
EndSplineSet
EndChar

StartChar: Oslash
Encoding: 216 216 217
Width: 280
GlyphClass: 1
Flags: W
HStem: 0 40<103.678 176.087> 320 40<103.913 176.322>
VStem: 40 40<260 295.911> 200 40<64.0894 100>
LayerCount: 2
Fore
SplineSet
298 451 m 2,0,1
 303 461 303 461 297 470.5 c 128,-1,2
 291 480 291 480 280 480 c 0,3,4
 268 480 268 480 262 469 c 2,5,-1
 198 341 l 1,6,7
 172 360 172 360 140 360 c 0,8,9
 99 360 99 360 69.5 330.5 c 128,-1,10
 40 301 40 301 40 260 c 2,11,-1
 40 100 l 2,12,13
 40 74 40 74 53 51 c 1,14,-1
 -18 -91 l 2,15,16
 -23 -101 -23 -101 -17 -110.5 c 128,-1,17
 -11 -120 -11 -120 0 -120 c 0,18,19
 12 -120 12 -120 18 -109 c 2,20,-1
 82 19 l 1,21,22
 108 0 108 0 140 0 c 0,23,24
 181 0 181 0 210.5 29.5 c 128,-1,25
 240 59 240 59 240 100 c 2,26,-1
 240 260 l 2,27,28
 240 286 240 286 227 309 c 1,29,-1
 298 451 l 2,0,1
200 255 m 1,30,-1
 200 100 l 2,31,32
 200 75 200 75 182.5 57.5 c 128,-1,33
 165 40 165 40 140 40 c 0,34,35
 117 40 117 40 100 55 c 1,36,-1
 200 255 l 1,30,-1
80 105 m 1,37,-1
 80 260 l 2,38,39
 80 285 80 285 97.5 302.5 c 128,-1,40
 115 320 115 320 140 320 c 0,41,42
 163 320 163 320 180 305 c 1,43,-1
 80 105 l 1,37,-1
EndSplineSet
EndChar

StartChar: Ugrave
Encoding: 217 217 218
Width: 280
GlyphClass: 1
Flags: W
HStem: 0 40<103.913 176.087>
VStem: 40 40<64.0894 100 340 358.405> 200 40<64.0894 100 340 358.405>
LayerCount: 2
Fore
SplineSet
166 406 m 2,0,1
 175 396 175 396 187.5 401.5 c 128,-1,2
 200 407 200 407 200 420 c 0,3,4
 200 428 200 428 194 434 c 2,5,-1
 114 514 l 2,6,7
 105 524 105 524 92.5 518.5 c 128,-1,8
 80 513 80 513 80 500 c 0,9,10
 80 492 80 492 86 486 c 2,11,-1
 166 406 l 2,0,1
240 340 m 2,12,13
 240 348 240 348 234 354 c 128,-1,14
 228 360 228 360 220 360 c 128,-1,15
 212 360 212 360 206 354 c 128,-1,16
 200 348 200 348 200 340 c 2,17,-1
 200 100 l 2,18,19
 200 75 200 75 182.5 57.5 c 128,-1,20
 165 40 165 40 140 40 c 128,-1,21
 115 40 115 40 97.5 57.5 c 128,-1,22
 80 75 80 75 80 100 c 2,23,-1
 80 340 l 2,24,25
 80 348 80 348 74 354 c 128,-1,26
 68 360 68 360 60 360 c 128,-1,27
 52 360 52 360 46 354 c 128,-1,28
 40 348 40 348 40 340 c 2,29,-1
 40 100 l 2,30,31
 40 59 40 59 69.5 29.5 c 128,-1,32
 99 0 99 0 140 0 c 128,-1,33
 181 0 181 0 210.5 29.5 c 128,-1,34
 240 59 240 59 240 100 c 2,35,-1
 240 340 l 2,12,13
EndSplineSet
EndChar

StartChar: Uacute
Encoding: 218 218 219
Width: 280
GlyphClass: 1
Flags: W
HStem: 0 40<103.913 176.087>
VStem: 40 40<64.0894 100 340 358.405> 200 40<64.0894 100 340 358.405>
LayerCount: 2
Fore
SplineSet
86 434 m 2,0,1
 76 425 76 425 81.5 412.5 c 128,-1,2
 87 400 87 400 100 400 c 0,3,4
 108 400 108 400 114 406 c 2,5,-1
 194 486 l 2,6,7
 204 495 204 495 198.5 507.5 c 128,-1,8
 193 520 193 520 180 520 c 0,9,10
 172 520 172 520 166 514 c 2,11,-1
 86 434 l 2,0,1
240 340 m 2,12,13
 240 348 240 348 234 354 c 128,-1,14
 228 360 228 360 220 360 c 128,-1,15
 212 360 212 360 206 354 c 128,-1,16
 200 348 200 348 200 340 c 2,17,-1
 200 100 l 2,18,19
 200 75 200 75 182.5 57.5 c 128,-1,20
 165 40 165 40 140 40 c 128,-1,21
 115 40 115 40 97.5 57.5 c 128,-1,22
 80 75 80 75 80 100 c 2,23,-1
 80 340 l 2,24,25
 80 348 80 348 74 354 c 128,-1,26
 68 360 68 360 60 360 c 128,-1,27
 52 360 52 360 46 354 c 128,-1,28
 40 348 40 348 40 340 c 2,29,-1
 40 100 l 2,30,31
 40 59 40 59 69.5 29.5 c 128,-1,32
 99 0 99 0 140 0 c 128,-1,33
 181 0 181 0 210.5 29.5 c 128,-1,34
 240 59 240 59 240 100 c 2,35,-1
 240 340 l 2,12,13
EndSplineSet
EndChar

StartChar: Ucircumflex
Encoding: 219 219 220
Width: 280
GlyphClass: 1
Flags: W
HStem: 0 40<103.913 176.087>
VStem: 40 40<64.0894 100 340 358.405> 200 40<64.0894 100 340 358.405>
LayerCount: 2
Fore
SplineSet
206 406 m 2,0,1
 215 396 215 396 227.5 401.5 c 128,-1,2
 240 407 240 407 240 420 c 0,3,4
 240 428 240 428 234 434 c 2,5,-1
 154 514 l 2,6,7
 151 517 151 517 147.5 518.5 c 128,-1,8
 144 520 144 520 141 520 c 0,9,10
 140 520 140 520 140 520 c 2,11,12
 132 520 132 520 126 514 c 2,13,-1
 46 434 l 2,14,15
 36 425 36 425 41.5 412.5 c 128,-1,16
 47 400 47 400 60 400 c 0,17,18
 68 400 68 400 74 406 c 2,19,-1
 140 472 l 1,20,-1
 206 406 l 2,0,1
240 340 m 2,21,22
 240 348 240 348 234 354 c 128,-1,23
 228 360 228 360 220 360 c 128,-1,24
 212 360 212 360 206 354 c 128,-1,25
 200 348 200 348 200 340 c 2,26,-1
 200 100 l 2,27,28
 200 75 200 75 182.5 57.5 c 128,-1,29
 165 40 165 40 140 40 c 128,-1,30
 115 40 115 40 97.5 57.5 c 128,-1,31
 80 75 80 75 80 100 c 2,32,-1
 80 340 l 2,33,34
 80 348 80 348 74 354 c 128,-1,35
 68 360 68 360 60 360 c 128,-1,36
 52 360 52 360 46 354 c 128,-1,37
 40 348 40 348 40 340 c 2,38,-1
 40 100 l 2,39,40
 40 59 40 59 69.5 29.5 c 128,-1,41
 99 0 99 0 140 0 c 128,-1,42
 181 0 181 0 210.5 29.5 c 128,-1,43
 240 59 240 59 240 100 c 2,44,-1
 240 340 l 2,21,22
EndSplineSet
EndChar

StartChar: Udieresis
Encoding: 220 220 221
Width: 280
GlyphClass: 1
Flags: W
HStem: 0 40<103.913 176.087> 440 80<81.5952 118.405 161.595 198.405>
VStem: 40 40<64.0894 100 340 358.405> 80 40<441.595 460 500 518.405> 160 40<441.595 460 500 518.405> 200 40<64.0894 100 340 358.405>
LayerCount: 2
Fore
SplineSet
200 500 m 2,0,1
 200 508 200 508 194 514 c 128,-1,2
 188 520 188 520 180 520 c 128,-1,3
 172 520 172 520 166 514 c 128,-1,4
 160 508 160 508 160 500 c 2,5,-1
 160 460 l 2,6,7
 160 452 160 452 166 446 c 128,-1,8
 172 440 172 440 180 440 c 128,-1,9
 188 440 188 440 194 446 c 128,-1,10
 200 452 200 452 200 460 c 2,11,-1
 200 500 l 2,0,1
120 500 m 2,12,13
 120 508 120 508 114 514 c 128,-1,14
 108 520 108 520 100 520 c 128,-1,15
 92 520 92 520 86 514 c 128,-1,16
 80 508 80 508 80 500 c 2,17,-1
 80 460 l 2,18,19
 80 452 80 452 86 446 c 128,-1,20
 92 440 92 440 100 440 c 128,-1,21
 108 440 108 440 114 446 c 128,-1,22
 120 452 120 452 120 460 c 2,23,-1
 120 500 l 2,12,13
240 340 m 2,24,25
 240 348 240 348 234 354 c 128,-1,26
 228 360 228 360 220 360 c 128,-1,27
 212 360 212 360 206 354 c 128,-1,28
 200 348 200 348 200 340 c 2,29,-1
 200 100 l 2,30,31
 200 75 200 75 182.5 57.5 c 128,-1,32
 165 40 165 40 140 40 c 128,-1,33
 115 40 115 40 97.5 57.5 c 128,-1,34
 80 75 80 75 80 100 c 2,35,-1
 80 340 l 2,36,37
 80 348 80 348 74 354 c 128,-1,38
 68 360 68 360 60 360 c 128,-1,39
 52 360 52 360 46 354 c 128,-1,40
 40 348 40 348 40 340 c 2,41,-1
 40 100 l 2,42,43
 40 59 40 59 69.5 29.5 c 128,-1,44
 99 0 99 0 140 0 c 128,-1,45
 181 0 181 0 210.5 29.5 c 128,-1,46
 240 59 240 59 240 100 c 2,47,-1
 240 340 l 2,24,25
EndSplineSet
EndChar

StartChar: Yacute
Encoding: 221 221 222
Width: 280
GlyphClass: 1
Flags: W
VStem: 120 40<1.59521 20>
LayerCount: 2
Fore
SplineSet
86 434 m 2,0,1
 76 425 76 425 81.5 412.5 c 128,-1,2
 87 400 87 400 100 400 c 0,3,4
 108 400 108 400 114 406 c 2,5,-1
 194 486 l 2,6,7
 204 495 204 495 198.5 507.5 c 128,-1,8
 193 520 193 520 180 520 c 0,9,10
 172 520 172 520 166 514 c 2,11,-1
 86 434 l 2,0,1
120 20 m 2,12,13
 120 12 120 12 126 6 c 128,-1,14
 132 0 132 0 140 0 c 128,-1,15
 148 0 148 0 154 6 c 128,-1,16
 160 12 160 12 160 20 c 2,17,-1
 160 175 l 1,18,-1
 238 331 l 2,19,20
 243 341 243 341 237 350.5 c 128,-1,21
 231 360 231 360 220 360 c 0,22,23
 208 360 208 360 202 349 c 2,24,-1
 140 225 l 1,25,-1
 78 349 l 2,26,27
 71 363 71 363 55.5 359.5 c 128,-1,28
 40 356 40 356 40 340 c 0,29,30
 40 335 40 335 42 331 c 2,31,-1
 120 175 l 1,32,-1
 120 20 l 2,12,13
EndSplineSet
EndChar

StartChar: Thorn
Encoding: 222 222 223
Width: 280
GlyphClass: 1
Flags: W
HStem: 80 40<140 175.911> 240 40<140 175.911>
VStem: 40 40<1.59521 20 340 358.405> 200 40<143.913 216.087>
LayerCount: 2
Fore
SplineSet
80 340 m 2,0,1
 80 348 80 348 74 354 c 128,-1,2
 68 360 68 360 60 360 c 128,-1,3
 52 360 52 360 46 354 c 128,-1,4
 40 348 40 348 40 340 c 2,5,-1
 40 20 l 2,6,7
 40 12 40 12 46 6 c 128,-1,8
 52 0 52 0 60 0 c 128,-1,9
 68 0 68 0 74 6 c 128,-1,10
 80 12 80 12 80 20 c 2,11,-1
 80 80 l 1,12,-1
 140 80 l 2,13,14
 181 80 181 80 210.5 109.5 c 128,-1,15
 240 139 240 139 240 180 c 128,-1,16
 240 221 240 221 210.5 250.5 c 128,-1,17
 181 280 181 280 140 280 c 2,18,-1
 80 280 l 1,19,-1
 80 340 l 2,0,1
80 240 m 1,20,-1
 140 240 l 2,21,22
 165 240 165 240 182.5 222.5 c 128,-1,23
 200 205 200 205 200 180 c 128,-1,24
 200 155 200 155 182.5 137.5 c 128,-1,25
 165 120 165 120 140 120 c 2,26,-1
 80 120 l 1,27,-1
 80 240 l 1,20,-1
EndSplineSet
EndChar

StartChar: germandbls
Encoding: 223 223 224
Width: 280
GlyphClass: 1
Flags: W
HStem: 0 40<121.595 175.911> 160 40<121.595 176.263> 320 40<140 175.911>
VStem: 40 40<1.59521 20> 200 40<63.9133 136.137 223.863 296.087>
CounterMasks: 1 e0
LayerCount: 2
Fore
SplineSet
240 100 m 0,0,1
 240 150 240 150 200 180 c 1,2,3
 240 210 240 210 240 260 c 1,4,5
 240 301 240 301 210.5 330.5 c 128,-1,6
 181 360 181 360 140 360 c 2,7,-1
 60 360 l 2,8,9
 52 360 52 360 46 354 c 128,-1,10
 40 348 40 348 40 340 c 2,11,-1
 40 20 l 2,12,13
 40 12 40 12 46 6 c 128,-1,14
 52 0 52 0 60 0 c 128,-1,15
 68 0 68 0 74 6 c 128,-1,16
 80 12 80 12 80 20 c 2,17,-1
 80 320 l 1,18,-1
 140 320 l 2,19,20
 165 320 165 320 182.5 302.5 c 128,-1,21
 200 285 200 285 200 260 c 129,-1,22
 200 235 200 235 182.5 217.5 c 128,-1,23
 165 200 165 200 140 200 c 0,24,25
 132 200 132 200 126 194 c 128,-1,26
 120 188 120 188 120 180 c 128,-1,27
 120 172 120 172 126 166 c 128,-1,28
 132 160 132 160 140 160 c 0,29,30
 165 160 165 160 182.5 142.5 c 128,-1,31
 200 125 200 125 200 100 c 128,-1,32
 200 75 200 75 182.5 57.5 c 128,-1,33
 165 40 165 40 140 40 c 0,34,35
 132 40 132 40 126 34 c 128,-1,36
 120 28 120 28 120 20 c 128,-1,37
 120 12 120 12 126 6 c 128,-1,38
 132 0 132 0 140 0 c 0,39,40
 181 0 181 0 210.5 29.5 c 128,-1,41
 240 59 240 59 240 100 c 0,0,1
EndSplineSet
EndChar

StartChar: agrave
Encoding: 224 224 225
Width: 280
GlyphClass: 1
Flags: W
HStem: 0 40<81.6132 100 180 198.387> 80 40<81.6132 100 180 198.125> 160 40<81.5952 100 180 198.387>
VStem: 40 40<41.6042 78.3958> 200 40<41.6132 78.4048 140 158.387>
CounterMasks: 1 e0
LayerCount: 2
Fore
SplineSet
166 246 m 2,0,1
 175 236 175 236 187.5 241.5 c 128,-1,2
 200 247 200 247 200 260 c 0,3,4
 200 268 200 268 194 274 c 2,5,-1
 114 354 l 2,6,7
 105 364 105 364 92.5 358.5 c 128,-1,8
 80 353 80 353 80 340 c 0,9,10
 80 332 80 332 86 326 c 2,11,-1
 166 246 l 2,0,1
100 200 m 2,12,13
 92 200 92 200 86 194 c 128,-1,14
 80 188 80 188 80 180 c 128,-1,15
 80 172 80 172 86 166 c 128,-1,16
 92 160 92 160 100 160 c 2,17,-1
 180 160 l 2,18,19
 188 160 188 160 194 154 c 128,-1,20
 200 148 200 148 200 140 c 2,21,-1
 200 117 l 1,22,23
 190 120 190 120 180 120 c 2,24,-1
 100 120 l 2,25,26
 75 120 75 120 57.5 102.5 c 128,-1,27
 40 85 40 85 40 60 c 128,-1,28
 40 35 40 35 57.5 17.5 c 128,-1,29
 75 0 75 0 100 0 c 2,30,-1
 180 0 l 2,31,32
 205 0 205 0 222.5 17.5 c 128,-1,33
 240 35 240 35 240 60 c 2,34,-1
 240 140 l 2,35,36
 240 165 240 165 222.5 182.5 c 128,-1,37
 205 200 205 200 180 200 c 2,38,-1
 100 200 l 2,12,13
180 40 m 2,39,-1
 100 40 l 2,40,41
 92 40 92 40 86 46 c 128,-1,42
 80 52 80 52 80 60 c 128,-1,43
 80 68 80 68 86 74 c 128,-1,44
 92 80 92 80 100 80 c 2,45,-1
 180 80 l 2,46,47
 188 80 188 80 194 74 c 128,-1,48
 200 68 200 68 200 60 c 128,-1,49
 200 52 200 52 194 46 c 128,-1,50
 188 40 188 40 180 40 c 2,39,-1
EndSplineSet
EndChar

StartChar: aacute
Encoding: 225 225 226
Width: 280
GlyphClass: 1
Flags: W
HStem: 0 40<81.6132 100 180 198.387> 80 40<81.6132 100 180 198.125> 160 40<81.5952 100 180 198.387>
VStem: 40 40<41.6042 78.3958> 200 40<41.6132 78.4048 140 158.387>
CounterMasks: 1 e0
LayerCount: 2
Fore
SplineSet
86 274 m 2,0,1
 76 265 76 265 81.5 252.5 c 128,-1,2
 87 240 87 240 100 240 c 0,3,4
 108 240 108 240 114 246 c 2,5,-1
 194 326 l 2,6,7
 204 335 204 335 198.5 347.5 c 128,-1,8
 193 360 193 360 180 360 c 0,9,10
 172 360 172 360 166 354 c 2,11,-1
 86 274 l 2,0,1
100 200 m 2,12,13
 92 200 92 200 86 194 c 128,-1,14
 80 188 80 188 80 180 c 128,-1,15
 80 172 80 172 86 166 c 128,-1,16
 92 160 92 160 100 160 c 2,17,-1
 180 160 l 2,18,19
 188 160 188 160 194 154 c 128,-1,20
 200 148 200 148 200 140 c 2,21,-1
 200 117 l 1,22,23
 190 120 190 120 180 120 c 2,24,-1
 100 120 l 2,25,26
 75 120 75 120 57.5 102.5 c 128,-1,27
 40 85 40 85 40 60 c 128,-1,28
 40 35 40 35 57.5 17.5 c 128,-1,29
 75 0 75 0 100 0 c 2,30,-1
 180 0 l 2,31,32
 205 0 205 0 222.5 17.5 c 128,-1,33
 240 35 240 35 240 60 c 2,34,-1
 240 140 l 2,35,36
 240 165 240 165 222.5 182.5 c 128,-1,37
 205 200 205 200 180 200 c 2,38,-1
 100 200 l 2,12,13
180 40 m 2,39,-1
 100 40 l 2,40,41
 92 40 92 40 86 46 c 128,-1,42
 80 52 80 52 80 60 c 128,-1,43
 80 68 80 68 86 74 c 128,-1,44
 92 80 92 80 100 80 c 2,45,-1
 180 80 l 2,46,47
 188 80 188 80 194 74 c 128,-1,48
 200 68 200 68 200 60 c 128,-1,49
 200 52 200 52 194 46 c 128,-1,50
 188 40 188 40 180 40 c 2,39,-1
EndSplineSet
EndChar

StartChar: acircumflex
Encoding: 226 226 227
Width: 280
GlyphClass: 1
Flags: W
HStem: 0 40<81.6132 100 180 198.387> 80 40<81.6132 100 180 198.125> 160 40<81.5952 100 180 198.387>
VStem: 40 40<41.6042 78.3958> 200 40<41.6132 78.4048 140 158.387>
CounterMasks: 1 e0
LayerCount: 2
Fore
SplineSet
206 246 m 2,0,1
 215 236 215 236 227.5 241.5 c 128,-1,2
 240 247 240 247 240 260 c 0,3,4
 240 268 240 268 234 274 c 2,5,-1
 154 354 l 2,6,7
 151 357 151 357 147.5 358.5 c 128,-1,8
 144 360 144 360 141 360 c 0,9,10
 140 360 140 360 140 360 c 2,11,12
 132 360 132 360 126 354 c 2,13,-1
 46 274 l 2,14,15
 36 265 36 265 41.5 252.5 c 128,-1,16
 47 240 47 240 60 240 c 0,17,18
 68 240 68 240 74 246 c 2,19,-1
 140 312 l 1,20,-1
 206 246 l 2,0,1
100 200 m 2,21,22
 92 200 92 200 86 194 c 128,-1,23
 80 188 80 188 80 180 c 128,-1,24
 80 172 80 172 86 166 c 128,-1,25
 92 160 92 160 100 160 c 2,26,-1
 180 160 l 2,27,28
 188 160 188 160 194 154 c 128,-1,29
 200 148 200 148 200 140 c 2,30,-1
 200 117 l 1,31,32
 190 120 190 120 180 120 c 2,33,-1
 100 120 l 2,34,35
 75 120 75 120 57.5 102.5 c 128,-1,36
 40 85 40 85 40 60 c 128,-1,37
 40 35 40 35 57.5 17.5 c 128,-1,38
 75 0 75 0 100 0 c 2,39,-1
 180 0 l 2,40,41
 205 0 205 0 222.5 17.5 c 128,-1,42
 240 35 240 35 240 60 c 2,43,-1
 240 140 l 2,44,45
 240 165 240 165 222.5 182.5 c 128,-1,46
 205 200 205 200 180 200 c 2,47,-1
 100 200 l 2,21,22
180 40 m 2,48,-1
 100 40 l 2,49,50
 92 40 92 40 86 46 c 128,-1,51
 80 52 80 52 80 60 c 128,-1,52
 80 68 80 68 86 74 c 128,-1,53
 92 80 92 80 100 80 c 2,54,-1
 180 80 l 2,55,56
 188 80 188 80 194 74 c 128,-1,57
 200 68 200 68 200 60 c 128,-1,58
 200 52 200 52 194 46 c 128,-1,59
 188 40 188 40 180 40 c 2,48,-1
EndSplineSet
EndChar

StartChar: atilde
Encoding: 227 227 228
Width: 280
GlyphClass: 1
Flags: W
HStem: 0 40<81.6132 100 180 198.387> 80 40<81.6132 100 180 198.125> 160 40<81.5952 100 180 198.387> 240 40<161.604 198.396> 320 40<81.6042 118.396>
VStem: 40 40<41.6042 78.3958 281.595 318.387> 120 40<281.613 318.387> 200 40<41.6132 78.4048 140 158.387 281.613 318.405>
CounterMasks: 1 07
LayerCount: 2
Fore
SplineSet
40 300 m 0,0,1
 40 292 40 292 46 286 c 128,-1,2
 52 280 52 280 60 280 c 128,-1,3
 68 280 68 280 74 286 c 128,-1,4
 80 292 80 292 80 300 c 128,-1,5
 80 308 80 308 86 314 c 128,-1,6
 92 320 92 320 100 320 c 128,-1,7
 108 320 108 320 114 314 c 128,-1,8
 120 308 120 308 120 300 c 0,9,10
 120 275 120 275 137.5 257.5 c 128,-1,11
 155 240 155 240 180 240 c 128,-1,12
 205 240 205 240 222.5 257.5 c 128,-1,13
 240 275 240 275 240 300 c 0,14,15
 240 308 240 308 234 314 c 128,-1,16
 228 320 228 320 220 320 c 128,-1,17
 212 320 212 320 206 314 c 128,-1,18
 200 308 200 308 200 300 c 128,-1,19
 200 292 200 292 194 286 c 128,-1,20
 188 280 188 280 180 280 c 128,-1,21
 172 280 172 280 166 286 c 128,-1,22
 160 292 160 292 160 300 c 0,23,24
 160 325 160 325 142.5 342.5 c 128,-1,25
 125 360 125 360 100 360 c 128,-1,26
 75 360 75 360 57.5 342.5 c 128,-1,27
 40 325 40 325 40 300 c 0,0,1
100 200 m 2,28,29
 92 200 92 200 86 194 c 128,-1,30
 80 188 80 188 80 180 c 128,-1,31
 80 172 80 172 86 166 c 128,-1,32
 92 160 92 160 100 160 c 2,33,-1
 180 160 l 2,34,35
 188 160 188 160 194 154 c 128,-1,36
 200 148 200 148 200 140 c 2,37,-1
 200 117 l 1,38,39
 190 120 190 120 180 120 c 2,40,-1
 100 120 l 2,41,42
 75 120 75 120 57.5 102.5 c 128,-1,43
 40 85 40 85 40 60 c 128,-1,44
 40 35 40 35 57.5 17.5 c 128,-1,45
 75 0 75 0 100 0 c 2,46,-1
 180 0 l 2,47,48
 205 0 205 0 222.5 17.5 c 128,-1,49
 240 35 240 35 240 60 c 2,50,-1
 240 140 l 2,51,52
 240 165 240 165 222.5 182.5 c 128,-1,53
 205 200 205 200 180 200 c 2,54,-1
 100 200 l 2,28,29
180 40 m 2,55,-1
 100 40 l 2,56,57
 92 40 92 40 86 46 c 128,-1,58
 80 52 80 52 80 60 c 128,-1,59
 80 68 80 68 86 74 c 128,-1,60
 92 80 92 80 100 80 c 2,61,-1
 180 80 l 2,62,63
 188 80 188 80 194 74 c 128,-1,64
 200 68 200 68 200 60 c 128,-1,65
 200 52 200 52 194 46 c 128,-1,66
 188 40 188 40 180 40 c 2,55,-1
EndSplineSet
EndChar

StartChar: adieresis
Encoding: 228 228 229
Width: 280
GlyphClass: 1
Flags: W
HStem: 0 40<81.6132 100 180 198.387> 80 40<81.6132 100 180 198.125> 160 40<81.5952 100 180 198.387> 280 80<81.5952 118.405 161.595 198.405>
VStem: 40 40<41.6042 78.3958> 80 40<281.595 300 340 358.405> 160 40<281.595 300 340 358.405> 200 40<41.6132 78.4048 140 158.387>
LayerCount: 2
Fore
SplineSet
200 340 m 2,0,1
 200 348 200 348 194 354 c 128,-1,2
 188 360 188 360 180 360 c 128,-1,3
 172 360 172 360 166 354 c 128,-1,4
 160 348 160 348 160 340 c 2,5,-1
 160 300 l 2,6,7
 160 292 160 292 166 286 c 128,-1,8
 172 280 172 280 180 280 c 128,-1,9
 188 280 188 280 194 286 c 128,-1,10
 200 292 200 292 200 300 c 2,11,-1
 200 340 l 2,0,1
120 340 m 2,12,13
 120 348 120 348 114 354 c 128,-1,14
 108 360 108 360 100 360 c 128,-1,15
 92 360 92 360 86 354 c 128,-1,16
 80 348 80 348 80 340 c 2,17,-1
 80 300 l 2,18,19
 80 292 80 292 86 286 c 128,-1,20
 92 280 92 280 100 280 c 128,-1,21
 108 280 108 280 114 286 c 128,-1,22
 120 292 120 292 120 300 c 2,23,-1
 120 340 l 2,12,13
100 200 m 2,24,25
 92 200 92 200 86 194 c 128,-1,26
 80 188 80 188 80 180 c 128,-1,27
 80 172 80 172 86 166 c 128,-1,28
 92 160 92 160 100 160 c 2,29,-1
 180 160 l 2,30,31
 188 160 188 160 194 154 c 128,-1,32
 200 148 200 148 200 140 c 2,33,-1
 200 117 l 1,34,35
 190 120 190 120 180 120 c 2,36,-1
 100 120 l 2,37,38
 75 120 75 120 57.5 102.5 c 128,-1,39
 40 85 40 85 40 60 c 128,-1,40
 40 35 40 35 57.5 17.5 c 128,-1,41
 75 0 75 0 100 0 c 2,42,-1
 180 0 l 2,43,44
 205 0 205 0 222.5 17.5 c 128,-1,45
 240 35 240 35 240 60 c 2,46,-1
 240 140 l 2,47,48
 240 165 240 165 222.5 182.5 c 128,-1,49
 205 200 205 200 180 200 c 2,50,-1
 100 200 l 2,24,25
180 40 m 2,51,-1
 100 40 l 2,52,53
 92 40 92 40 86 46 c 128,-1,54
 80 52 80 52 80 60 c 128,-1,55
 80 68 80 68 86 74 c 128,-1,56
 92 80 92 80 100 80 c 2,57,-1
 180 80 l 2,58,59
 188 80 188 80 194 74 c 128,-1,60
 200 68 200 68 200 60 c 128,-1,61
 200 52 200 52 194 46 c 128,-1,62
 188 40 188 40 180 40 c 2,51,-1
EndSplineSet
EndChar

StartChar: aring
Encoding: 229 229 230
Width: 280
GlyphClass: 1
Flags: W
HStem: 0 40<81.6132 100 180 198.387> 80 40<81.6132 100 180 198.125> 160 40<81.5952 100 180 198.387> 240 40<121.604 158.396> 320 40<121.604 158.396>
VStem: 40 40<41.6042 78.3958> 80 40<281.604 318.396> 160 40<281.604 318.396> 200 40<41.6132 78.4048 140 158.387>
LayerCount: 2
Fore
SplineSet
100 200 m 2,0,1
 92 200 92 200 86 194 c 128,-1,2
 80 188 80 188 80 180 c 128,-1,3
 80 172 80 172 86 166 c 128,-1,4
 92 160 92 160 100 160 c 2,5,-1
 180 160 l 2,6,7
 188 160 188 160 194 154 c 128,-1,8
 200 148 200 148 200 140 c 2,9,-1
 200 117 l 1,10,11
 190 120 190 120 180 120 c 2,12,-1
 100 120 l 2,13,14
 75 120 75 120 57.5 102.5 c 128,-1,15
 40 85 40 85 40 60 c 128,-1,16
 40 35 40 35 57.5 17.5 c 128,-1,17
 75 0 75 0 100 0 c 2,18,-1
 180 0 l 2,19,20
 205 0 205 0 222.5 17.5 c 128,-1,21
 240 35 240 35 240 60 c 2,22,-1
 240 140 l 2,23,24
 240 165 240 165 222.5 182.5 c 128,-1,25
 205 200 205 200 180 200 c 2,26,-1
 100 200 l 2,0,1
200 300 m 128,-1,28
 200 325 200 325 182.5 342.5 c 128,-1,29
 165 360 165 360 140 360 c 128,-1,30
 115 360 115 360 97.5 342.5 c 128,-1,31
 80 325 80 325 80 300 c 128,-1,32
 80 275 80 275 97.5 257.5 c 128,-1,33
 115 240 115 240 140 240 c 128,-1,34
 165 240 165 240 182.5 257.5 c 128,-1,27
 200 275 200 275 200 300 c 128,-1,28
160 300 m 128,-1,36
 160 292 160 292 154 286 c 128,-1,37
 148 280 148 280 140 280 c 128,-1,38
 132 280 132 280 126 286 c 128,-1,39
 120 292 120 292 120 300 c 128,-1,40
 120 308 120 308 126 314 c 128,-1,41
 132 320 132 320 140 320 c 128,-1,42
 148 320 148 320 154 314 c 128,-1,35
 160 308 160 308 160 300 c 128,-1,36
180 40 m 2,43,-1
 100 40 l 2,44,45
 92 40 92 40 86 46 c 128,-1,46
 80 52 80 52 80 60 c 128,-1,47
 80 68 80 68 86 74 c 128,-1,48
 92 80 92 80 100 80 c 2,49,-1
 180 80 l 2,50,51
 188 80 188 80 194 74 c 128,-1,52
 200 68 200 68 200 60 c 128,-1,53
 200 52 200 52 194 46 c 128,-1,54
 188 40 188 40 180 40 c 2,43,-1
EndSplineSet
EndChar

StartChar: ae
Encoding: 230 230 231
Width: 280
GlyphClass: 1
Flags: W
HStem: 0 40<41.6132 60 220 238.405> 80 40<41.6132 60> 160 40<41.5952 60 220 238.387>
VStem: 0 40<41.6042 78.3958> 240 40<140 158.387>
CounterMasks: 1 e0
LayerCount: 2
Fore
SplineSet
220 0 m 2,0,1
 228 0 228 0 234 6 c 128,-1,2
 240 12 240 12 240 20 c 128,-1,3
 240 28 240 28 234 34 c 128,-1,4
 228 40 228 40 220 40 c 2,5,-1
 160 40 l 1,6,-1
 160 80 l 1,7,-1
 260 80 l 2,8,9
 268 80 268 80 274 86 c 128,-1,10
 280 92 280 92 280 100 c 2,11,-1
 280 140 l 2,12,13
 280 165 280 165 262.5 182.5 c 128,-1,14
 245 200 245 200 220 200 c 2,15,-1
 140 200 l 1,16,-1
 60 200 l 2,17,18
 52 200 52 200 46 194 c 128,-1,19
 40 188 40 188 40 180 c 128,-1,20
 40 172 40 172 46 166 c 128,-1,21
 52 160 52 160 60 160 c 2,22,-1
 120 160 l 1,23,-1
 120 120 l 1,24,-1
 60 120 l 2,25,26
 35 120 35 120 17.5 102.5 c 128,-1,27
 0 85 0 85 0 60 c 128,-1,28
 0 35 0 35 17.5 17.5 c 128,-1,29
 35 0 35 0 60 0 c 2,30,-1
 140 0 l 1,31,-1
 220 0 l 2,0,1
160 160 m 1,32,-1
 220 160 l 2,33,34
 228 160 228 160 234 154 c 128,-1,35
 240 148 240 148 240 140 c 2,36,-1
 240 120 l 1,37,-1
 160 120 l 1,38,-1
 160 160 l 1,32,-1
120 40 m 1,39,-1
 60 40 l 2,40,41
 52 40 52 40 46 46 c 128,-1,42
 40 52 40 52 40 60 c 128,-1,43
 40 68 40 68 46 74 c 128,-1,44
 52 80 52 80 60 80 c 2,45,-1
 120 80 l 1,46,-1
 120 40 l 1,39,-1
EndSplineSet
EndChar

StartChar: ccedilla
Encoding: 231 231 232
Width: 280
GlyphClass: 1
Flags: W
HStem: -80 40<121.595 158.387> 0 40<104.613 157.985> 160 40<103.609 175.369>
VStem: 40 40<64.6315 136.391> 160 40<-38.3958 -1.65845>
LayerCount: 2
Fore
SplineSet
140 200 m 128,-1,1
 182 200 182 200 211 171 c 0,2,3
 217 165 217 165 217 156.5 c 128,-1,4
 217 148 217 148 211 142.5 c 128,-1,5
 205 137 205 137 196.5 137 c 128,-1,6
 188 137 188 137 182 142 c 0,7,8
 165 160 165 160 140 160 c 128,-1,9
 115 160 115 160 97.5 142.5 c 128,-1,10
 80 125 80 125 80 100 c 128,-1,11
 80 75 80 75 98 58 c 0,12,13
 115 41 115 41 138 40 c 0,14,15
 139 40 139 40 140 40 c 256,16,17
 141 40 141 40 143 40 c 0,18,19
 166 41 166 41 182 58 c 0,20,21
 188 63 188 63 196.5 63 c 128,-1,22
 205 63 205 63 211 57.5 c 128,-1,23
 217 52 217 52 217 43.5 c 128,-1,24
 217 35 217 35 211 29 c 0,25,26
 201 20 201 20 190 13 c 1,27,28
 200 -2 200 -2 200 -20 c 0,29,30
 200 -45 200 -45 182.5 -62.5 c 128,-1,31
 165 -80 165 -80 140 -80 c 0,32,33
 132 -80 132 -80 126 -74 c 128,-1,34
 120 -68 120 -68 120 -60 c 128,-1,35
 120 -52 120 -52 126 -46 c 128,-1,36
 132 -40 132 -40 140 -40 c 128,-1,37
 148 -40 148 -40 154 -34 c 128,-1,38
 160 -28 160 -28 160 -20 c 128,-1,39
 160 -12 160 -12 154 -6 c 128,-1,40
 148 0 148 0 140 0 c 0,41,42
 139 0 139 0 138 0 c 0,43,44
 97 1 97 1 69 29 c 0,45,46
 40 58 40 58 40 100 c 128,-1,47
 40 142 40 142 69 171 c 128,-1,0
 98 200 98 200 140 200 c 128,-1,1
EndSplineSet
EndChar

StartChar: egrave
Encoding: 232 232 233
Width: 280
GlyphClass: 1
Flags: W
HStem: 0 40<81.6132 100 180 198.405> 160 40<81.6132 100 180 198.387>
VStem: 40 40<41.6132 60 140 158.387> 200 40<140 158.387>
LayerCount: 2
Fore
SplineSet
166 246 m 2,0,1
 175 236 175 236 187.5 241.5 c 128,-1,2
 200 247 200 247 200 260 c 0,3,4
 200 268 200 268 194 274 c 2,5,-1
 114 354 l 2,6,7
 105 364 105 364 92.5 358.5 c 128,-1,8
 80 353 80 353 80 340 c 0,9,10
 80 332 80 332 86 326 c 2,11,-1
 166 246 l 2,0,1
200 120 m 1,12,-1
 80 120 l 1,13,-1
 80 140 l 2,14,15
 80 148 80 148 86 154 c 128,-1,16
 92 160 92 160 100 160 c 2,17,-1
 180 160 l 2,18,19
 188 160 188 160 194 154 c 128,-1,20
 200 148 200 148 200 140 c 2,21,-1
 200 120 l 1,12,-1
180 0 m 2,22,23
 188 0 188 0 194 6 c 128,-1,24
 200 12 200 12 200 20 c 128,-1,25
 200 28 200 28 194 34 c 128,-1,26
 188 40 188 40 180 40 c 2,27,-1
 100 40 l 2,28,29
 92 40 92 40 86 46 c 128,-1,30
 80 52 80 52 80 60 c 2,31,-1
 80 80 l 1,32,-1
 220 80 l 2,33,34
 228 80 228 80 234 86 c 128,-1,35
 240 92 240 92 240 100 c 2,36,-1
 240 140 l 2,37,38
 240 165 240 165 222.5 182.5 c 128,-1,39
 205 200 205 200 180 200 c 2,40,-1
 100 200 l 2,41,42
 75 200 75 200 57.5 182.5 c 128,-1,43
 40 165 40 165 40 140 c 2,44,-1
 40 60 l 2,45,46
 40 35 40 35 57.5 17.5 c 128,-1,47
 75 0 75 0 100 0 c 2,48,-1
 180 0 l 2,22,23
EndSplineSet
EndChar

StartChar: eacute
Encoding: 233 233 234
Width: 280
GlyphClass: 1
Flags: W
HStem: 0 40<81.6132 100 180 198.405> 160 40<81.6132 100 180 198.387>
VStem: 40 40<41.6132 60 140 158.387> 200 40<140 158.387>
LayerCount: 2
Fore
SplineSet
180 0 m 2,0,1
 188 0 188 0 194 6 c 128,-1,2
 200 12 200 12 200 20 c 128,-1,3
 200 28 200 28 194 34 c 128,-1,4
 188 40 188 40 180 40 c 2,5,-1
 100 40 l 2,6,7
 92 40 92 40 86 46 c 128,-1,8
 80 52 80 52 80 60 c 2,9,-1
 80 80 l 1,10,-1
 220 80 l 2,11,12
 228 80 228 80 234 86 c 128,-1,13
 240 92 240 92 240 100 c 2,14,-1
 240 140 l 2,15,16
 240 165 240 165 222.5 182.5 c 128,-1,17
 205 200 205 200 180 200 c 2,18,-1
 100 200 l 2,19,20
 75 200 75 200 57.5 182.5 c 128,-1,21
 40 165 40 165 40 140 c 2,22,-1
 40 60 l 2,23,24
 40 35 40 35 57.5 17.5 c 128,-1,25
 75 0 75 0 100 0 c 2,26,-1
 180 0 l 2,0,1
86 274 m 2,27,28
 76 265 76 265 81.5 252.5 c 128,-1,29
 87 240 87 240 100 240 c 0,30,31
 108 240 108 240 114 246 c 2,32,-1
 194 326 l 2,33,34
 204 335 204 335 198.5 347.5 c 128,-1,35
 193 360 193 360 180 360 c 0,36,37
 172 360 172 360 166 354 c 2,38,-1
 86 274 l 2,27,28
80 120 m 1,39,-1
 80 140 l 2,40,41
 80 148 80 148 86 154 c 128,-1,42
 92 160 92 160 100 160 c 2,43,-1
 180 160 l 2,44,45
 188 160 188 160 194 154 c 128,-1,46
 200 148 200 148 200 140 c 2,47,-1
 200 120 l 1,48,-1
 80 120 l 1,39,-1
EndSplineSet
EndChar

StartChar: ecircumflex
Encoding: 234 234 235
Width: 280
GlyphClass: 1
Flags: W
HStem: 0 40<81.6132 100 180 198.405> 160 40<81.6132 100 180 198.387>
VStem: 40 40<41.6132 60 140 158.387> 200 40<140 158.387>
LayerCount: 2
Fore
SplineSet
200 120 m 1,0,-1
 80 120 l 1,1,-1
 80 140 l 2,2,3
 80 148 80 148 86 154 c 128,-1,4
 92 160 92 160 100 160 c 2,5,-1
 180 160 l 2,6,7
 188 160 188 160 194 154 c 128,-1,8
 200 148 200 148 200 140 c 2,9,-1
 200 120 l 1,0,-1
180 0 m 2,10,11
 188 0 188 0 194 6 c 128,-1,12
 200 12 200 12 200 20 c 128,-1,13
 200 28 200 28 194 34 c 128,-1,14
 188 40 188 40 180 40 c 2,15,-1
 100 40 l 2,16,17
 92 40 92 40 86 46 c 128,-1,18
 80 52 80 52 80 60 c 2,19,-1
 80 80 l 1,20,-1
 220 80 l 2,21,22
 228 80 228 80 234 86 c 128,-1,23
 240 92 240 92 240 100 c 2,24,-1
 240 140 l 2,25,26
 240 165 240 165 222.5 182.5 c 128,-1,27
 205 200 205 200 180 200 c 2,28,-1
 100 200 l 2,29,30
 75 200 75 200 57.5 182.5 c 128,-1,31
 40 165 40 165 40 140 c 2,32,-1
 40 60 l 2,33,34
 40 35 40 35 57.5 17.5 c 128,-1,35
 75 0 75 0 100 0 c 2,36,-1
 180 0 l 2,10,11
206 246 m 2,37,38
 215 236 215 236 227.5 241.5 c 128,-1,39
 240 247 240 247 240 260 c 0,40,41
 240 268 240 268 234 274 c 2,42,-1
 154 354 l 2,43,44
 151 357 151 357 147.5 358.5 c 128,-1,45
 144 360 144 360 141 360 c 0,46,47
 140 360 140 360 140 360 c 2,48,49
 132 360 132 360 126 354 c 2,50,-1
 46 274 l 2,51,52
 36 265 36 265 41.5 252.5 c 128,-1,53
 47 240 47 240 60 240 c 0,54,55
 68 240 68 240 74 246 c 2,56,-1
 140 312 l 1,57,-1
 206 246 l 2,37,38
EndSplineSet
EndChar

StartChar: edieresis
Encoding: 235 235 236
Width: 280
GlyphClass: 1
Flags: W
HStem: 0 40<81.6132 100 180 198.405> 160 40<81.6132 100 180 198.387> 280 80<81.5952 118.405 161.595 198.405>
VStem: 40 40<41.6132 60 140 158.387> 80 40<281.595 300 340 358.405> 160 40<281.595 300 340 358.405> 200 40<140 158.387>
LayerCount: 2
Fore
SplineSet
200 120 m 1,0,-1
 80 120 l 1,1,-1
 80 140 l 2,2,3
 80 148 80 148 86 154 c 128,-1,4
 92 160 92 160 100 160 c 2,5,-1
 180 160 l 2,6,7
 188 160 188 160 194 154 c 128,-1,8
 200 148 200 148 200 140 c 2,9,-1
 200 120 l 1,0,-1
180 0 m 2,10,11
 188 0 188 0 194 6 c 128,-1,12
 200 12 200 12 200 20 c 128,-1,13
 200 28 200 28 194 34 c 128,-1,14
 188 40 188 40 180 40 c 2,15,-1
 100 40 l 2,16,17
 92 40 92 40 86 46 c 128,-1,18
 80 52 80 52 80 60 c 2,19,-1
 80 80 l 1,20,-1
 220 80 l 2,21,22
 228 80 228 80 234 86 c 128,-1,23
 240 92 240 92 240 100 c 2,24,-1
 240 140 l 2,25,26
 240 165 240 165 222.5 182.5 c 128,-1,27
 205 200 205 200 180 200 c 2,28,-1
 100 200 l 2,29,30
 75 200 75 200 57.5 182.5 c 128,-1,31
 40 165 40 165 40 140 c 2,32,-1
 40 60 l 2,33,34
 40 35 40 35 57.5 17.5 c 128,-1,35
 75 0 75 0 100 0 c 2,36,-1
 180 0 l 2,10,11
200 340 m 2,37,38
 200 348 200 348 194 354 c 128,-1,39
 188 360 188 360 180 360 c 128,-1,40
 172 360 172 360 166 354 c 128,-1,41
 160 348 160 348 160 340 c 2,42,-1
 160 300 l 2,43,44
 160 292 160 292 166 286 c 128,-1,45
 172 280 172 280 180 280 c 128,-1,46
 188 280 188 280 194 286 c 128,-1,47
 200 292 200 292 200 300 c 2,48,-1
 200 340 l 2,37,38
120 340 m 2,49,50
 120 348 120 348 114 354 c 128,-1,51
 108 360 108 360 100 360 c 128,-1,52
 92 360 92 360 86 354 c 128,-1,53
 80 348 80 348 80 340 c 2,54,-1
 80 300 l 2,55,56
 80 292 80 292 86 286 c 128,-1,57
 92 280 92 280 100 280 c 128,-1,58
 108 280 108 280 114 286 c 128,-1,59
 120 292 120 292 120 300 c 2,60,-1
 120 340 l 2,49,50
EndSplineSet
EndChar

StartChar: igrave
Encoding: 236 236 237
Width: 280
GlyphClass: 1
Flags: W
VStem: 120 40<1.59521 20 180 198.405>
LayerCount: 2
Fore
SplineSet
120 20 m 2,0,1
 120 12 120 12 126 6 c 128,-1,2
 132 0 132 0 140 0 c 128,-1,3
 148 0 148 0 154 6 c 128,-1,4
 160 12 160 12 160 20 c 2,5,-1
 160 180 l 2,6,7
 160 188 160 188 154 194 c 128,-1,8
 148 200 148 200 140 200 c 128,-1,9
 132 200 132 200 126 194 c 128,-1,10
 120 188 120 188 120 180 c 2,11,-1
 120 20 l 2,0,1
166 246 m 2,12,13
 175 236 175 236 187.5 241.5 c 128,-1,14
 200 247 200 247 200 260 c 0,15,16
 200 268 200 268 194 274 c 2,17,-1
 114 354 l 2,18,19
 105 364 105 364 92.5 358.5 c 128,-1,20
 80 353 80 353 80 340 c 0,21,22
 80 332 80 332 86 326 c 2,23,-1
 166 246 l 2,12,13
EndSplineSet
EndChar

StartChar: iacute
Encoding: 237 237 238
Width: 280
GlyphClass: 1
Flags: W
VStem: 120 40<1.59521 20 180 198.405>
LayerCount: 2
Fore
SplineSet
120 20 m 2,0,1
 120 12 120 12 126 6 c 128,-1,2
 132 0 132 0 140 0 c 128,-1,3
 148 0 148 0 154 6 c 128,-1,4
 160 12 160 12 160 20 c 2,5,-1
 160 180 l 2,6,7
 160 188 160 188 154 194 c 128,-1,8
 148 200 148 200 140 200 c 128,-1,9
 132 200 132 200 126 194 c 128,-1,10
 120 188 120 188 120 180 c 2,11,-1
 120 20 l 2,0,1
86 274 m 2,12,13
 76 265 76 265 81.5 252.5 c 128,-1,14
 87 240 87 240 100 240 c 0,15,16
 108 240 108 240 114 246 c 2,17,-1
 194 326 l 2,18,19
 204 335 204 335 198.5 347.5 c 128,-1,20
 193 360 193 360 180 360 c 0,21,22
 172 360 172 360 166 354 c 2,23,-1
 86 274 l 2,12,13
EndSplineSet
EndChar

StartChar: icircumflex
Encoding: 238 238 239
Width: 280
GlyphClass: 1
Flags: W
VStem: 120 40<1.59521 20 180 198.405>
LayerCount: 2
Fore
SplineSet
206 246 m 2,0,1
 215 236 215 236 227.5 241.5 c 128,-1,2
 240 247 240 247 240 260 c 0,3,4
 240 268 240 268 234 274 c 2,5,-1
 154 354 l 2,6,7
 151 357 151 357 147.5 358.5 c 128,-1,8
 144 360 144 360 141 360 c 0,9,10
 140 360 140 360 140 360 c 2,11,12
 132 360 132 360 126 354 c 2,13,-1
 46 274 l 2,14,15
 36 265 36 265 41.5 252.5 c 128,-1,16
 47 240 47 240 60 240 c 0,17,18
 68 240 68 240 74 246 c 2,19,-1
 140 312 l 1,20,-1
 206 246 l 2,0,1
120 20 m 2,21,22
 120 12 120 12 126 6 c 128,-1,23
 132 0 132 0 140 0 c 128,-1,24
 148 0 148 0 154 6 c 128,-1,25
 160 12 160 12 160 20 c 2,26,-1
 160 180 l 2,27,28
 160 188 160 188 154 194 c 128,-1,29
 148 200 148 200 140 200 c 128,-1,30
 132 200 132 200 126 194 c 128,-1,31
 120 188 120 188 120 180 c 2,32,-1
 120 20 l 2,21,22
EndSplineSet
EndChar

StartChar: idieresis
Encoding: 239 239 240
Width: 280
GlyphClass: 1
Flags: W
HStem: 280 80<81.5952 118.405 161.595 198.405>
VStem: 80 40<281.595 300 340 358.405> 120 40<1.59521 20 180 198.405> 160 40<281.595 300 340 358.405>
LayerCount: 2
Fore
SplineSet
120 20 m 2,0,1
 120 12 120 12 126 6 c 128,-1,2
 132 0 132 0 140 0 c 128,-1,3
 148 0 148 0 154 6 c 128,-1,4
 160 12 160 12 160 20 c 2,5,-1
 160 180 l 2,6,7
 160 188 160 188 154 194 c 128,-1,8
 148 200 148 200 140 200 c 128,-1,9
 132 200 132 200 126 194 c 128,-1,10
 120 188 120 188 120 180 c 2,11,-1
 120 20 l 2,0,1
120 340 m 2,12,13
 120 348 120 348 114 354 c 128,-1,14
 108 360 108 360 100 360 c 128,-1,15
 92 360 92 360 86 354 c 128,-1,16
 80 348 80 348 80 340 c 2,17,-1
 80 300 l 2,18,19
 80 292 80 292 86 286 c 128,-1,20
 92 280 92 280 100 280 c 128,-1,21
 108 280 108 280 114 286 c 128,-1,22
 120 292 120 292 120 300 c 2,23,-1
 120 340 l 2,12,13
200 340 m 2,24,25
 200 348 200 348 194 354 c 128,-1,26
 188 360 188 360 180 360 c 128,-1,27
 172 360 172 360 166 354 c 128,-1,28
 160 348 160 348 160 340 c 2,29,-1
 160 300 l 2,30,31
 160 292 160 292 166 286 c 128,-1,32
 172 280 172 280 180 280 c 128,-1,33
 188 280 188 280 194 286 c 128,-1,34
 200 292 200 292 200 300 c 2,35,-1
 200 340 l 2,24,25
EndSplineSet
EndChar

StartChar: eth
Encoding: 240 240 241
Width: 280
GlyphClass: 1
Flags: W
HStem: 0 40<103.913 176.087> 160 40<103.913 176.207> 280 40<81.5952 100 180 198.387>
VStem: 40 40<63.9133 136.087> 120 40<241.595 260 340 358.405> 200 40<64.0894 100 101 136.292 260 278.387>
CounterMasks: 1 1c
LayerCount: 2
Fore
SplineSet
160 340 m 2,0,1
 160 348 160 348 154 354 c 128,-1,2
 148 360 148 360 140 360 c 128,-1,3
 132 360 132 360 126 354 c 128,-1,4
 120 348 120 348 120 340 c 2,5,-1
 120 320 l 1,6,-1
 100 320 l 2,7,8
 92 320 92 320 86 314 c 128,-1,9
 80 308 80 308 80 300 c 128,-1,10
 80 292 80 292 86 286 c 128,-1,11
 92 280 92 280 100 280 c 2,12,-1
 120 280 l 1,13,-1
 120 260 l 2,14,15
 120 252 120 252 126 246 c 128,-1,16
 132 240 132 240 140 240 c 128,-1,17
 148 240 148 240 154 246 c 128,-1,18
 160 252 160 252 160 260 c 2,19,-1
 160 280 l 1,20,-1
 180 280 l 2,21,22
 188 280 188 280 194 274 c 128,-1,23
 200 268 200 268 200 260 c 2,24,-1
 200 180 l 1,25,26
 173 200 173 200 140 200 c 0,27,28
 99 200 99 200 69.5 170.5 c 128,-1,29
 40 141 40 141 40 100 c 128,-1,30
 40 59 40 59 69.5 29.5 c 128,-1,31
 99 0 99 0 140 0 c 128,-1,32
 181 0 181 0 210.5 29.5 c 128,-1,33
 240 59 240 59 240 100 c 1,34,35
 240 100 240 100 240 180 c 1,36,-1
 240 260 l 2,37,38
 240 285 240 285 222.5 302.5 c 128,-1,39
 205 320 205 320 180 320 c 2,40,-1
 160 320 l 1,41,-1
 160 340 l 2,0,1
80 100 m 128,-1,43
 80 125 80 125 97.5 142.5 c 128,-1,44
 115 160 115 160 140 160 c 128,-1,45
 165 160 165 160 182.5 142.5 c 128,-1,46
 200 125 200 125 200 101 c 2,47,-1
 200 100 l 2,48,49
 200 75 200 75 182.5 57.5 c 128,-1,50
 165 40 165 40 140 40 c 128,-1,51
 115 40 115 40 97.5 57.5 c 128,-1,42
 80 75 80 75 80 100 c 128,-1,43
EndSplineSet
EndChar

StartChar: ntilde
Encoding: 241 241 242
Width: 280
GlyphClass: 1
Flags: W
HStem: 160 40<103.913 176.087> 240 40<161.604 198.396> 320 40<81.6042 118.396>
VStem: 40 40<1.59521 20 100 135.911 281.595 318.387> 120 40<281.613 318.387> 200 40<1.59521 20 100 135.911 281.613 318.405>
CounterMasks: 1 fc
LayerCount: 2
Fore
SplineSet
60 0 m 128,-1,1
 68 0 68 0 74 6 c 128,-1,2
 80 12 80 12 80 20 c 2,3,-1
 80 100 l 1,4,5
 80 125 80 125 97.5 142.5 c 128,-1,6
 115 160 115 160 140 160 c 128,-1,7
 165 160 165 160 182.5 142.5 c 128,-1,8
 200 125 200 125 200 100 c 2,9,-1
 200 20 l 2,10,11
 200 12 200 12 206 6 c 128,-1,12
 212 0 212 0 220 0 c 128,-1,13
 228 0 228 0 234 6 c 128,-1,14
 240 12 240 12 240 20 c 2,15,-1
 240 100 l 2,16,17
 240 141 240 141 210.5 170.5 c 128,-1,18
 181 200 181 200 140 200 c 128,-1,19
 99 200 99 200 69.5 170.5 c 128,-1,20
 40 141 40 141 40 100 c 2,21,-1
 40 20 l 2,22,23
 40 12 40 12 46 6 c 128,-1,0
 52 0 52 0 60 0 c 128,-1,1
40 300 m 0,24,25
 40 292 40 292 46 286 c 128,-1,26
 52 280 52 280 60 280 c 128,-1,27
 68 280 68 280 74 286 c 128,-1,28
 80 292 80 292 80 300 c 128,-1,29
 80 308 80 308 86 314 c 128,-1,30
 92 320 92 320 100 320 c 128,-1,31
 108 320 108 320 114 314 c 128,-1,32
 120 308 120 308 120 300 c 0,33,34
 120 275 120 275 137.5 257.5 c 128,-1,35
 155 240 155 240 180 240 c 128,-1,36
 205 240 205 240 222.5 257.5 c 128,-1,37
 240 275 240 275 240 300 c 0,38,39
 240 308 240 308 234 314 c 128,-1,40
 228 320 228 320 220 320 c 128,-1,41
 212 320 212 320 206 314 c 128,-1,42
 200 308 200 308 200 300 c 128,-1,43
 200 292 200 292 194 286 c 128,-1,44
 188 280 188 280 180 280 c 128,-1,45
 172 280 172 280 166 286 c 128,-1,46
 160 292 160 292 160 300 c 0,47,48
 160 325 160 325 142.5 342.5 c 128,-1,49
 125 360 125 360 100 360 c 128,-1,50
 75 360 75 360 57.5 342.5 c 128,-1,51
 40 325 40 325 40 300 c 0,24,25
EndSplineSet
EndChar

